<?xml version="1.0" encoding="utf-8"?>
<!-- Generator: Adobe Illustrator 17.1.0, SVG Export Plug-In . SVG Version: 6.00 Build 0)  -->
<!DOCTYPE svg PUBLIC "-//W3C//DTD SVG 1.1//EN" "http://www.w3.org/Graphics/SVG/1.1/DTD/svg11.dtd">
<svg version="1.1" id="Layer_1" xmlns="http://www.w3.org/2000/svg" xmlns:xlink="http://www.w3.org/1999/xlink" x="0px" y="0px"
	 viewBox="0 124.7 494 250.7" enable-background="new 0 124.7 494 250.7" xml:space="preserve">
<g id="zuvz04_1_">
	<g>
		<g>
			<path fill="#008189" d="M0,248.1c0-41.4,0-82.8,0-124.2c110.4,0,220.8,0,331.3,0c7.9,7.9,6.9,15.9,0.3,23.8
				c-5.5,6.9-7.9,13.8-2.4,21.7c0.3,2.8,0,5.5-1.7,7.6c-6.2,6.6-14.5,11.7-15.2,22.4c0,4.1-1,8.3-2.1,12.4c0,3.1,1,5.9,1.4,9
				c-4.1,10.7-13.5,17.9-17.6,28.6c-1,1.4-2.4,2.8-3.8,3.5c-3.1,1-6.6,1-9,3.8c-1.4,2.1-3.8,2.8-5.9,4.1c-2.8,1.7-4.8,4.1-7.2,5.9
				c-2.1,1.4-4.1,2.8-6.9,3.1c-3.5,0-6.6-2.1-9.7-3.5c-4.1-7.2-12.8-5.9-18.3-10.4c-1.4-1-2.4-2.1-3.5-3.5c-1-2.1-2.4-4.1-3.1-6.6
				c-0.3-1.4-0.7-3.1-0.7-4.5c-0.3-2.4-0.7-4.5-1-6.9c0.3-5.5-5.5-9-5.5-14.8c0.3-6.2-0.3-11.7-8.6-11c-6.6,0.7-8.3,5.9-10,11
				c-1.4,4.5,2.4,9.7-1.4,13.8c-5.5,3.8-5.2,9-4.8,14.8c0.7,14.1-12.1,29-26.2,31.4c-7.6-3.5-3.1-16.6-13.8-17.3
				c-1.4,0-2.4,0-3.8,0.3c-1.4,0.3-2.4,0.7-3.8,1.4c-6.2,3.5-12.4,2.8-19,1.4c-4.8-2.4-9.3-5.5-14.8-6.6c-3.8-2.1-6.2-5.2-9-8.3
				c-1-1.4-1.7-2.8-2.1-4.5c-0.3-1.7-0.3-3.1-0.7-4.8c-0.3-3.1-1-6.2-3.1-9c-1.7-2.8-3.5-5.5-5.2-8.3c-2.1-3.1-0.7-6.2-1-9.3
				c-0.3-4.1,0-7.9-5.9-8.6c-5.5-0.7-7.6,3.8-10,6.9c-3.8,5.2-2.4,10.7,0.3,15.9c0,1.4,0,3.1-0.3,4.5c-2.1,3.5-5.9,6.2-3.8,11
				c1,2.4,0.7,4.5-0.3,6.9c-0.3,1.7-1,3.1-1.4,4.8c-2.4,5.2-4.8,10.4-7.6,15.5c-2.8,3.5-5.2,6.9-7.9,10c-2.8,2.1-5.9,2.8-9.3,2.1
				c-8.3,0.7-4.8-13.8-14.5-11.4c-3.5,1.4-5.5,4.1-7.2,7.2c-1.4,2.1-2.4,3.8-4.1,5.9c-3.5,2.4-7.6,3.1-11.4,4.5
				c-1.7,0.3-3.5,0-4.8-0.7c-1.4-1-2.8-2.1-3.8-3.5c0-6.9,0-13.8,0-20.7c1-1,2.1-2.1,2.8-3.1c0.3-1.4,0.7-2.8,0.7-4.1
				C3.5,254.3,3.5,250.9,0,248.1z"/>
			<path fill="#008189" d="M358.9,123.9c27.6,0,55.2,0,82.8,0c4.5,3.5,10,0.3,14.5,2.4c7.2,4.5,5.9,11.7,2.8,16.9
				c-11,18.6-10,40.7-18.6,60c-0.3,1.4-0.3,3.1-0.7,4.8c-0.7,3.5-3.1,7.2-0.7,11c1.4,9.3-9,11.7-12.1,23.1c0,0,2.4,3.5,2.4,7.6
				c0,1.7,0,3.5,0,4.8c-2.8,6.6-8.6,10-13.8,14.1c-5.5,3.1-7.2,11-14.8,11.7c-6.2,3.5-9,13.1-18.6,11c-7.2-2.1-12.1-8.6-17.9-12.8
				c-2.4-3.8-2.4-7.2,0-10.7c2.4-5.2,3.5-10.7,1-16.6c-1-5.5-7.2-9-5.9-15.2c0-1.7,0.3-3.1,0.3-4.8c2.1-6.2,5.5-12.8,0.3-19.3
				c-1.4-4.1-3.5-7.9-6.9-10.7c-1-1-2.4-1.7-3.5-2.8c-1.4-0.7-2.4-1.7-3.5-2.4c-6.2-6.2-2.1-12.4,0.3-18.3c0.7-2.1,0.7-4.1,0.7-6.6
				c0.3-4.8-4.1-6.2-5.9-9.7c-1.4-2.4-0.7-5.2-1-7.9c0.3-9-8.6-17.6-1-26.9C346.1,123.5,353,128,358.9,123.9z"/>
			<path fill="#142D19" d="M372.7,275.7c3.1,5.5,6.2,11,13.8,10.4c8.3-1,2.1-12.8,10.4-13.8c1.7,0,3.5,0,6.2,0
				c0.3-6.2,0.7-12.8,1-20c1.7-0.3,3.5-0.3,6.6-1c0,4.1,0,7.2,0,10.7c2.4,2.8,5.9,1,9,1.7c2.8,1,3.5,4.1,5.2,4.8
				c4.1,1.7,6.9-1.7,10.4-1.4c6.2-0.3,12.4-1.4,17.9,4.1c1.7,5.5,1,11.7,2.1,17.9c-0.3,1.7-1.4,3.1-2.4,4.5
				c-2.4,2.4-5.2,4.5-5.5,7.9c-0.7,7.2-4.8,10.7-12.1,10c-5.5-0.3-11-2.8-16.9,0c-3.8,0.7-7.2,1.4-8.6,5.9c-0.3,1.4-0.7,2.8-1,4.1
				c-0.7,8.3,0.3,17.3-3.5,25.2c-1.7,2.8-3.1,5.9-5.2,8.3c-1.4,1-2.8,1.7-4.1,1.7c-10.4-1.7-10.4,9.7-16.6,13.1
				c-4.5,1.7-9.3,2.4-14.1,1c-5.2-1-9.7,0.7-13.1,4.8c-10.4,0-20.7,0-31.1,0c-5.2-4.1-3.8-8.3,0-12.4c0.7-0.7,1.4-1.7,1.4-2.4
				l-0.3-1.4c-0.7-1-1.4-2.1-2.1-3.1c-3.8-6.9-1.7-13.1,2.4-19c7.2-3.5,2.8-10.7,4.8-15.5c1.7-2.4,4.8-3.1,5.9-6.2
				c0-0.7,0.3-1.4,0.3-2.1c0.3-3.1,0.7-6.2,3.1-8.6c3.5-3.1,6.9-6.2,11.7-7.2c1.7,1,4.1-0.3,5.9,0.7c0-0.3,1.4,0,1,0s1,0,0.7,0
				c-0.3,0,0,0-0.3,0s-0.7,0-1,0c-1.4,0-2.1,0-3.5-0.3c-3.1-1-5.5-2.8-6.2-6.2c-1.7-8.3-5.5-15.9-8.3-23.5c1.4-9.3,1-19,8.6-26.2
				c10.4-3.8,18.3,2.1,26.9,6.2c0.3,1,0.3,2.1,1,2.8c5.2,5.9,5.2,5.9,4.8,14.5c-2.1,0-4.1,0-6.2,0
				C369.9,268.8,370.3,272.3,372.7,275.7z"/>
			<path fill="#102013" d="M400.3,306.8c5.9,0,11.4,0,17.3,0c4.1,1,7.9,3.8,12.4,4.8c3.8,0.7,7.6,0.7,12.4-1
				c3.1-10,10.7-18.3,20.4-27.3c3.5-1.7,9.3,1.4,14.5-0.3c4.8-0.3,7.6,2.4,9.3,6.6c0.7,1.4,1.4,2.8,2.1,4.1c0.7,1.4,1.7,2.4,2.8,3.5
				c3.8,0.7,6.2,3.5,9,6.2c0,13.8,0,27.6,0,41.4c-1.7,1.7-3.1,3.5-5.2,4.8c-7.9,2.1-5.5,9.3-7.2,14.5c-1.7,6.2-8.3,7.6-11.7,11.7
				c-11.4,0-23.1,0-34.5,0c-1.7-2.1-3.8-4.1-3.8-6.9c0.3-2.8,2.1-4.5,4.1-6.2c2.1-1.4,4.1-2.8,6.2-3.8c0,0,1-0.3,0.7-0.3
				s0.3-0.3,0.3-0.3s0.3-0.3,0-0.7l-0.3-0.7c-0.7-0.7-1.4-1-2.1-1.7c-1.7-1.4-2.8-2.8-2.8-4.8c-0.3-0.7,0-1.4,0-2.1
				c-0.3,0.3,0-0.3-0.3,0c-1,1-1.7,1.4-3.1,1.7c-2.8,0-5.5-0.3-8.3-0.3c-14.5-1-7.2,11-10.4,17.3c-1.7,3.8-5.5,5.5-7.9,8.6
				c-9.3,0-18.3,0-27.6,0c-1.4-1.4-2.4-2.8-3.5-4.5c-1.4-4.8,0.7-8.6,4.5-11.7c2.1-1,4.5-1,6.9-1.4c0.7,0,1.4-0.3,2.1-0.3
				c1.7-1,2.8-3.1,3.5-5.2c0.3-2.8,0.3-5.5,0.3-7.9c0-5.2,0-10,0-16.2c-3.5-2.8-7.2-6.2-10.4-9c0-3.8,0-6.6,0-9.3
				C392.7,307.1,397.5,310.2,400.3,306.8z"/>
			<path fill="#102013" d="M100.1,375.8c-4.5,0-9.3,0-13.8,0c-2.4-2.8-3.1-5.9-2.4-9c1.7-5.9-2.4-9.3-6.2-12.8
				c-4.1-5.2-12.8-7.9-9.7-16.9c1.4-3.1,4.5-5.2,6.2-8.3c4.5-4.8,9.3-9.3,11.4-15.9c4.5-7.2,1.4-19.7,14.1-21.4c2.8,0,5.5,0,8.3,1.7
				c1.4,1,2.8,2.4,3.5,3.8c2.8,4.8,3.8,10.4,5.5,15.5c0.7,1.4,1.4,2.8,2.1,4.1c1.7,3.1,2.1,6.6,1.7,10c0-0.3,0,0.7,0,0.3s0,0,0-0.3
				s0.3-0.7,0.3-1c5.2-6.9,10-13.1,19-14.1c1-0.7,2.1-1.4,3.1-2.1c0.7-1,1.7-2.1,2.8-3.1c2.4-1.4,4.1-3.1,5.5-5.5
				c0.7-2.1,1-4.1,1.7-6.6c1.4-3.1,2.4-6.6,5.5-8.3c3.1-1,6.2-3.1,9.3-4.1c2.4-0.3,4.8-0.3,7.6,0c6.2,2.4,11.4,6.9,10.7,13.5
				c-1.4,16.9-1.7,33.5,5.9,46.6c-3.1,8.6-10,7.6-12.8,10.7c-4.1,5.9,0.7,10.4,1,15.2c0.3,3.8-2.1,6.2-4.5,9c-12.8,0-25.2,0-38,0
				c-2.4-2.4-4.8-5.2-4.8-9c0-1.7,0-3.1,0-4.5c0-0.7,0-1.7-0.3-2.8c0,0.3-0.7-0.7-1-0.7c-0.3,0-1-1-1.4-1c-3.8-0.3-5.5,3.1-8.6,4.5
				c-2.1,0.7-4.5,0.7-6.9,1C105.9,362.7,105.2,372.3,100.1,375.8z"/>
			<path fill="#102013" d="M234.6,248.1c0,1,0,2.4,0,3.5c2.4,2.8,4.1,5.9,2.1,10c-0.7,1.7-1.4,3.8-2.1,5.5c-0.7,1.7-1,3.5-1.4,5.5
				c0,1-0.3,2.4-0.3,3.5c0,0.7,0,1,0,1.7s0,1.4,0,1.7c0,1.4,0,2.4,0,3.8c-0.3,1.4-0.7,2.8-1,3.8c-1,1.4-2.1,2.8-3.8,3.8
				c2.4,0.7,5.2,0.7,6.9,2.4c6.6,3.8,7.9,10.4,9.7,16.9c1.7,8.3,4.1,16.2,11.4,21.7c4.1,5.5,3.5,11.7,2.4,17.9
				c-1.7,3.8-2.4,8.3-6.2,10.4c0.3,0-0.3,0,0,0c5.5-1.4,7.9,1.4,8.6,6.6c0,3.8-2.4,6.2-4.8,8.6c-18.3,0-36.9,0-55.2,0
				c-2.4-2.4-4.8-5.2-4.8-9c0.3-2.4,1.4-4.5,3.1-6.6c1-2.1,2.1-4.5,1-6.9c-5.5-8.3-11-16.2-14.5-24.8c2.1-9,5.9-15.2,15.2-16.2
				c-0.3,0,0.7,0,0.3-0.3c-2.4,0-4.5,0-6.6,0c-2.8,0-5.2-1.4-6.6-3.5c-2.4-5.5,1-10.4,1.4-15.5c4.5-6.2,4.1-13.1,2.8-20
				c-0.3-4.5-2.1-8.6,1.7-12.4c1.7-2.1,4.5-3.1,6.9-3.8c4.8-2.1,8.3-6.2,12.1-9.7c4.5-3.8,9.7-4.8,15.2-2.8
				C229.8,245.7,232.2,246.7,234.6,248.1z"/>
			<path fill="#102013" d="M276.1,248.1c3.5,0,6.9,0,10.4,0c5.2,4.8,7.9,11,11.4,16.9c1,3.8,1.4,8.3,2.8,12.1
				c5.5,8.6-7.6,14.8-3.5,23.5c2.1,5.9,3.5,12.1,8.6,16.6c2.8,3.5,5.9,6.6,7.9,10.4c3.1,6.2,2.4,12.8,0.3,19
				c-1.4,2.4-3.8,3.1-6.6,3.8c-4.5,1-7.6,3.8-8.6,8.6c-0.3,7.2-3.8,12.8-9.3,17.3c-9.3,0-18.3,0-27.6,0c-2.8-2.4-3.5-5.5-3.5-9
				c0-2.8,0.7-5.5,3.5-6.6l1.4-0.7l1-1c0,0,0.7-1.4,0.3-1.4s0-1.4,0-1.4c-0.7-1-1.4-1.7-2.1-2.4c-2.1-2.1-3.5-4.1-4.1-6.6
				c-1.4-3.8,1-7.9,0-11.7c0.7-5.5,6.9-10,3.1-16.2c-1-2.1-2.4-3.8-3.8-5.5c-1-1-2.4-2.4-3.5-3.5c-2.4-1.4-3.8-3.5-4.5-6.2
				c2.8-13.1,7.6-25.9,16.6-35.9C271.9,261.9,270.5,253.6,276.1,248.1z"/>
			<path fill="#008189" d="M472.7,123.9c9.3,0,18.3,0,27.6,0c0,40.4,0,80.4,0,120.8c-1.4,1.4-3.1,2.4-4.8,3.1
				c-6.2-0.7-10.4-3.5-11.4-10c0-1.7,0-3.5,0.3-4.8c0.3-4.8-2.1-9-4.5-13.1c-3.5-5.2-10-8.6-8.6-16.2c2.4-6.9,0-13.5-1.4-20
				c0.3-3.5,2.4-6.9,1.7-10.4c0.3-5.2-3.5-7.9-5.9-11.7c-1-2.4-0.3-5.2-0.7-7.6c-0.7-9-7.6-17.3-1.7-26.2
				C465.8,124.9,470,126.6,472.7,123.9z"/>
			<path fill="#102013" d="M69,375.8c-13.8,0-27.6,0-41.4,0c-2.4-2.4-4.8-5.2-5.2-8.6c-0.7-4.1-1.4-8.6-2.4-12.8
				c-0.7-2.4-1-5.2-1.4-7.6c0.3-3.8,0.7-7.9,1.4-11.4c-14.8-17.3-14.8-21-0.3-33.1c1.7-1.7,3.5-3.8,5.9-4.5c1.4-1,2.8-1.4,4.1-1.7
				c7.9-4.8,13.1-16.6,27.3-8.3c5.5,16.9-2.8,37.6,7.6,55.6c0.3,6.9-12.8,4.1-9,12.4c1.7,0.7,3.8,0.7,5.9,1.4
				c2.4,0.7,3.8,2.8,5.9,3.8c1.4,1,2.1,2.1,3.1,3.8C71.1,368.5,72.1,372.3,69,375.8z"/>
			<path fill="#142D19" d="M24.2,310.2c-0.7,7.2-8.3,0.7-10.7,6.6c1.4,1,3.1,2.4,4.8,3.8c3.5,2.8,6.6,5.9,9.7,8.6
				c-1.4,6.6-2.4,12.8-3.8,19c0,1.7-0.3,3.1-0.7,4.8c-0.7,1.4-2.1,2.4-3.5,3.5c-13.5,7.2-13.5-7.9-20-11.7c0-7.9,0-16.2,0-24.2
				c2.8-2.4,2.8-4.5,0-6.9c0-3.5,0-6.9,0-10.4c2.4-1.7,3.5-4.5,3.8-7.6c0.3-1.4,1.4-2.4,2.4-3.5c2.8-1.4,5.2-2.8,7.2-4.5
				c1.4-1.4,2.8-3.5,4.1-4.8c0-2.4,0-4.5,0-6.9c-0.3-7.2,9.7-4.1,10.4-10.4c0-3.1,0-6.6,0-10.4c9.7,0.3,11.7,8.6,17.3,12.1
				c0,4.5,0,8.3,0,12.4c-0.3,10.7-9.3,16.9-12.8,25.9C29.7,307.5,26.6,308.1,24.2,310.2z"/>
			<path fill="#142D19" d="M483.1,296.4c-1-1.4-2.1-3.1-3.5-4.1c-1-1-2.4-1.7-3.5-2.8c-6.2-4.1-12.1-9-15.2-16.2
				c-1-8.6-3.5-16.6-9-23.8c-1-4.1-1-7.6,2.4-10.7c3.8-3.5,7.9-5.5,13.1-6.2c11.4,0.3,16.9,12.1,27.6,13.5c3.1,1,3.5,3.8,3.1,6.2
				c-1.4,5.5-4.1,10.7-0.3,16.2c1.4,4.5-1.4,9.3,2.1,13.5c0,3.5,0,6.9,0,10.4C495.5,298.5,489.6,299.9,483.1,296.4z"/>
			<path fill="#1D5229" d="M465.8,127.3c0,2.8,0,5.5,0,9.3c2.1,1.7,4.5,4.1,6.9,6.2c0,4.5,0,8.3,0,12.1
				c-16.2,9.3-16.9,23.8-11.7,41.8c-11-2.8-15.5,11-26.2,6.6c0-5.2,0-10.4,0-15.5c2.4-1,4.5-2.1,8.3-3.8c-3.1-3.5-5.9-6.2-10-10.4
				c5.2-0.7,8.3-1.4,13.1-2.1c-1.4-4.8-2.8-9.3-4.1-14.8c1.4-0.7,3.5-1.4,6.2-2.4c0-3.1,0-6.9,0-10.7c3.1-2.4,5.5-4.5,7.6-6.2
				c0-3.8,0-6.9,0-9.7c-0.7-0.7-1.4-1-2.4-1.7c0.7-0.7,1.4-1,2.4-1.7c3.5,0,6.9,0,10.4,0c0.7,0.7,1.4,1,2.4,1.7
				C467.2,126.3,466.5,127,465.8,127.3z"/>
			<path fill="#0F6137" d="M341.6,127.3c0.7,2.4,1,5.5,2.4,7.6c4.1,6.2,5.2,13.1,4.5,20c-3.8,4.8-10.4,6.2-12.8,13.1
				c-1.7,4.8-7.2,6.6-11.4,0.7c-5.9-1.7-7.2-6.2-6.9-12.4c2.1-1.7,4.8-3.8,6.9-5.5c0-4.5,0-7.9,0-11.7c1.7-0.7,3.8-1.4,6.9-2.4
				c0-4.1,0-8.3,0-12.8c3.5,0,6.9,0,10.4,0C344,125.3,344,126.3,341.6,127.3z"/>
			<path fill="#142D19" d="M293.3,355.1c-5.9-1.7-7.2-5.9-6.9-12.4c2.4-2.4,5.5-5.5,8.6-8.6c5.9,1.7,9.3,4.8,8.3,10.7
				c5.9,5.5,16.9,4.8,17.9,16.2c-0.7,6.6-6.9,10-11,14.8c-2.4,0-4.5,0-6.9,0C294.7,371.6,299.2,360.9,293.3,355.1z"/>
			<path fill="#1D5229" d="M0,344.7c1.4-1.7,3.1-3.5,5.2-6.2c2.8,0,6.9,0,12.1,0c-3.1,3.8-5.5,6.9-9.3,11.7c5.9,0.7,9.3,1,12.8,1.4
				c4.8,2.8,3.1,7.6,3.5,11.4c0,1.7-0.7,3.5-1.4,4.8c-3.8,3.1-9.7,3.1-12.4,7.9c-3.5,0-6.9,0-10.4,0C0,365.4,0,355.1,0,344.7z"/>
			<path fill="#1D5229" d="M310.6,375.8c0-2.8,0-5.5,0-8.6c2.1-1,4.5-2.1,7.2-3.5c-2.1-7.6-7.9-11-14.1-13.8c0-1.7,0-3.5,0-5.2
				c2.4,0,4.5,0,6.9,0c4.1-4.8,4.8-14.1,14.8-11.7c4.5,1,7.6,2.8,5.9,8.3c-1.7,0-3.5,0-6.2,0c-0.3,4.1-0.3,8.3-0.7,13.8
				c2.8,0,4.8,0,6.9,0c3.8,3.5,4.1,6.9,0,10.4c-7.6,0.7-9.7,2.8-10.4,10.4C317.5,375.8,314,375.8,310.6,375.8z"/>
			<path fill="#142D19" d="M483.1,362c-3.5-4.5-7.2-9-10.4-12.4c5.2-4.8,10-9.3,16.2-15.2c5.2-0.3-3.1,10.7,4.5,10.4
				c3.5,2.8,4.1,7.2,6.9,10.4c0,4.5,0,9.3,0,13.8c-2.8,2.8-6.2,3.5-9.7,3.1C484.5,371.3,485.5,365.4,483.1,362z"/>
			<path fill="#1D5229" d="M293.3,355.1c1.7,0,3.5,0,6.2,0c1.4,6.6,2.8,13.8,4.1,20.7c-4.5,0-9.3,0-13.8,0
				C290.9,368.9,292.3,362,293.3,355.1z"/>
			<path fill="#142D19" d="M131.1,375.8c-7.9,0-16.2,0-24.2,0c-4.8-6.9-2.4-11,4.8-13.5c3.1-0.3,5.9-0.3,9-0.7
				c2.8-0.7,5.9-1.4,8.6,0.7C133.2,366.5,133.9,370.9,131.1,375.8z"/>
			<path fill="#1C3E1D" d="M113.9,365.4c-5.5,1.4-7.6,4.8-6.9,10.4c-2.4,0-4.5,0-6.9,0c0-6.6,0-13.1,0-21c5.2,1.4,9.7,2.8,13.8,3.8
				C115.9,360.9,115.9,363.4,113.9,365.4z"/>
			<path fill="#61622A" d="M483.1,362c2.1,0,4.1,0,6.9,0c0,2.8,0,4.8,0,6.9c2.1,2.4,2.1,4.5,0,6.9c-4.5,0-9.3,0-13.8,0
				c0-2.8,0-5.5,0-8.3C478.6,365.8,480.7,364,483.1,362z"/>
			<path fill="#006D61" d="M483.1,296.4c5.2-4.5,11.4-3.5,17.3-3.5c0,3.5,0,6.9,0,10.4c-4.5,0-9.3,0-13.8,0c-1-1.4-2.1-2.4-3.5-3.5
				C483.1,298.8,483.1,297.8,483.1,296.4z"/>
			<path fill="#1C3E1D" d="M441.7,368.9c0,2.4,0,4.5,0,6.9c-4.5,0-9.3,0-13.8,0c-3.1-2.8-5.5-5.9-4.1-10.4c0.7-2.1,2.1-3.5,4.1-4.1
				c5.2-1.4,10-1.7,14.1,2.1C443.1,365.4,443.1,367.1,441.7,368.9z"/>
			<path fill="#1D5229" d="M352,375.8c0-3.1,0-6.2,0-10.4c5.2,0,9.7,0,13.8,0c2.4,3.5,3.5,6.9,0,10.4
				C361.3,375.8,356.5,375.8,352,375.8z"/>
			<path fill="#61622A" d="M427.9,365.4c0,3.5,0,6.9,0,10.4c-4.5,0-9.3,0-13.8,0c1.4-3.5-3.1-8.6,3.5-10.4
				C421,362.7,424.4,361.6,427.9,365.4z"/>
			<path fill="#1C3E1D" d="M365.8,375.8c0-3.5,0-6.9,0-10.4c1.7,1,3.5,2.1,5.2,3.1c1.7-1,3.5-2.1,5.2-3.1c3.5,2.4,7.9,3.1,10.4,6.9
				c0,1,0,2.4,0,3.5C379.6,375.8,372.7,375.8,365.8,375.8z"/>
			<path fill="#005253" d="M496.9,268.8c-2.4-1.7-4.8-3.8-8.6-6.2c3.5-3.1,6.2-5.2,8.6-7.6c1-2.4,2.4-2.4,3.5,0c0,4.5,0,9.3,0,13.8
				C499.3,271.2,497.9,271.2,496.9,268.8z"/>
			<path fill="#142D19" d="M89.7,368.9c-1,2.4-2.4,4.5-3.5,6.9c-4.5,0-9.3,0-13.8,0c-1.7-4.5-2.4-9.3,1-13.5c1.7-1,3.5-1.7,5.2-1.7
				C84.9,360.2,86.3,365.8,89.7,368.9z"/>
			<path fill="#102013" d="M10.4,375.8c0-3.1,0-6.2,0-10.4c4.1,0,7.2,0,10.4,0c4.1,3.5,2.8,6.9,0,10.4
				C17.3,375.8,13.8,375.8,10.4,375.8z"/>
			<path fill="#0F6137" d="M3.5,265.4c-1,0-2.4,0-3.5,0c0-5.9,0-11.4,0-17.3c2.1,0,4.1,0,6.9,0c0,5.2,0,9.7,0,13.8
				C5.9,263.3,4.5,264.3,3.5,265.4z"/>
			<path fill="#61622A" d="M200.1,365.4c0,3.5,0,6.9,0,10.4c-2.4,0-4.5,0-6.9,0c-4.5-2.8-9-5.5-5.9-12.1c1.4-1.7,3.1-2.4,5.5-2.8
				C196.3,360.9,198.8,362.3,200.1,365.4z"/>
			<path fill="#61622A" d="M131.1,375.8c-1-3.5-2.4-6.9-3.5-10.4c3.5-3.8,6.9-3.8,10.4,0c0,3.5,0,6.9,0,10.4
				C135.6,375.8,133.5,375.8,131.1,375.8z"/>
			<path fill="#102013" d="M189.8,365.4c1,3.5,2.4,6.9,3.5,10.4c-3.5,0-6.9,0-10.4,0c-3.1-3.5-4.1-6.9-1-11
				C184.6,363,187.4,363,189.8,365.4z"/>
			<path fill="#61622A" d="M75.9,365.4c-1,3.5-2.4,6.9-3.5,10.4c-1,0-2.4,0-3.5,0c-1-3.5-2.4-6.9-3.5-10.4
				C69,361.6,72.5,361.6,75.9,365.4z"/>
			<path fill="#61622A" d="M262.2,365.4c0,3.5,0,6.9,0,10.4c-2.4,0-4.5,0-6.9,0c0-3.5,0-6.9,0-10.4
				C257.8,363.4,259.8,363.4,262.2,365.4z"/>
			<path fill="#1D5229" d="M182.9,365.4c0,3.5,0,6.9,0,10.4c-2.4,0-4.5,0-6.9,0c0-3.5,0-6.9,0-10.4c0.3-0.7,1-1,1.4-1.7
				c1.4-0.7,2.8-0.7,4.1,0C181.8,364.4,182.5,365.1,182.9,365.4z"/>
			<path fill="#1D5229" d="M20.7,375.8c0-3.5,0-6.9,0-10.4c2.4-2.1,4.5-2.1,6.9,0c0,3.5,0,6.9,0,10.4
				C25.2,375.8,23.1,375.8,20.7,375.8z"/>
			<path fill="#1C3E1D" d="M490,375.8c0-2.4,0-4.5,0-6.9c3.5,0,6.9,0,10.4,0c0,2.4,0,4.5,0,6.9C496.9,375.8,493.4,375.8,490,375.8z"
				/>
			<path fill="#1D5229" d="M500.3,355.1c-5.5-1.4-7.6-4.8-6.9-10.4c2.4,0,4.5,0,6.9,0C500.3,348.2,500.3,351.6,500.3,355.1z"/>
			<path fill="#1D5229" d="M6.9,296.4c0,2.1,0,4.1,0,6.9c-2.8,0-4.8,0-6.9,0c0-3.5,0-6.9,0-10.4C4.1,290.9,5.9,292.6,6.9,296.4z"/>
			<path fill="#005253" d="M341.6,127.3c0-1,0-2.4,0-3.5c5.9,0,11.4,0,17.3,0c-1.4,1-2.8,3.1-4.1,3.5
				C350.2,127.7,346.1,127.3,341.6,127.3z"/>
			<path fill="#005253" d="M455.5,123.9c0,1,0,2.4,0,3.5c-3.1,0-6.6,0.3-9.7,0c-1.4-0.3-2.8-2.1-4.1-3.5
				C446.2,123.9,451,123.9,455.5,123.9z"/>
			<path fill="#1C3E1D" d="M0,313.7c1.7,0,3.5,0,5.2,0c2.1,6.2,2.1,6.2-5.2,6.9C0,318.5,0,316.1,0,313.7z"/>
			<path fill="#142D19" d="M6.9,296.4c-2.4-1-4.5-2.4-6.9-3.5c0-2.4,0-4.5,0-6.9c1,0,2.4,0,3.5,0C7.9,288.5,11.4,291.2,6.9,296.4z"
				/>
			<path fill="#005253" d="M465.8,127.3c0-1,0-2.4,0-3.5c2.4,0,4.5,0,6.9,0C472.4,129.1,468.6,127,465.8,127.3z"/>
			<path fill="#102013" d="M324.4,168.7c1.7,0,3.5,0,6.2,0c0.3-4.1,1-8.3,1.4-13.8c5.5,0,11,0,16.6,0c0,2.4,0,4.5,0,6.9
				c1.4,5.9-0.7,11.4-2.8,16.2c-3.8,9.3-0.7,16.2,6.9,21.4c0.3,1.7,0.7,3.5,0.7,5.2c0,2.8,0,5.2-1,7.6c-0.7,1.4-2.1,2.4-3.5,3.1
				c-1.7,1-3.5,2.1-4.8,3.5c-0.3,0.3-0.3,1-0.7,1.4c1,8.3,9.7,15.2,5.2,24.5c-5.9,7.2-2.8,15.9-3.5,24.2
				c-4.8,12.8-9.3,25.5-25.9,26.6c-2.8-0.3-5.5-0.7-7.9-1c-13.5-2.4-5.9-15.2-10.4-21.7c-0.7-2.4,0.3-4.8,1-7.2
				c-0.3-7.9,9.7-6.9,11.7-13.1c-1.4-2.8-4.5-3.1-6.2-5.2c-12.1-9.7,1.4-16.2,3.1-24.5c0-1.4-0.7-2.4-1.7-3.5c-1.4-0.7-2.4-1-3.8-1
				c-7.2-1.4-9.3-4.1-3.5-10c2.1-0.7,4.5-0.3,5.9-1.7c1.7-2.1,1-5.2,2.1-7.6c8.3-7.2,6.9-18.6,11.7-27.3
				C321.9,171.2,323.3,170.1,324.4,168.7z"/>
			<path fill="#1D5229" d="M75.9,365.4c-3.5,0-6.9,0-10.4,0c-1.7-2.1-3.5-4.1-6.6-3.5c-1.7,0.7-3.5,2.1-5.2,3.1
				c-0.7,0.3-1.4,0.3-2.1,0.7c-4.1,1-8.3,2.4-12.4,3.5c-4.1-6.9,3.8-8.3,5.5-12.1c0-3.1,0-6.6,0-10c-2.1-2.4-4.5-4.8-7.6-7.9
				c5.2,0,9.3,0,12.8,0c2.1,2.4,3.5,4.8,7.2,9.3c0.7-5.9,2.1-9,1-10.7c-3.8-7.2-8.3-13.5-12.1-20.7c-1.4-2.8-1.4-6.2-1.7-9
				c2.8-0.7,4.1-1,6.6-1.7c0-5.2,0-10.7,0-16.2c-3.1,0-5.9,0-8.6,0c-1.4,5.5-3.1,11.4-4.5,16.9c-1,1-2.1,1.7-3.8,2.1
				c-2.8-1-4.8-3.1-6.6-5.5c3.5-4.1,6.9-8.3,10.4-12.8c0-1.7,0-3.8,0-5.5c2.4-2.1,4.8-3.8,6.9-5.5c2.8-0.7,6.6,1.7,6.9-3.5
				c6.2-3.5,13.1-4.8,20.4-5.2c1.7,0,3.5,0,4.8,0c16.6,4.1,8.6,16.6,9.3,26.2c0,0.7,0,1.4,0,2.1s0,1.4,0.3,2.1
				c0,0.7,0.3,1.4,0.3,2.1c0.7,4.8,2.1,9.3,2.8,14.1c0,5.5,0,11,0,17.3c-3.8,0-7.2,0-10.4,0c-3.1-0.7-5.9-0.3-6.9,3.5
				c0,1.7,0,3.5,0,3.8c3.8,3.8,7.2,6.9,10.4,10c3.1,5.5,2.1,10.4-3.5,13.8C78.3,365.4,76.9,365.4,75.9,365.4z"/>
			<path fill="#1D5229" d="M276.1,248.1c0,7.9,0,15.5,0,23.5c-3.5,0.3-6.2,0.7-9,1c-4.5,6.6,0.7,12.4,2.4,18.3
				c-5.5,2.8-11.7,4.5-10.7,12.4c-2.1,2.4-0.3,4.1,1,5.9c3.1,1,6.6,1.7,7.2,5.5c0.7,6.6-5.2,10.4-6.2,15.9c-3.8,3.8-9,1.4-12.8,3.8
				c-6.2,0.7-9.3-2.4-10.4-8.3c-1-7.6-2.1-15.2-3.5-22.8c-0.3-2.4-2.1-4.8-3.5-7.2c-1-1-2.1-2.1-2.4-3.1c-0.7-3.5,3.8-5.9,2.4-9.7
				c0-2.8-2.8-4.5-3.1-7.2c0-1.4,0.7-2.4,1.4-3.8c1-2.4,1.7-4.8,0.3-7.2c-1.4-2.1-2.4-4.5-1.7-7.2c1-1,1.7-2.4,2.8-3.5
				c1.4-1.4,2.8-2.4,4.1-3.5c6.6,1.4,13.1,3.1,20.7,4.8c0,1.4,0,3.5,0,5.5c2.1,1.4,2.4,6.9,6.9,3.5c1-1,2.4-2.4,3.5-3.5
				c2.8-1.7,1-5.2,3.5-6.9c0-2.1,0-4.1,0-6.9C271.9,248.1,274,248.1,276.1,248.1z"/>
			<path fill="#142D19" d="M151.8,310.2c0,2.4,0,4.5,0,6.9c-3.5,2.8-6.2,0.7-9-1.7c-5.9-2.1-10.7-5.2-13.5-11.4
				c-4.5-7.2,0.7-13.1,2.8-19.3c0.7-2.4,1.4-4.8,2.1-6.9c4.1-9,11.4-15.9,16.6-24.5c1.7,0,3.1,0.3,4.1,1.7
				c4.8,3.8,9.3,7.9,13.8,11.4c0,3.5,0,6.6,0,9.3c1,1,1.7,2.4,2.1,3.8c-1.4,4.5-9,6.9-5.5,13.5c-0.7,2.8,1.7,6.6-3.5,6.9
				c-1.7,2.1-3.8,4.1-6.9,3.1c-1-0.7-1.7-1.4-2.4-2.4c0.3,0.3,0.7,0.7,1,1c1,1,1.4,2.1,1.4,3.5C154.9,307.8,153.2,308.8,151.8,310.2
				z"/>
			<path fill="#0F6137" d="M196.7,230.8c-1.7-1.4-3.8-3.1-6.6-5.5c-3.1-5.5,2.8-8.6,5.9-13.1c3.5-4.8,6.2-10.4,7.2-15.9
				c1-5.2-0.7-11.4,6.6-14.1c9,1.4,7.6,8.3,7.6,15.5c3.5,3.5,7.2,7.2,10.7,10.7c-1.4,4.8-2.4,8.3-3.8,11.7c-1,1.4-2.1,2.4-3.8,3.5
				c-4.1,1-6.9,2.1-9,7.6c-2.4,6.2-8.6,7.6-14.1,2.1C197,232.6,197,231.9,196.7,230.8z"/>
			<path fill="#142D19" d="M100.1,213.6c0,3.5,0,6.9,0,10.4c0.7,3.8,5.2,4.1,6.9,6.9c0,3.5,0,6.9,0,10.4c-7.6,6.2-16.9,10-23.1,18.3
				c-2.4,0.7-4.8,0.7-7.6,0.7c-2.8,0-5.2,0-7.6-1.7c-2.1-2.1-1.7-4.8-3.5-6.9c0-2.4,0-4.5,0-6.9c-0.3-5.9,2.4-10.4,6.9-13.8
				c1.7-2.4,1-5.5,1.4-8.3C77.3,206,85.9,203.2,100.1,213.6z"/>
			<path fill="#0F6137" d="M169.1,279.2c0-1,0-2.4,0-3.5c3.8,0.7,7.2,0,8.6-3.8c2.4-5.2,4.5-10.7,6.9-16.6c0.7-0.3,2.4-0.7,5.2-1.4
				c-0.3-2.8,0-6.6-1.7-9c-3.1-4.1-7.2-7.2-4.5-14.5c3.8,0,8.3,0,12.8,0c4.8,4.5,9,10.4,14.1,14.5c2.1,1.4,2.8,3.8,3.1,6.2
				c0.3,5.9,0.7,11.7-6.9,13.8c-2.4-2.8-4.5-2.8-6.9,0c-6.6,1.7-2.1,6.9-3.5,10.4c0,0.7-0.3,1.4-0.3,2.4c-1.7,2.8-4.5,4.1-7.2,5.9
				c-3.8,3.8-9,0.7-13.5,2.1c-2.4,0-4.5,0-6.9,0C166.3,284,167.4,281.6,169.1,279.2z"/>
			<path fill="#0F6137" d="M100.1,213.6c-5.2,0-10.4,0-17.3,0c-1.7,4.8-3.5,10.4-5.5,17.3c-0.7,0-2.8,0-4.8,0
				c-1.7-1.4-3.8-3.1-6.6-5.5c0-0.3-1-2.4-0.3-3.5c4.1-8.3,8.3-16.2,13.5-26.2c0-1.4,0.3-5.2,0.3-9.3c4.5,0,8.3,0,13.1,0
				c0,4.1,0,8.6,0,12.4c2.8,0.7,4.1,1,6.9,1.7C100.1,205,100.1,209.5,100.1,213.6z"/>
			<path fill="#0F6137" d="M314,217c0,3.8,0,7.9,0,11.7c-2.4,2.8-5.2,5.5-7.6,8.3c1.7,3.1,2.8,5.2,4.1,7.6
				c6.6,13.1-2.4,13.1-11,13.5c-4.8-1.7-9.3-3.8-9.7-10c0-3.8,0-7.9,0-9.7c6.6-6.6,11.7-12.4,17.3-17.9c0-2.1,2.4-2.1,3.5-3.5
				C311.6,216,313,216,314,217z"/>
			<path fill="#164F2D" d="M213.9,251.6c-2.4,0-4.5,0-6.9,0c-4.5-10.7,0-21,13.8-31.1c1,0,2.4,0,3.5,0c1.7,2.1,3.5,4.1,4.5,6.6
				c1,2.4,1.7,4.8,2.4,7.2c-2.8,2.4-2.8,4.5,0,6.9c0,1,0,2.4,0,3.5c0,2.1-2.4,2.1-3.5,3.5C222.9,247.8,218.1,248.4,213.9,251.6z"/>
			<path fill="#1D5229" d="M320.9,172.2c0,2.8,0,5.5,0,10c2.8,2.4,6.6,5.5,11.7,10c-5.5,0-9.3,0-11.7,0c-4.1,3.1-7.2,5.2-10.4,7.6
				c-1,1.4-2.4,1.4-3.5,0c-2.8-7.9,4.1-12.1,7.9-17.3c-3.1-3.5-5.5-6.2-9.3-10.4C311.9,172.2,316.4,172.2,320.9,172.2z"/>
			<path fill="#006D61" d="M141.5,279.2c0,2.4,0,4.5,0,6.9c-3.8,3.1-7.2,6.6-12.8,5.9c-7.6-2.8-5.9-9.3-6.9-14.8
				c2.4-6.6,3.1-14.1,9.3-19c2.8,1.4,5.5,2.8,7.6,3.8c5.5-2.4-1-10,6.2-10.7c0.7,0.3,1.4,1,2.1,1.4c2.1,6.9,2.8,13.1-4.5,17.6
				C139.8,272.6,138.7,276.1,141.5,279.2z"/>
			<path fill="#1D5229" d="M69,255c2.4,0,4.5,0,6.9,0c1,1.4,2.4,2.4,3.5,3.8c1.4,2.4,1.7,4.8,1.4,7.6c-0.7,4.8-5.5,6.2-8.3,9.3
				c-9,6.2-11.4-0.3-13.8-6.9c-0.3-5.9-0.7-11.7,6.9-13.8C66.6,253.6,68,253.6,69,255z"/>
			<path fill="#0F6137" d="M131.1,258.5c0,4.5,0.3,8.6,0,13.1c0,1.4-2.1,2.8-3.5,4.1c-3.5,1-6.6,3.5-10.4,1.4
				c-3.8-2.8-5.5-6.9-7.9-11c-0.7-3.8-1-7.2,2.1-10.4c0.7-0.3,1.7-0.7,2.4-1C119.7,256.4,125.3,257.4,131.1,258.5z"/>
			<path fill="#1D5229" d="M82.8,255c0-2.8,0-5.9,0-8.6c2.8-2.8,5.5-5.5,8.6-8.3c5.2,1,10.4,2.1,15.5,3.1c0,1,0,2.4,0,3.5
				c-1,2.1-1,4.8-2.8,6.9c-6.2,2.1-10.7,8.3-18.3,7.2C84.2,258.1,83.2,256.7,82.8,255z"/>
			<path fill="#006D61" d="M58.7,268.8c2.1,1.7,4.1,3.5,6.6,4.5c2.4,1,4.8,1.7,7.2,2.4c0,3.1,0,6.2,0,11.4
				c-6.6-2.8-12.8-2.8-14.8-10c-0.3-1-3.8-1-5.9-1.4C54.2,273.6,56.2,271.2,58.7,268.8z"/>
			<path fill="#164F2D" d="M310.6,217c-1,1-2.4,2.4-3.5,3.5c-5.2,0-10.4,0-16.6,0c-0.3-4.1-0.3-8.3-0.7-13.8c5.2,0,9.7,0,13.8,0
				c2.1,1,2.1,2.4,0,3.5c-1.4,1.7-2.8,3.5-5.5,6.9C304,217,307.5,217,310.6,217z"/>
			<path fill="#0F6137" d="M72.5,230.8c0,4.1,0,8.6,0,13.8c-2.8,0-4.8,0-6.9,0c-6.9-2.1-8.3-6.6-5.9-13.8
				C63.8,230.8,68,230.8,72.5,230.8z"/>
			<path fill="#006D61" d="M262.2,265.4c0,7.9,0,15.9,0,23.8c-2.8,0-4.1,0-6.9,0c0-9.3,0-18.3,0-27.3
				C257.8,263.3,259.8,264.3,262.2,265.4z"/>
			<path fill="#0F6137" d="M27.6,265.4c1.4,2.8,2.8,5.5,5.2,11c-4.5-2.1-6.6-3.1-8.6-4.1c-2.1,1-4.5,2.4-6.9,3.5c-1.7,0-3.5,0-6.2,0
				c-0.3-3.1-0.7-5.9-1-10.7c4.8,0.7,8.6,1.4,14.1,2.4C24.2,267.4,25.9,266.4,27.6,265.4z"/>
			<path fill="#006D61" d="M289.9,248.1c3.5,1,6.9,2.4,10.4,3.5c6.6,7.2-0.7,9.7-4.5,13.5c-0.7,0-1.7,0.3-2.4,0.3
				c-1.7,0-3.5,0-6.6,0c0-5.5-0.3-11.4-0.3-17.3C287.4,248.1,288.8,248.1,289.9,248.1z"/>
			<path fill="#0F6137" d="M17.3,282.6c2.1,1.7,4.1,3.5,6.9,5.9c0,0.7-0.3,2.1-0.3,4.5c-2.4,0-4.1,0-6.2,0
				c-6.6,2.4-7.9-2.8-10.4-6.9C8.6,279.5,13.8,284,17.3,282.6z"/>
			<path fill="#0F6137" d="M107,230.8c-4.5,0-8.6,0-16.2,0c4.8-3.5,7.2-5.2,9.3-6.9c2.1,0,4.1,0,6.9,0
				C107,227.1,107,229.1,107,230.8z"/>
			<path fill="#005253" d="M6.9,286.1c3.5,2.4,6.9,4.5,10.4,6.9c-1.7,6.6-6.9,2.1-10.4,3.5c-1-3.5-2.4-6.9-3.5-10.4
				C4.5,286.1,5.9,286.1,6.9,286.1z"/>
			<path fill="#142D19" d="M231.2,241.2c-3.1,0-6.6,0-10,0c0-2.8,0-4.1,0-6.9c3.5,0,6.9,0,10,0C231.2,236.7,231.2,239.1,231.2,241.2
				z"/>
			<path fill="#005253" d="M303.7,210.1c0-1,0-2.4,0-3.5c2.8,0,4.1-0.7,1.7-3.5c-2.4-2.8-1-3.5,1.7-3.5c1,0,2.4,0,3.5,0
				c0,3.1,0,6.2,0,10.4C307.8,210.1,305.7,210.1,303.7,210.1z"/>
			<path fill="#0F6137" d="M107,248.1c2.1,0,4.1,0,6.9,0c0,2.8,0,4.8,0,6.9c-2.1,2.1-4.1,3.1-6.9,2.1c-2.4-1.7-2.8-4.1-1.7-6.9
				C105.9,249.5,106.3,248.8,107,248.1z"/>
			<path fill="#006D61" d="M144.9,251.6c0-3.8-1-8.6,6.9-5.9c0,1.7,0,3.8,0,5.9c-0.3,0.7-1,1-1.4,1.7
				C148,254.3,146.3,253.3,144.9,251.6z"/>
			<path fill="#006D61" d="M269.2,255c0,3.1,0,6.6,0,13.8c-2.4-4.8-2.8-5.9-3.5-6.9C266.4,259.5,264,255.3,269.2,255z"/>
			<path fill="#1D5229" d="M227.7,248.1c1-1,2.4-2.4,3.5-3.5c1,1,2.4,2.4,3.5,3.5C232.2,248.1,230.2,248.1,227.7,248.1z"/>
			<path fill="#0F6137" d="M103.5,248.1c1-1,2.4-2.4,3.5-3.5c0,1,0,2.4,0,3.5C105.9,249.5,104.6,249.5,103.5,248.1z"/>
			<path fill="#0F6137" d="M69,255c-1,0-2.4,0-3.5,0c0-1,0-2.4,0-3.5C66.6,252.9,68,254,69,255z"/>
			<path fill="#006D61" d="M155.3,255c-1,0-2.4,0-3.5,0c-1-0.7-1.4-1.4-1-2.4c0.3-0.7,0.7-1,1-1C152.9,252.9,154.2,254,155.3,255z"
				/>
			<path fill="#006D61" d="M3.5,265.4c1-1,2.4-2.4,3.5-3.5C5.9,263.3,4.5,264.3,3.5,265.4z"/>
			<path fill="#102013" d="M434.8,203.2c3.1-2.8,5.9-5.5,10.7-10.4c1.4,0,5.5-0.3,9.7-0.7c0-2.1,0-3.5,0-4.8
				c-1.7-0.7-3.8-1.4-6.2-2.1c0-3.8,0-7.6,0-12.1c1-0.3,2.4-0.7,5.2-1.7c1-4.5,2.4-10,3.8-16.6c5.9,0,10.4,0,14.8,0
				c0,2.4,0,4.5,0,6.9c0.7,14.1-4.5,28.3,1.7,42.4c-0.3,4.1,0.7,7.9-0.3,12.1c-6.2,6.2,5.9,16.6-4.8,21.7c-3.5,1-6.9,2.4-10.4,3.5
				c-9,2.8-15.5,17.3-27.6,6.2c-1-1.4-1.4-3.1-1.7-4.8c-2.1-7.9,3.5-12.4,7.6-17.6c3.5-6.6-7.2-11-2.4-17.9
				C434.8,205.7,434.8,204.6,434.8,203.2z"/>
			<path fill="#1D5229" d="M348.5,244.7c-1-5.9-11-7.6-6.2-15.2c-5.2-2.1-10-4.1-14.8-5.9c1.4-5.2,2.8-9.3,3.8-13.5
				c4.5,0,9.3,0,13.8,0c7.6,7.9,9-5.9,15.2-4.1c2.4,0.7,4.1,2.4,5.5,4.1c1.7,2.8,3.8,5.5,6.6,9.3c0,2.4,0,6.2,0,10.7
				c-2.1,1.4-4.1,2.8-6.6,4.5c-1.7-1.7-3.1-3.1-5.2-4.5c2.1,1,3.5,2.8,5.2,4.5c0.7,2.4,1,5.2,2.4,7.2c1,2.4,3.1,4.1,4.5,6.6
				c-4.1,0-7.9-0.7-12.1,0C355.8,249.1,352.3,246.7,348.5,244.7z"/>
			<path fill="#1D5229" d="M434.8,244.7c1.7,0,3.5,0,5.2,0c2.4-6.2,4.8-12.4,13.8-10c1.7,2.1,3.5,4.5,5.2,6.6c0,3.5,0,6.9,0,10.4
				c0,0.7,0,1.7,0,2.4c-1,5.5-5.5,7.9-10,10.4c-5.5,2.1-11.4,3.8-17.3,4.8c-5.9,3.1-10.7,1-14.5-3.8c-2.8-0.7-6.6,1.7-6.9-3.5
				c7.6,0.7,10.7-4.8,13.8-10.4C427.5,249.1,428.9,243.6,434.8,244.7z"/>
			<path fill="#1D5229" d="M348.5,199.8c-1.7,0-3.5,0-5.2,0c-1.7-3.8-3.8-7.6-4.5-11.4c-0.7-3.8-1.7-9,0-11
				c4.1-4.5,0.7-14.1,9.7-15.5c2.1,0,4.1,0,6.9,0c0,4.1,0,7.2,0,10.4c-0.7,3.1,1.4,5.2,3.5,6.9c0,1.7,0,3.1,0,5.9
				c-3.1,0.7-6.6,1.4-11.7,2.1c2.1,2.4,3.5,4.1,4.8,5.9C354.4,197,352.3,199.1,348.5,199.8z"/>
			<path fill="#1C3E1D" d="M434.8,206.7c1,1.4,2.1,2.8,4.5,5.9c1.4-3.8,2.4-5.5,3.5-8.3c3.5,0,8.3,0,13.5,0
				c-1.4,9-10.7,6.9-14.5,11.4c0,2.8,0,5.5,0,8.3c-4.1,2.8-5.5-0.3-6.9-3.5c-3.8,0-7.9,0-12.4,0c-1.7-2.1-3.8-4.5-6.6-7.9
				C423.1,210.5,428.9,208.8,434.8,206.7z"/>
			<path fill="#0F6137" d="M434.8,220.5c2.4,1,4.5,2.4,6.9,3.5c0,1.7,0,3.5,0,5.5c-1.7,0.7-3.8,1.4-6.9,2.4c0,2.8,0,6.2,0,9.3
				c-3.1,2.8-5.5,6.9-10.4,6.9c-1.7,0-3.5,0-6.2,0c-0.3-4.1-0.3-8.3-0.7-12.4C425.8,233.3,430.6,227.4,434.8,220.5z"/>
			<path fill="#0F6137" d="M396.8,272.3c-1.4,3.8-3.1,7.6-4.5,11.7c3.5,1.4,5.9,2.8,7.9,3.8c0,5.9-2.8,7.6-13.8,8.3
				c0-3.1,0-6.6,0-9.7c5.9-6.2,3.5-12.8-1.7-20c4.8-0.3,7.9-0.7,12.1-1C396.8,268.1,396.8,270.2,396.8,272.3z"/>
			<path fill="#006D61" d="M365.8,210.1c-2.4,0-4.5,0-6.9,0c-3.5,2.8-6.9,4.1-10.4,0c0-2.4,0-4.5,0-6.9c2.4-2.8,5.5-4.1,7.6-7.2
				c1-1,1.7-2.1,2.8-3.1C365.4,197,366.1,203.6,365.8,210.1z"/>
			<path fill="#005253" d="M372.7,275.7c-6.6-0.7-1.7-6.6-4.5-9.7c-1-0.3-2.4-0.7-5.2-1c0-2.8-0.3-5.9-0.3-8.3
				c5.2-3.5,7.9-0.7,10.4,9C372.7,268.8,372.7,272.3,372.7,275.7z"/>
			<path fill="#142D19" d="M358.9,179.1c-4.1,1-7.9,2.4-13.1,3.8c-0.3-3.5-0.3-6.6-0.7-10.7c4.1,0,7.2,0,10.7,0
				C360.6,172.5,358.2,176.7,358.9,179.1z"/>
			<path fill="#142D19" d="M358.9,196.3c0,2.1,0,4.1,0,6.9c-4.1,0-7.2,0-10.4,0c0-1,0-2.4,0-3.5c1-2.4,2.4-4.5,3.5-6.9
				c1,0,2.4,0,3.5,0C356.8,193.9,357.8,195.3,358.9,196.3z"/>
			<path fill="#006D61" d="M424.4,248.1c1.4-5.5,4.8-7.6,10.4-6.9c0,1,0,2.4,0,3.5c-1.4,5.5-4.8,7.6-10.4,6.9
				C424.4,250.5,424.4,249.5,424.4,248.1z"/>
			<path fill="#1D5229" d="M358.9,196.3c-1-1-2.4-2.4-3.5-3.5c1,0,2.4,0,3.5,0C358.9,194.3,358.9,195.3,358.9,196.3z"/>
			<path fill="#1D5229" d="M465.8,272.3c7.9,3.1,9,10,10.4,17.3c-4.1,0-7.9,0-12.1,0c-3.1,7.2-7.6,12.8-15.9,15.5
				c0,3.8,0,7.6,0,11.7c-4.5,0.3-8.3,0.3-12.1,0.7c-1,2.4-2.1,4.5-4.1,8.3c-3.1-3.5-5.2-5.9-7.6-8.6c-1.4-5.9,1-9.3,6.9-10.4
				c3.1,0,6.2,0,10.4,0c0-4.1,0-7.2,0-10.4c-2.1-2.4-2.1-4.5,0-6.9c4.5-4.1,9.7-7.6,12.4-13.5C456.5,270.2,460.3,269.2,465.8,272.3z
				"/>
			<path fill="#1D5229" d="M317.5,289.5c1.7,0,3.5,0,5.2,0c1-2.1,2.1-4.5,3.1-6.9c2.4,0,4.5,0,4.5,0c5.5-5.5,10-9.7,14.5-13.8
				c1.4,4.5,3.1,9,4.5,13.1c0.7,2.4,1.4,4.8,2.4,7.6c-12.4,7.9-16.2,22.4-25.9,32.4c-2.8,1.7-5.5,4.5-10.4,4.5
				c-3.8-0.3-6.9-4.1-10.7-6.6c-2.1-3.1-4.5-6.2-4.1-10.4c1-6.6,10-7.2,11.4-13.8C314,293.3,315.7,291.6,317.5,289.5z"/>
			<path fill="#102013" d="M324.4,317.1c0-4.1,0-7.9,0-12.1c10-5.5,10-5.5,15.5-15.5c4.1,0,7.9,0,12.1,0c0.3,5.2,4.1,2.8,6.9,3.5
				c4.1,3.5,3.1,6.9,0,10.4c-2.4,0-4.5,0-6.9,0c-2.4,3.8-7.9,3.1-10.4,6.9c1,1.7,2.1,3.5,3.1,5.2c-1,1.7-2.1,3.5-3.1,5.2
				c-3.5,1-6.9,2.4-10.4,3.5c-1,1.4-2.4,1.7-4.1,1.4C323.3,323.7,324,320.6,324.4,317.1z"/>
			<path fill="#102013" d="M465.8,272.3c-5.5,5.2-11,10.4-16.9,14.8c-1.7,1.4-4.8,1.7-7.2,2.4c-2.1-1.7-4.5-3.5-7.6-6.2
				c4.8-0.3,9-0.7,13.8-1c0-3.1,0-5.9,0-10c-4.5,0-8.6,0-13.1,0c-2.4-2.4-2.1-4.5,0-6.9c3.5-4.5,7.9-7.2,13.8-6.9
				c7.9,4.5,6.9-4.5,10.4-6.9c1.7,0,3.1,0,5.2,0c1.7,3.5,3.5,6.9,4.8,9.7C467.9,265.7,466.9,269.2,465.8,272.3z"/>
			<path fill="#1D5229" d="M386.5,372.3c-3.1,0-6.2,0-10.4,0c0-2.8,0-4.8,0-6.9c1.4-0.7,2.4-1.4,5.2-2.8c-4.8-5.2-8.6-9.7-14.1-15.5
				c4.8-1.4,8.3-2.1,11.7-3.1c0.7-1.7,1.4-3.8,2.1-5.5c3.1,0,5.9,0,10,0c-1.7,4.5-3.1,8.3-4.8,13.5c3.5,0,5.5,0,7.6,0
				c4.5,4.5,6.2,9.3,0,13.8c-2.1,0-4.1,0-6.9,0C386.5,368.5,386.5,370.6,386.5,372.3z"/>
			<path fill="#006D61" d="M434.8,265.4c0,2.4,0,4.5,0,6.9c-6.2,2.4-4.5,10.4-10,14.5c-7.6-5.2-7.6-13.1-7.2-21.4
				C423.4,265.4,428.9,265.4,434.8,265.4z"/>
			<path fill="#61622A" d="M327.8,324c1,0,2.4,0,3.5,0c3.5,5.2,6.9,10.4,10,15.9c-1.7,1.7-3.5,3.5-4.8,4.8c-1.7-1-3.8-2.1-5.5-3.1
				c-0.3-5.2-4.1-2.8-6.9-3.5C319.2,332,318.8,326.8,327.8,324z"/>
			<path fill="#008189" d="M431.3,306.8c0.7,5.5-1.4,9-6.9,10.4c-2.1,0-4.1,0-6.9,0c0-4.1,0-7.2,0-10.4
				C422,302.3,426.8,302.3,431.3,306.8z"/>
			<path fill="#61622A" d="M393.4,365.4c0-4.5,0-9.3,0-13.8c1,0,2.4,0,3.5,0c2.4-2.1,4.5-2.1,6.9,0c0,3.5,0,6.9,0,10.4
				c1,0.7,1.4,1.4,1,2.4c-0.3,0.7-0.7,1-1,1C400.3,370.3,396.8,370.3,393.4,365.4z"/>
			<path fill="#1C3E1D" d="M365.8,313.7c6.9,0,13.5,0,21.7,0c-5.9,8.3-13.8,7.6-20.4,9.7c0,0-0.7-1.7-1-2.8
				C363.7,318.5,363.7,316.1,365.8,313.7z"/>
			<path fill="#61622A" d="M331.3,365.4c0-3.5,0-6.9,0-10.4c0.7-1.4,1.4-2.4,2.1-3.5c8.6,0.7,7.9,8.3,11.4,12.8c0,0-0.7,1-1,1
				c-0.3,0.3-1,0-1.7,0C338.2,367.8,334.7,367.8,331.3,365.4z"/>
			<path fill="#0F6137" d="M358.9,303.3c0-3.5,0-6.9,0-10.4c2.1-6.6,7.6-2.1,11-3.5c0.3,0,1,0.3,2.8,1c0,1.7,0,3.8,0,5.9
				c-1.7,4.8-8.3,2.8-10.4,6.9C361.3,303.3,359.9,303.3,358.9,303.3z"/>
			<path fill="#61622A" d="M341.6,321.3c3.5,0,6.6,0,10,0c0.3,2.1,0.3,3.5,0.7,5.9c-3.5,0-6.2,0-10,0
				C342,324.7,341.6,322.6,341.6,321.3z"/>
			<path fill="#006D61" d="M365.8,313.7c0,2.4,0,4.5,0,6.9c-3.1,0-6.6,0-10,0c0-2.8,0-4.1,0-6.9
				C359.2,313.7,362.7,313.7,365.8,313.7z"/>
			<path fill="#006D61" d="M362.3,303.3c0-2.1,0-4.1,0-6.9c4.1,0,7.2,0,10.4,0c2.1,2.4,2.1,4.5,0,6.9
				C369.2,303.3,365.8,303.3,362.3,303.3z"/>
			<path fill="#1C3E1D" d="M341.6,310.2c0-2.1,0-4.1,0-6.9c4.1,0,7.2,0,10.4,0c0,2.1,0,4.1,0,6.9
				C347.8,310.2,344.7,310.2,341.6,310.2z"/>
			<path fill="#1C3E1D" d="M403.7,351.6c-2.4,0-4.5,0-6.9,0c0.7-2.8-1.7-6.6,3.5-6.9C405.5,345.1,403,349.2,403.7,351.6z"/>
			<path fill="#0F6137" d="M372.7,303.3c0-2.4,0-4.5,0-6.9c3.8,0,8.6-1,5.9,6.9C376.8,303.3,374.7,303.3,372.7,303.3z"/>
			<path fill="#006D61" d="M441.7,289.5c0,2.4,0,4.5,0,6.9c-3.8,0-8.6,1-5.9-6.9C437.5,289.5,439.6,289.5,441.7,289.5z"/>
			<path fill="#1C3E1D" d="M400.3,306.8c-1.7,6.6-6.9,2.1-10.4,3.5C391.6,303.7,396.8,308.1,400.3,306.8z"/>
			<path fill="#1D5229" d="M331.3,365.4c3.5,0,6.9,0,10.4,0C338.2,370.3,334.7,370.3,331.3,365.4z"/>
			<path fill="#142D19" d="M427.9,365.4c-3.5,0-6.9,0-10.4,0c0-4.1,0-7.9,0-12.1c-2.4-1-4.5-2.1-6.9-3.1c0-6.2,5.9-10.7,15.2-12.1
				c1.7,2.4,3.5,4.5,5.5,6.9c2.1,2.1,3.8,3.8,4.1,6.9C434.8,357.1,432.4,362,427.9,365.4z"/>
			<path fill="#1D5229" d="M431.3,351.6c0-2.4,0-4.5,0-6.9c3.5,0,6.9,0,10.4,0c3.5-1,5.2,1,6.9,3.5c0.3,5.2,4.1,2.8,6.9,3.5
				c4.5,4.5,4.8,9.3,0,13.8c-3.5,0-6.9,0-10.4,0c-0.7-0.3-1.4-1-1.7-1.4C438.2,361.3,431,360.2,431.3,351.6z"/>
			<path fill="#61622A" d="M448.6,337.8c0-5.5-0.7-11.4,7.2-14.1c3.5,4.5,6.9,9.7,11.7,16.2c-5.2,0.7-9,1-12.4,1.4
				C453.8,339.2,449.6,341.3,448.6,337.8z"/>
			<path fill="#61622A" d="M455.5,365.4c0-4.5,0-9.3,0-13.8c7.6,0.7,9.7,2.8,10.4,10.4c1,0.7,1,1.4,1,2.4c-0.3,0.7-0.7,1-1,1
				c-2.4,2.1-4.5,2.1-6.9,0C457.9,365.4,456.5,365.4,455.5,365.4z"/>
			<path fill="#005253" d="M490,320.6c-3.1,0-6.2,0-10.4,0c0-4.1,0-7.2,0-10.4c3.5,1.4,8.6-3.1,10.4,3.5
				C491.7,316.1,492.8,318.5,490,320.6z"/>
			<path fill="#1C3E1D" d="M448.6,337.8c2.8,0.7,6.6-1.7,6.9,3.5c-2.4,2.4-4.5,4.5-6.9,6.9c-2.8-0.7-6.6,1.7-6.9-3.5
				c0-2.1,0-4.1,0-6.9C444.4,337.8,446.5,337.8,448.6,337.8z"/>
			<path fill="#61622A" d="M475.8,321.9c0,1.4,0,3.1,0,5.2c-3.5,0-6.2,0-9.7,0C467.6,320.9,467.6,320.9,475.8,321.9z"/>
			<path fill="#1C3E1D" d="M481,309.9c-4.5,0-7.9,0-12.4,0c0.7-2.8,1.4-4.8,2.4-8.6C475.5,305,477.9,307.1,481,309.9z"/>
			<path fill="#1D5229" d="M490,320.6c0-2.4,0-4.5,0-6.9c4.5,1.4,7.2,3.8,6.9,9C493.4,324.7,491,325.7,490,320.6z"/>
			<path fill="#1D5229" d="M458.9,365.4c2.4,0,4.5,0,6.9,0c-1.4,1-2.8,2.4-4.1,3.5C460.7,367.8,460,366.8,458.9,365.4z"/>
			<path fill="#1D5229" d="M441.7,368.9c0-1,0-2.4,0-3.5c1-1.4,2.4-1.4,3.5,0C444.1,366.8,442.7,367.8,441.7,368.9z"/>
			<path fill="#142D19" d="M483.1,299.9c1,1,2.4,2.4,3.5,3.5C485.5,302.3,484.1,301.2,483.1,299.9z"/>
			<path fill="#1D5229" d="M465.8,365.4c0-1,0-2.4,0-3.5c1,0.7,2.1,1.4,2.8,2.4C467.9,364.7,466.9,365.1,465.8,365.4z"/>
			<path fill="#1C3E1D" d="M403.7,365.4c0-1,0-2.4,0-3.5c1,0.7,2.1,1.4,2.8,2.4C405.8,364.7,404.8,365.1,403.7,365.4z"/>
			<path fill="#1D5229" d="M176,286.1c0-2.1,0-4.1,0-6.9c4.1,0,7.2,0,10.4,0c6.2,0.7,10.7,3.5,12.8,9.7c-0.3,1.7-1,3.1-2.4,4.1
				c0.3,4.8-0.3,9.7-3.5,13.8c2.4,2.1,4.5,2.1,6.9,0c2.1,0,4.1,0,6.9,0c0,4.1,0,7.2,0,10.4c-2.8,0-5.5,0-9.7,0
				c-0.3,2.8-0.7,5.9-1.4,9c-2.4,1-4.5,2.1-7.9,3.5c6.9,7.9,12.8,14.8,18.6,21.7c4.1,4.5,6.2,9.3,0,13.8c-2.4,0-4.5,0-6.9,0
				s-4.5,0-6.9,0c-2.4-3.1-5.2-5.2-9.3-2.4c-2.4,1.4-5.9,0-7.9,2.4c-6.2-1.7-8.3,4.1-13.1,7.6c0-3.8,0-6.2,0-11
				c2.4-2.1,6.6-5.2,11.4-9.3c-4.1-4.8-7.9-9-12.1-14.1c4.5-0.3,8.6-0.7,12.8-1c1,2.4,1.7,4.5,2.4,6.9c2.4,0,5.2,0,8.6,0
				c0-2.8,0-5.5,0-9c-1.4-0.3-3.5-1-5.9-2.1c0-3.8,0-7.6,0-11.4c-3.8-2.1-7.2-4.5-11.7-7.6c3.8-4.1,7.2-8.3,11.4-12.8
				C179.8,296.4,179.8,290.9,176,286.1z"/>
			<path fill="#142D19" d="M103.5,248.1c1,0,2.4,0,3.5,0c0,2.4,0,4.5,0,6.9c1,0.7,1.7,1.7,2.4,2.8c0.3,0.7,0.3,1,0.7,1.7
				c0,0.7,0,1.4,0.3,1.7c0.3,1.4,1,2.4,1.7,3.5c1.4,2.4,4.5,3.1,5.2,6.2c0,1.4,0,2.8-0.7,4.5c-1.4,2.1-3.5,2.8-5.2,4.1
				c-1.7,2.4-3.5,4.8-4.8,7.6c-1.4,3.8-3.5,6.9-6.6,9.3c-2.4,6.2-4.5,12.1-6.9,18.3c-0.3,1-2.1,1.7-3.5,2.4
				c-4.5-3.5-9.3-6.9-13.8-10.4c-2.4,0-3.5-1-3.5-3.5c0-3.1,0-6.6,0-9.3c2.4-0.7,4.1-1,6.2-1.4c0-5.2,0-10.4,0-16.9
				c-2.1,0-4.1,0-6.2,0c1.4-3.5-3.1-8.6,3.5-10.4c1-1,2.1-2.1,3.1-3.1c2.4-2.4,4.8-4.8,7.2-7.2c1.4-1.7,3.1-3.8,5.9-6.9
				C94.9,248.1,99,248.1,103.5,248.1z"/>
			<path fill="#1D5229" d="M107,272.3c2.4,0,4.5,0,6.9,0c2.4-2.1,4.5-2.1,6.9,0c2.8,0.7,6.6-1.7,6.9,3.5c0,4.1,0,8.6,0,14.1
				c5.2-1.4,9.7-2.8,13.8-3.8c0,1.7,0,3.5,0,5.5c-1.7,0.7-3.8,1.4-6.9,2.4c0,2.8,0,6.2,0,9.3c-2.1,6.6,3.5,7.6,7.6,9.7
				c1,1.4,0.7,2.8-0.7,4.1c-1.7,0-3.5,0-6.2,0c-0.3,2.8-0.7,5.9-1.4,9c-7.2-0.3-9,10.4-16.9,8.3c-2.1,0-3.5-1-3.5-3.5
				c0-3.1,0-6.2,0-10.4c-2.8,0-4.8,0-6.9,0c0-6.9,0-13.8,0-20.7c1.4-1.4,1.4-3.5,1.4-5.2c-0.3-2.1-1.4-3.5-2.1-5.5
				c-1-1.7-1.7-3.8-2.4-5.5c-0.3-1.4-0.7-2.8-1-4.1C102.5,276.1,104.9,274.3,107,272.3z"/>
			<path fill="#1D5229" d="M138,365.4c-3.5,0-6.9,0-10.4,0c-2.4,0-4.5,0-6.9,0c-2.1-2.4-2.1-4.5,0-6.9c-0.7-5.5,1.4-9,6.9-10.4
				c4.5-1.7,9.3-4.5,13.8,0c1,1,2.4,2.4,3.5,3.5c3.1,5.5,2.1,10.4-3.5,13.8C140.4,365.4,139.1,365.4,138,365.4z"/>
			<path fill="#142D19" d="M72.5,337.8c-1.7,0-3.5,0-6.2,0c-0.3-2.4-0.7-5.2-1-8.6c3.1-2.8,6.2-5.9,9.3-9c2.8,0.3,5.5,0.3,8.3,0.7
				c-1.4,5.2-2.4,9.3-3.8,13.5C79,339.5,75.2,337.5,72.5,337.8z"/>
			<path fill="#1C3E1D" d="M141.5,317.1c0-1,0-2.4,0-3.5c1-1.4,2.4-1.4,3.5,0c2.4,1,4.5,2.4,6.9,3.5c0,3.8,0,7.9,0,12.4
				c-2.4,1.7-4.8,3.8-6.9,5.5c-1.7-1.4-3.1-2.1-3.1-2.8C141.5,327.5,141.5,322.3,141.5,317.1z"/>
			<path fill="#142D19" d="M141.5,348.2c-3.8,1-7.6,2.4-11.4,3.1c-0.7,0-1.4-2.1-2.4-3.1c2.4-9.3,2.4-9.3,13.8-9.7
				C141.5,342,141.5,345.1,141.5,348.2z"/>
			<path fill="#61622A" d="M141.5,365.4c-0.3-4.8,0.3-9.7,3.5-13.8c1.7,0,3.5,0,5.9,0c0,5.9,0,11.4,0,18.3
				C147,368.2,144.2,366.8,141.5,365.4z"/>
			<path fill="#61622A" d="M79.4,365.4c-0.3-4.8,0.3-9.7,3.5-13.8c1.7,0,3.5,0,6.6,0c0,5.5,0.3,11.4,0.3,17.3
				C86.3,367.8,82.8,366.8,79.4,365.4z"/>
			<path fill="#0F6137" d="M100.1,296.4c0-4.5,0-9.3,0-13.8c2.4-2.4,4.5-2.1,6.9,0c2.4,2.4,4.8,4.5,4.5,8.3
				c-0.7,1.4-1.4,2.8-2.4,4.1c-0.7,0.3-1.4,1-2.1,1.4C104.6,296.4,102.5,296.4,100.1,296.4z"/>
			<path fill="#1C3E1D" d="M110.4,337.8c0,2.1,0,4.1,0,8.3c-4.5-2.4-7.2-3.8-11.4-6.2c3.1-2.4,5.5-4.1,7.9-5.9
				C108.4,335.4,110.4,335.7,110.4,337.8z"/>
			<path fill="#142D19" d="M107,321.3c0,2.4,0,3.5,0,5.5c-2.8,0.3-5.9,0.7-9.7,1c-0.3-2.4-0.3-4.1-0.7-6.6
				C100.8,321.3,103.9,321.3,107,321.3z"/>
			<path fill="#1D5229" d="M169.1,279.2c0,2.4,0,4.5,0,6.9c-1,2.4-2.4,4.5-3.5,6.9C160.1,286.7,160.1,285.7,169.1,279.2z"/>
			<path fill="#005253" d="M151.8,310.2c0-2.4,0-4.5,0-6.9c5.2-3.8,7.6-0.3,10.4,3.5C160.5,313.7,155.3,309.2,151.8,310.2z"/>
			<path fill="#142D19" d="M110.4,337.8c-1-1-2.4-2.4-3.5-3.5c2.4-1,4.5-2.4,6.9-3.5c1,1,2.4,2.4,3.5,3.5
				C117,339.5,113.2,337.5,110.4,337.8z"/>
			<path fill="#61622A" d="M120.8,358.5c0,2.4,0,4.5,0,6.9c-2.4,0-4.5,0-6.9,0c0-2.4,0-4.5,0-6.9
				C116.3,358.5,118.4,358.5,120.8,358.5z"/>
			<path fill="#0F6137" d="M162.2,306.8c-3.5-1-6.9-2.4-10.4-3.5c-0.7-0.7-1-1.4-0.7-2.4c0.3-0.7,0.7-1,0.7-1c3.5,0,6.9,0,10.4,0
				C162.2,302.3,162.2,304.7,162.2,306.8z"/>
			<path fill="#0F6137" d="M110.4,296.4c-1,1-2.4,2.4-3.5,3.5c0-1,0-2.4,0-3.5c0.7-0.3,1-1,1.7-1.4
				C109.4,295.7,109.7,296.1,110.4,296.4z"/>
			<path fill="#142D19" d="M248.4,334.4c3.1-3.1,6.6-6.2,10.4-10c0-1,0-3.1,0-5.2c2.4-2.1,4.5-3.8,6.9-5.5c-2.1-2.4-2.1-4.5,0-6.9
				c5.2,0.3,2.8,4.1,3.5,6.9c6.2,7.9,3.8,14.8-3.5,20.7c0,4.5,0,9.3,0,13.8c1.7,5.2,0,9-5.5,10c-4.8,0.7-7.2-2.1-8.3-6.6
				c0-4.5,0.3-8.6,0-13.1C251.6,337.1,249.5,335.7,248.4,334.4z"/>
			<path fill="#1D5229" d="M251.9,351.6c2.1,1,4.5,2.4,7.6,4.1c2.1-2.4,4.1-5.2,6.2-7.6c2.4,1,4.5,2.4,6.9,3.5
				c3.1,4.5,4.8,9.3,0,13.8c-3.5,0-6.9,0-10.4,0c-2.4,0-4.5,0-6.9,0c-1.7,0-3.8-0.7-4.8,0c-3.5,3.5-6.9,4.5-12.4,2.1
				c0-1.7,0-3.8,0-5.9c-2.1-1-2.1-2.4,0-3.5c2.8,0,5.5,0,8.3,0C248.4,356.5,250.2,354,251.9,351.6z"/>
			<path fill="#0F6137" d="M231.2,293c0,1,0,2.4,0,3.5c-2.8,0-5.5,0-9.7,0c-0.3,4.1-0.7,8.3-1,12.4c-1.4,1.7-1.4,1.7-10-8.3
				c-1.4-6.6,10.7-2.4,7.9-10c4.5-1,8.3-2.8,9.3-7.6c1.7-1,3.5-0.7,4.8,0.7C235,287.1,234,290.2,231.2,293z"/>
			<path fill="#0F6137" d="M196.7,293c0-1,0-2.4,0-3.5c0-4.5-6.6-9.3,0-13.8c3.5,1,6.9,2.1,10,3.1c0,5.2,0,9,0,14.1
				C203.2,293,199.8,293,196.7,293z"/>
			<path fill="#61622A" d="M207,365.4c0-4.5,0-9.3,0-13.8c3.5,1,6.9,2.4,11.7,3.8c-2.8,5.5-4.5,9.7-7.2,15.2
				C209.5,368.5,208.1,366.8,207,365.4z"/>
			<path fill="#1C3E1D" d="M238.1,358.5c0,1,0,2.4,0,3.5c-3.8,2.4-7.6,5.2-13.1,8.6c0-5.9,0-10,0-14.8c1.4-0.3,3.8-1,4.1-0.3
				C231.5,358.2,234.6,359.2,238.1,358.5z"/>
			<path fill="#1D5229" d="M207,317.1c2.8,0,3.8,0,5.9,0c1.7,6.2,3.1,12.4-4.8,17.3c-0.3-3.1-0.7-6.2-0.7-9
				C207,322.6,207,319.9,207,317.1z"/>
			<path fill="#006D61" d="M231.2,282.6c-1,0-2.4,0-3.5,0c-1,0-2.4,0-3.5,0c-1-1.4-2.4-2.4-3.5-3.5c-1-0.7-1-1.4-1-2.4
				c0.3-0.7,0.7-1,1-1c0.3-5.2,4.1-2.8,6.9-3.5c1-1.4,2.4-1.4,3.5,0c0,1,0,2.4,0,3.5c1.7,1.4,1.7,3.5,1.4,5.5
				C232.2,281.9,231.5,282.3,231.2,282.6z"/>
			<path fill="#005253" d="M227.7,258.5c5.2,0.3,2.8,4.1,3.5,6.9c-1,1.4-2.4,1.4-3.5,0c-3.8,0-8.6,1-5.9-6.9
				C223.6,258.5,225.7,258.5,227.7,258.5z"/>
			<path fill="#006D61" d="M200.1,265.4c0-3.1,0-6.6,0-10.4c5.5,2.4,7.6,5.5,6.9,10.4C204.6,265.4,202.6,265.4,200.1,265.4z"/>
			<path fill="#1C3E1D" d="M225,338.5c3.1,0,6.2,0,9.3,0c0,2.1,0,3.8,0,6.9c-4.1-1.7-6.9-3.1-10-4.5
				C224.6,340.2,224.6,339.2,225,338.5z"/>
			<path fill="#142D19" d="M227.7,265.4c1,0,2.4,0,3.5,0c1,1.4,2.4,2.8,3.5,4.1c-1,1-2.4,1.7-3.5,2.8c-1,0-2.4,0-3.5,0
				C227.7,270.2,227.7,267.8,227.7,265.4z"/>
			<path fill="#006D61" d="M200.1,306.8c-1.4,1-2.8,2.4-4.1,3.5c-1-1-1.7-2.4-2.8-3.5C195.7,306.8,197.7,306.8,200.1,306.8z"/>
			<path fill="#0F6137" d="M220.8,279.2c1,1,2.4,2.4,3.5,3.5C223.3,281.6,221.9,280.5,220.8,279.2z"/>
			<path fill="#142D19" d="M220.8,275.7c0,1,0,2.4,0,3.5c-1-0.7-2.1-1.4-2.8-2.4C218.8,276.7,219.8,276.1,220.8,275.7z"/>
			<path fill="#1D5229" d="M307.1,272.3c5.2,0,10.4-0.7,13.5,4.8c-4.5,1.7-9,3.8-13.8,5.9c1.7,2.8,2.8,4.8,3.8,6.6
				c2.1,2.1,3.1,4.5,2.8,7.6c-2.4,5.9-9,5.9-12.8,9.7c-3.1,0.3-5.2-1.4-7.2-3.1c-6.9,0-13.5,0-20.4,0c0-2.8,0-4.1,0-6.2
				c3.5,0,6.9,0,11,0c2.4-3.5,5.2-7.2,9.3-12.8c0,0.7,0-2.1,0-4.8C297.4,276.1,298.8,267.1,307.1,272.3z"/>
			<path fill="#142D19" d="M327.8,324c-3.1,4.1-3.8,9-3.5,13.8c-1.7,0-3.5,0-5.2,0c-1,2.4-2.1,4.5-3.1,6.9c-2.1,0-3.8,0-5.2,0
				c-1-5.9-2.4-11.4-3.5-17.3c-2.1-2.8-3.5-5.5-2.1-9c0.7-0.3,1.4-1,2.1-1.4c3.5,1,6.9,2.1,11,3.5c1.7-1,4.1-2.1,6.2-3.5
				C329.5,317.5,327.1,321.6,327.8,324z"/>
			<path fill="#008189" d="M293.3,303.3c2.4,0,4.5,0,6.9,0c4.1-2.4,7.2-3.1,6.9,3.5c0,3.5,0,6.9,0,10.4c-1.7,2.1-3.8,3.8-6.9,3.5
				c-1.7,0-3.5,0-6.6,0C293.7,315,293.3,309.2,293.3,303.3z"/>
			<path fill="#1C3E1D" d="M265.7,334.4c0-7.2,5.9-13.1,3.5-20.7c1.7,0,3.5,0,5.9,0c0,6.6,0,13.1,0,20.7
				C272.3,334.4,268.8,334.4,265.7,334.4z"/>
			<path fill="#008189" d="M307.1,272.3c-2.1,1.7-4.1,3.5-6.6,4.5c-2.4,1-4.8,1.7-7.2,2.4c0-4.5,0-9.3,0-13.8
				c4.5-4.1,9.3-6.2,13.8,0C307.1,267.8,307.1,270.2,307.1,272.3z"/>
			<path fill="#61622A" d="M272.6,365.4c0-4.5,0-9.3,0-13.8c2.4,2.4,4.5,4.5,6.9,6.9c0,3.1-1.4,5.2-3.5,6.9
				C275,367.8,273.6,367.8,272.6,365.4z"/>
			<path fill="#1D5229" d="M300.2,320.6c0.3-5.2,4.1-2.8,6.9-3.5c0,3.5,0,6.9,0,10.4C304.7,325.4,302.6,323,300.2,320.6z"/>
			<path fill="#1D5229" d="M276.1,365.4c0.7-2.8-1.7-6.6,3.5-6.9c1.4,1.7,2.8,3.5,5.5,6.9C280.2,365.4,278.1,365.4,276.1,365.4z"/>
			<path fill="#0F6137" d="M265.7,306.8c0,2.4,0,4.5,0,6.9c-3.5-1.4-8.6,3.1-10.4-3.5c1.4-2.8,4.8-1.7,6.9-3.5
				C263.3,306.8,264.7,306.8,265.7,306.8z"/>
			<path fill="#006D61" d="M262.2,306.8c-0.3,5.2-4.1,2.8-6.9,3.5c0.7-2.8-1.7-6.6,3.5-6.9C259.8,304.7,261.2,305.7,262.2,306.8z"/>
			<path fill="#1D5229" d="M272.6,365.4c1,0,2.4,0,3.5,0c0,2.1,0,4.1,0,6.2c-0.7,0-1.4,0-2.4,0.3
				C273.3,369.9,272.9,367.8,272.6,365.4z"/>
			<path fill="#1D5229" d="M469.3,237.8c0-2.8,0-5.9,0-9.7c-5.9-0.3-11.7-1-19.7-1.4c4.8-5.5,7.9-9.3,10.7-12.8c3.5,0,6.2,0,9,0
				c5.5,1.7,12.4-1.7,17.3,3.5c2.8,0,5.5,0,9.7,0c0.3,4.1,0.3,8.3,0.7,13.8c-2.8,0-4.8,0-6.9,0c-1.4,0.3-2.1,1-1.4,2.4
				c0.3,0.7,0.7,1,1.4,1c-0.7,5.5,1.4,9,6.9,10.4c0,1,0,2.4,0,3.5c-5.2,0-10,0-14.8,0C477.6,244.7,473.4,241.2,469.3,237.8z"/>
			<path fill="#164F2D" d="M472.7,203.2c-2.1-1.7-5.9-2.8-6.2-4.8c-2.1-6.9-2.8-13.8-4.1-21c2.4-1,4.5-2.1,6.9-3.1
				c-1.4-1.4-2.4-2.8-4.5-5.2c2.8-2.4,5.5-4.8,7.9-7.2c3.5,3.5,6.9,6.9,10.4,10.4c-3.1,3.1-6.2,5.9-6.9,10.4c0,2.8,0,5.5,0,9.7
				c4.1,0.3,8.3,0.7,13.1,1c0,3.1,0,5.9,0,10c-4.5,0-8.6,0-13.1,0C475.2,205.7,473.8,205.7,472.7,203.2z"/>
			<path fill="#142D19" d="M472.7,203.2c1,0,2.4,0,3.5,0c0,1.7,0,3.5,0,5.9c3.1,0.3,6.2,1,10.4,1.7c0,2.1,0,4.1,0,6.2
				c-3.5,1-6.6,1.7-11.7,3.5c-1.4-1.7-3.5-4.1-5.5-6.9C470.3,210.1,471.7,206.7,472.7,203.2z"/>
			<path fill="#142D19" d="M476.2,182.5c-6.6-1.4-2.8-5.9-2.8-10.4c3.5,0,6.6,0,9.7,0c0,3.1,0,6.2,0,10.4
				C480.3,182.5,478.3,182.5,476.2,182.5z"/>
			<path fill="#102013" d="M490,234.3c-3.1,0-6.6,0-10,0c0-3.5,0-6.2,0-10c2.8,0,5.9-0.3,10-0.3c0,2.8,0,4.8,0,6.9
				C490,232.2,490,233.3,490,234.3z"/>
			<path fill="#142D19" d="M55.2,358.5c2.4-9.3,2.4-9.3,14.1-9.7c-1.4,5.9-2.8,11.4-3.8,16.6c-2.4,0-4.5,0-6.9,0
				c-0.7-0.3-1.4-0.7-2.1-0.7C55.2,363,55.2,360.9,55.2,358.5z"/>
			<path fill="#61622A" d="M27.6,365.4c-2.4,0-4.5,0-6.9,0c0-4.5,0-9.3,0-13.8c2.4-2.1,4.5-2.1,6.9,0
				C27.6,356.5,27.6,360.9,27.6,365.4z"/>
			<path fill="#006D61" d="M27.6,303.3c2.8,0.7,6.6-1.7,6.9,3.5c1.4,3.5,0,4.8-3.5,3.5c-2.4,0-4.5,0-6.9,0
				C25.2,308.1,26.6,305.7,27.6,303.3z"/>
			<path fill="#142D19" d="M31.1,310.2c1-1,2.4-2.4,3.5-3.5c1,0,2.4,0,3.5,0c0,2.1,0,4.1,0,9C34.5,313,32.8,311.6,31.1,310.2z"/>
			<path fill="#0F6137" d="M58.7,365.4c-1.4,1-2.8,2.4-4.1,3.5c-1-1-1.7-2.4-2.8-3.5C54.2,363.4,56.2,363.4,58.7,365.4z"/>
			<path fill="#1D5229" d="M27.6,351.6c-2.4,0-4.5,0-6.9,0c1-1,2.4-2.4,3.5-3.5C25.2,349.6,26.6,350.6,27.6,351.6z"/>
			<path fill="#102013" d="M445.1,365.4c-1,0-2.4,0-3.5,0c-4.5,0-9.3,0-13.8,0c0-3.1-0.3-6.6,0-9.7c0.3-1.4,2.1-2.8,3.5-4.1
				c4.1,2.8,8.3,5.5,13.8,9C445.1,361.6,445.1,363.7,445.1,365.4z"/>
			<path fill="#142D19" d="M182.9,362c0-2.8,0-5.9,0-9.7c3.1-0.3,6.2-0.7,10.4-1c0,5.2,0,9.7,0,14.1c-1,0-2.4,0-3.5,0
				c-2.4,0-4.5,0-6.9,0C180.5,364.4,180.5,363.4,182.9,362z"/>
			<path fill="#61622A" d="M182.9,362c0,1,0,2.4,0,3.5c-2.4,0-4.5,0-6.9,0C176.3,360.2,180.1,362.7,182.9,362z"/>
			<path fill="#1D5229" d="M307.1,265.4c-4.5,0-9.3,0-13.8,0c0.7-2.4,1-5.2,2.4-7.2c1-2.4,3.1-4.1,4.5-6.6c2.4-7.9,6.2-1,10.4-0.7
				c0-2.1,0-4.1,0-6.2c1.7,0,3.5,0,5.2,0c2.4-3.5,4.5-7.2,6.6-10.4c1.4,0,2.1-0.3,2.8,0c4.5,2.8,9,5.9,14.1,9.3
				c-2.1,2.8-4.1,5.9-7.9,11.4c0,1.4,0,5.9,0,9.7c-5.2-2.8-10-5.2-15.2-7.9c-1.4,3.5-1.7,5.5-3.1,8.6
				C311.2,265.4,309.2,265.4,307.1,265.4z"/>
			<path fill="#142D19" d="M348.5,210.1c3.5,0,6.9,0,10.4,0c1,5.2-1.7,8.3-6.2,10.4c-5.2-1.4-8.3-4.5-7.6-10.4
				C346.1,210.1,347.5,210.1,348.5,210.1z"/>
			<path fill="#1D5229" d="M331.3,209.8c-3.5,0-6.6,0-10,0c-0.3-2.1-0.3-3.5-0.7-5.9c3.5,0,6.2,0,10,0
				C330.9,206,331.3,208.1,331.3,209.8z"/>
			<path fill="#006D61" d="M310.6,296.4c0-2.4,0-4.5,0-6.9c2.4,0,4.5,0,6.9,0c0,2.4,0,4.5,0,6.9C315,298.8,313,298.8,310.6,296.4z"
				/>
			<path fill="#142D19" d="M314,217c-1,0-2.4,0-3.5,0c0.7-1,1.4-2.1,2.4-2.8C313.3,215.3,313.7,216.4,314,217z"/>
			<path fill="#006D61" d="M72.5,303.3c1,1,2.4,2.4,3.5,3.5c0,1,0,2.4,0,3.5c-3.5,2.4-6.9,2.4-10.4,0c0-2.1,0-4.1,0-6.9
				C68.3,303.3,70.4,303.3,72.5,303.3z"/>
			<path fill="#61622A" d="M58.7,365.4c-2.4,0-4.5,0-6.9,0c0.7-2.8-1.7-6.6,3.5-6.9C60.4,358.9,58,363,58.7,365.4z"/>
			<path fill="#0F6137" d="M65.6,310.2c3.5,0,6.9,0,10.4,0C72.5,315,69,315,65.6,310.2z"/>
			<path fill="#008189" d="M231.2,293c0-3.5,0-6.9,0-10.4c1-2.4,2.4-2.4,3.5,0c3.5,3.1,3.5,3.1,2.8,10.4
				C235.3,293,233.3,293,231.2,293z"/>
			<path fill="#006D61" d="M244,275.4c-3.5-4.1-4.8-6.2-7.2-9c3.5-0.7,4.8-1,7.2-1.4C244,267.8,244,270.2,244,275.4z"/>
			<path fill="#0F6137" d="M234.6,282.6c-1,0-2.4,0-3.5,0c0-2.4,0-4.5,0-6.9C236.4,276.1,234,280.2,234.6,282.6z"/>
			<path fill="#1D5229" d="M151.8,251.6c0,1,0,2.4,0,3.5c0,3.8,0,7.9,0,12.4c1.7,0.7,3.8,1,6.2,2.1c0,1.7,0,3.8,0,6.2
				c-5.5-1.4-10.4-2.8-16.6-4.1c0,3.5,0,5.5,0,7.9c-6.2-1-3.5-5.9-2.8-9c0.7-2.4,3.5-3.8,6.2-6.6c0-3.5,0-7.9,0-12.1
				C147.3,251.6,149.4,251.6,151.8,251.6z"/>
			<path fill="#0F6137" d="M144.9,313.7c-1,0-2.4,0-3.5,0c-9-0.3-9-0.3-14.5-9c3.1-0.3,5.2-1,7.6-1.4
				C138,306.8,141.5,310.2,144.9,313.7z"/>
			<path fill="#1C3E1D" d="M151.8,299.9c0,1,0,2.4,0,3.5c-1-0.7-2.1-1.4-2.8-2.4C149.8,300.9,150.8,300.2,151.8,299.9z"/>
			<path fill="#102013" d="M220.8,220.5c-1.4,5.2-2.8,10-4.1,16.6c-2.1,4.5-11,6.2-9.7,14.5c-2.8,0-5.5,0-9.3,0
				c-2.1-6.6-0.7-13.8-1-20.7c2.8,0,5.5,0,9.7,0c0.3-4.1,0.7-8.3,1.4-13.5C211.9,218.1,217,214.3,220.8,220.5z"/>
			<path fill="#0F6137" d="M86.3,255c0,3.1,0,6.2,0,10.4c-2.8,0-4.8,0-6.9,0c-2.4-1.7-1-5.2-3.5-6.9c0-1,0-2.4,0-3.5
				c2.4,0,4.5,0,6.9,0C83.9,255,85.2,255,86.3,255z"/>
			<path fill="#006D61" d="M196.7,275.7c0.7,2.4,1,5.2,2.1,7.2c1.7,3.1,2.8,5.9-2.1,6.6c-3.5-3.5-6.9-6.9-10.4-10.4
				c0-2.1,0-4.1,0-6.2C190.5,274,193.6,275,196.7,275.7z"/>
			<path fill="#006D61" d="M75.9,258.5c5.2,0.3,2.8,4.1,3.5,6.9c-1,0-2.4,0-3.5,0C75.9,263.3,75.9,260.9,75.9,258.5z"/>
			<path fill="#1D5229" d="M113.9,268.8c-2.4-1-4.5-2.4-6.9-3.5c-2.1-2.4-2.1-4.5,0-6.9c0-1,0-2.4,0-3.5c2.4,0,4.5,0,6.9,0
				c0,3.5,0,6.9,0,10.4c1,0.7,1.4,1.4,1,2.4C114.6,268.5,114.2,268.8,113.9,268.8z"/>
			<path fill="#006D61" d="M113.9,268.8c0-1,0-2.4,0-3.5c2.1,0,4.1,0,6.9,0c0,2.8,0,4.8,0,6.9c-2.4,0-4.5,0-6.9,0
				C113.9,271.2,113.9,270.2,113.9,268.8z"/>
			<path fill="#142D19" d="M365.4,234c-3.8,0-8.3,0-12.8,0c0-2.1-0.7-3.8,0-4.8c3.1-4.1,6.9-6.9,13.1-4.1
				C365.4,228.1,365.4,231.2,365.4,234z"/>
			<path fill="#142D19" d="M458.9,251.6c0,4.5,0,9,0,13.5c-3.8,0-6.6,0-10.4,0c0-2.4,0-4.5,0-6.6C452,256.4,455.5,254,458.9,251.6z"
				/>
			<path fill="#102013" d="M310.6,296.4c2.4,0,4.5,0,6.9,0c0,3.1,0,6.2,0,10.4c-4.1,0-7.2,0-10.4,0c-0.3-5.2-4.1-2.8-6.9-3.5
				c0-2.1,0-4.1,0-6.9C304.3,296.4,307.5,296.4,310.6,296.4z"/>
			<path fill="#006D61" d="M107,282.6c-2.4,0-4.5,0-6.9,0c-7.2-1-0.7-6.6-6.9-10.4c7.2,0,10.7,0,13.8,0
				C107,275.7,107,279.2,107,282.6z"/>
			<path fill="#005253" d="M100.1,265.4c-6.2-1-2.4-5.9-3.1-9c3.1-2.1,5.9-3.1,6.6,2.1C103.5,261.6,102.1,263.6,100.1,265.4z"/>
			<path fill="#006D61" d="M100.1,265.4c0.7-2.8-1.7-6.6,3.5-6.9c1,0,2.4,0,3.5,0c0,2.4,0,4.5,0,6.9
				C104.6,265.4,102.5,265.4,100.1,265.4z"/>
			<path fill="#008189" d="M107,293c0-3.5,0-6.9,0-10.4c2.4,0,4.5,0,6.9,0c2.4,4.5,3.1,8.6-2.1,11.7C110.1,295,108.4,294.3,107,293z
				"/>
			<path fill="#0F6137" d="M110.4,293c6.6-1.7,2.1-6.9,3.5-10.4c6.6,2.1,2.1,7.6,3.5,11c0,0.3-0.3,1-1,2.8c-1.7,0-3.8,0-5.9,0
				c-1-0.7-1.4-1.4-1-2.4C109.7,293.3,110.1,293,110.4,293z"/>
			<path fill="#1D5229" d="M110.4,293c0,1,0,2.4,0,3.5c-1,0-2.4,0-3.5,0c0-1,0-2.4,0-3.5C108,293,109.4,293,110.4,293z"/>
		</g>
	</g>
</g>
</svg>
