<?xml version="1.0" encoding="utf-8"?>
<!-- Generator: Adobe Illustrator 17.1.0, SVG Export Plug-In . SVG Version: 6.00 Build 0)  -->
<!DOCTYPE svg PUBLIC "-//W3C//DTD SVG 1.1//EN" "http://www.w3.org/Graphics/SVG/1.1/DTD/svg11.dtd">
<svg version="1.1" id="Layer_1" xmlns="http://www.w3.org/2000/svg" xmlns:xlink="http://www.w3.org/1999/xlink" x="0px" y="0px"
	 viewBox="0 0 90 130" enable-background="new 0 0 90 130" xml:space="preserve">
<g id="_x39_5WEOe_1_">
	<g>
		<g>
			<path fill="#010101" d="M55,130c-16.7,0-33.3,0-50,0c0-1.7,0-3.3,0-5c16.7,0,33.3,0,50,0C55,126.7,55,128.3,55,130z"/>
			<path fill="#010101" d="M80,125c0,1.7,0,3.3,0,5c-5,0-10,0-15,0c0-1.7,0-3.3,0-5C70,125,75,125,80,125z"/>
			<path fill="#010101" d="M80,0c0,1.7,0,3.3,0,5c-3.3,0-6.7,0-10,0c0-1.7,0-3.3,0-5C73.3,0,76.7,0,80,0z"/>
			<path fill="#010101" d="M5,90c-1.7,0-3.3,0-5,0c0-3.3,0-6.7,0-10c1.7,0,3.3,0,5,0C5,83.3,5,86.7,5,90z"/>
			<path fill="#010101" d="M5,125c-1.7,0-3.3,0-5,0c0-1.7,0-3.3,0-5c1.7,0,3.3,0,5,0C5,121.7,5,123.3,5,125z"/>
			<path fill="#010101" d="M85,60c1.7,0,3.3,0,5,0c0,1.7,0,3.3,0,5c-1.7,0-3.3,0-5,0C85,63.3,85,61.7,85,60z"/>
			<path fill="#010101" d="M5,35c-1.7,0-3.3,0-5,0c0-1.7,0-3.3,0-5c1.7,0,3.3,0,5,0C5,31.7,5,33.3,5,35z"/>
			<path fill="#010101" d="M5,30c0-1.5,0-3,0-4.5c0.1-0.1,0.2-0.3,0.3-0.4C5.4,25.1,5.6,25,5.7,25c9.8,0,19.5,0,29.3,0
				c0,1.6,0,3.2,0,5C24.8,30,14.9,30,5,30z"/>
			<path fill="#010101" d="M35,25c0-1.6,0-3.2,0-5c3.5,0,6.8,0,10,0c0,1.6,0,3.2,0,5C41.5,25,38.2,25,35,25z"/>
			<path fill="#010101" d="M45,20c0-1.6,0-3.2,0-5c3.5,0,6.8,0,10,0c0,1.6,0,3.2,0,5C51.5,20,48.2,20,45,20z"/>
			<path fill="#010101" d="M60,10c0-1.6,0-3.2,0-5c3.5,0,6.8,0,10,0c0,1.6,0,3.2,0,5C66.5,10,63.2,10,60,10z"/>
			<path fill="#010101" d="M55,15c0-1.6,0-3.2,0-5c1.8,0,3.4,0,5,0c0,1.6,0,3.2,0,5C58.2,15,56.6,15,55,15z"/>
			<path fill="#010101" d="M75,80c1.5,0,3,0,4.5,0c0.1,0.1,0.2,0.2,0.3,0.3c0.1,0.1,0.2,0.3,0.2,0.4c0,6.3,0,12.6,0,19.2
				c-1.8,0-3.4,0-5,0C75,93.3,75,86.7,75,80z"/>
			<path fill="#010101" d="M85,65c0,1.6,0,3.2,0,4.9c-1.7,0-3.1,0-4.9,0c0,1.7,0,3.2,0,5.1c-1.9,0-3.5,0-5.1,0c0-3.3,0-6.7,0-10
				C78.3,65,81.7,65,85,65z"/>
			<path fill="#010101" d="M75,100c0,5,0,10,0,15c-1.7,0-3.3,0-5,0c0-4.9,0-9.8,0-15C71.8,100,73.4,100,75,100z"/>
			<path fill="#010101" d="M80,120c1.5,0,3,0,4.8,0c0.1,1.5,0.1,3.1,0.2,5c-1.8,0-3.4,0-5,0C80,123.3,80,121.7,80,120z"/>
			<path fill="#010101" d="M75,115c1.6,0,3.2,0,5,0c0,1.8,0,3.4,0,5c-1.6,0-3.2,0-5,0C75,118.2,75,116.6,75,115z"/>
			<path fill="#010101" d="M75,75c0,1.7,0,3.3,0,5c-1.6,0-3.2,0-5,0c0.1-1.9,0.2-3.5,0.2-5C72,75,73.5,75,75,75z"/>
			<path fill="#010101" d="M75,25c0,4.9,0,9.8,0,15c-1.8,0-3.4,0-5,0c0-4.9,0-9.8,0-15C71.8,25,73.4,25,75,25z"/>
			<path fill="#010101" d="M80,15c0,3.2,0,6.5,0,10c-1.8,0-3.4,0-5,0c0-3.3,0-6.7,0-10C76.7,15,78.3,15,80,15z"/>
			<path fill="#010101" d="M80,5c1.5,0,3,0,4.8,0C84.9,6.6,85,8.2,85,9.8c0,1.6,0,3.3,0,5.2c-1.8,0-3.4,0-5,0c0-1.7,0-3.3,0-5
				S80,6.7,80,5z"/>
			<path fill="#010101" d="M70,40c0,1.7,0,3.3,0,5c-1.6,0-3.2,0-5,0c0.1-1.9,0.2-3.5,0.2-5C67,40,68.5,40,70,40z"/>
			<path fill="#010101" d="M70,45c1.6,0,3.2,0,5,0c0,1.8,0,3.4,0,5c-1.6,0-3.2,0-5,0C70,48.2,70,46.6,70,45z"/>
			<path fill="#010101" d="M75,50c1.6,0,3.2,0,5,0c0,1.8,0,3.4,0,5c-1.6,0-3.2,0-5,0C75,53.2,75,51.6,75,50z"/>
			<path fill="#010101" d="M80,55c1.6,0,3.2,0,5,0c0,1.8,0,3.4,0,5c-1.6,0-3.2,0-5,0C80,58.2,80,56.6,80,55z"/>
			<path fill="#010101" d="M25.1,50.1C25,48.3,25,46.7,25,45c4.9,0,9.8,0,15.1,0c0,1.8,0,3.4,0,5.1c5.1,0,9.9,0,14.9,0
				c0,1.7,0,3.3,0,4.9c3.5,0.3,6.8-0.2,10,0.3c0,1.8,0,3.3,0,4.8c0,1.6,0,3.2,0,5c1.8,0,3.4,0,5,0c0,1.6,0,3.2,0,5.2
				c-10.2,0-20.1,0-30.1,0c0,1.8,0,3.2,0,4.6c-5.1,0-10,0-15,0c0-1.7,0-3.2,0-4.6c-3.4-0.3-6.7,0.2-9.8-0.3c0-1.8,0-3.3,0-4.8
				c1.6,0,3.2,0,5,0c-0.1-1.9-0.2-3.5-0.2-5c-1.8,0-3.3,0-4.8,0c0-1.6,0-3.2,0-4.9c1.7,0,3.1,0,4.9,0c0-1.7,0-3.2,0-5.1
				C21.8,50,23.4,50,25.1,50.1c0.1,3.2,0.1,6.4,0.1,9.7c1.7,0,3.2,0,4.8,0c0-3.3,0-6.4,0-9.6C28.2,50.2,26.6,50.2,25.1,50.1z
				 M40.2,55.1c0,3.6,0,6.7,0,10c1.7-0.1,3.3-0.2,4.7-0.2c0-3.5,0-6.6,0-9.7C43.2,55.1,41.8,55.1,40.2,55.1z"/>
			<path fill="#010101" d="M5,80c0-4.9,0-9.8,0-15c1.8,0,3.4,0,5,0c0,3.3,0,6.6,0,9.9c1.9,0.1,3.5,0.2,5,0.3c0,1.8,0,3.3,0,4.8
				C11.7,80,8.3,80,5,80z"/>
			<path fill="#010101" d="M25,45c-4.9,0-9.8,0-15,0c0-1.8,0-3.4,0-5c4.9,0,9.8,0,15,0C25,41.8,25,43.4,25,45z"/>
			<path fill="#010101" d="M10,65c0-1.6,0-3.2,0-5c1.8,0,3.4,0,5,0c0,1.7,0,3.3,0,5C13.3,65,11.7,65,10,65z"/>
			<path fill="#010101" d="M10,40c-1.6,0-3.2,0-5,0c0-1.8,0-3.4,0-5c1.7,0,3.3,0,5,0C10,36.7,10,38.3,10,40z"/>
			<path fill="#53B6E7" d="M10,65c1.7,0,3.3,0,5,0c0,1.5,0,3,0,4.8c3.2,0.5,6.5,0,9.8,0.3c0,1.5,0,2.9,0,4.6c5.1,0,9.9,0,15,0
				c0-1.4,0-2.8,0-4.6c10,0,19.9,0,30.1,0c0-1.9,0-3.5,0-5.2c1.7,0,3.3,0,5,0c0,3.3,0,6.7,0,10c-1.5,0-3,0-4.8,0
				c-0.1,1.5-0.1,3.1-0.2,5c1.8,0,3.4,0,5,0c0,6.7,0,13.3,0,20c-1.6,0-3.2,0-5,0c0,5.2,0,10.1,0,15c-1.6,0-3.2,0-5,0
				c0,1.8,0,3.4,0,5c-3.3,0-6.7,0-10,0c0-1.6,0-3.2,0-5c-1.8,0-3.4,0-5,0c0-3.2,0-6.5,0-10c-1.8,0-3.4,0-5,0c0-8.3,0-16.7,0-25.1
				c4.9-0.1,9.8-0.1,14.8-0.1c0-1.7,0-3.2,0-4.9c-2.7,0-5.1,0-7.6,0c-2.4,0.1-4.8-0.3-7.2,0.2c0,1.8,0,3.3,0,4.7
				C41.7,80,38.5,80,34.9,80c0,1.8,0,3.4,0,5c-1.8,0-3.2,0-4.9,0c0,1.7,0,3.3,0,5c0,3.3,0,6.7,0,10c0,1.6,0,3.2,0,5
				c5.2,0,10.1,0,15,0c0,3.2,0,6.5,0,10c1.8,0,3.4,0,5,0c0,1.6,0,3.2,0,5c1.8,0,3.4,0,5,0c0,1.7,0,3.3,0,5c-16.7,0-33.3,0-50,0
				c0-1.7,0-3.3,0-5c1.6,0,3.2,0,5,0c0-8.6,0-16.8,0-25c2,0,3.5,0,5,0c0,3.2,0,6.5,0,10c1.8,0,3.4,0,5,0c0,1.6,0,3.2,0,5
				c1.8,0,3.4,0,5,0c0,1.6,0,3.2,0,5c1.8,0,3.4,0,5.1,0.1c0.1,1.5,0.1,3.2,0.1,4.7c3.4,0,6.6,0,9.7,0c0-1.7,0-3.1,0-4.7
				c-3.4,0-6.6,0-9.8-0.1c-0.1-1.7-0.1-3.2-0.1-5.1c-1.8,0-3.4,0-5,0c0-1.6,0-3.2,0-5c-1.8,0-3.4,0-5,0c0-3.2,0-6.5,0-10
				c-1.8,0-3.4,0-5,0c0-1.7,0-3.3,0-5c1.6,0,3.2,0,5,0c0-2,0-3.6,0-5.2c0-1.6-0.1-3.2-0.2-4.8c-1.8,0-3.3,0-4.8,0c0-1.5,0-3,0-4.8
				c-1.5-0.1-3.1-0.2-5-0.3C10,71.6,10,68.3,10,65z"/>
			<path fill="#010101" d="M15,95c-1.5,0-3,0-5,0c0,8.2,0,16.4,0,25c-1.7,0-3.4,0-5,0c0-10,0-20,0-30c3.3,0,6.7,0,10,0
				C15,91.7,15,93.3,15,95z"/>
			<path fill="#53B6E7" d="M75,115c0,1.6,0,3.2,0,5c1.8,0,3.4,0,5,0c0,1.7,0,3.3,0,5c-5,0-10,0-15,0c0-1.7,0-3.3,0-5
				c1.6,0,3.2,0,5,0c0-1.8,0-3.4,0-5C71.7,115,73.3,115,75,115z"/>
			<path fill="#F7BA19" d="M10,35c-1.7,0-3.3,0-5,0c0-1.7,0-3.3,0-5c9.9,0,19.8,0,30,0c0-1.8,0-3.4,0-5c3.2,0,6.5,0,10,0
				c0-1.8,0-3.4,0-5c3.2,0,6.5,0,10,0c0-1.8,0-3.4,0-5c1.6,0,3.2,0,5,0c0-1.8,0-3.4,0-5c3.2,0,6.5,0,10,0c0-1.8,0-3.4,0-5
				c3.3,0,6.7,0,10,0c0,1.7,0,3.3,0,5c-1.6,0-3.2,0-5,0c0,1.8,0,3.4,0,5c-1.6,0-3.2,0-5,0c0,1.8,0,3.2,0,5c-1.7,0-3.3,0-5.1,0
				c0,1.8,0,3.3,0,5c-3.4,0-6.7,0-10,0c0,1.8,0,3.3,0,5c-3.4,0-6.7,0-9.7,0c0,1.8,0,3.3,0,4.9c1.6,0,3.1,0,4.9,0c0,1.7,0,3.3,0,5
				c3.5,0,6.6,0,9.7,0c0,1.7,0,3.3,0,4.8c-5,0-9.8,0-14.7,0c-0.1-1.7-0.2-3.3-0.2-5c-5.1,0-9.9,0-14.7,0c-0.1-1.7-0.2-3.3-0.3-4.9
				C23,35,16.5,35,10,35z"/>
			<path fill="#010101" d="M65,120c0,1.7,0,3.3,0,5c-3.3,0-6.7,0-10,0c0-1.7,0-3.3,0-5C58.3,120,61.7,120,65,120z"/>
			<path fill="#F7BA19" d="M15,90c-3.3,0-6.7,0-10,0c0-3.3,0-6.7,0-10c3.3,0,6.7,0,10,0C15,83.3,15,86.7,15,90z"/>
			<path fill="#AC802D" d="M10,35c6.5,0,13,0,19.8,0c0.1,1.5,0.2,3.1,0.3,4.9c4.8,0,9.6,0,14.7,0c0.1,1.7,0.2,3.3,0.2,5
				c4.9,0,9.7,0,14.7,0c0-1.5,0-3.1,0-4.8c-3.2,0-6.3,0-9.7,0c0-1.7,0-3.3,0-5c-1.8,0-3.3,0-4.9,0c0-1.6,0-3.1,0-4.9
				c3.1,0,6.3,0,9.7,0c0-1.8,0-3.2,0-5c3.4,0,6.6,0,10,0c0-1.8,0-3.2,0-5c1.7,0,3.3,0,5.1,0c0-1.8,0-3.3,0-5c1.8,0,3.4,0,5,0
				c0,3.3,0,6.7,0,10c-1.6,0-3.2,0-5,0c0,5.2,0,10.1,0,15c-1.5,0-3,0-4.8,0c-0.1,1.5-0.1,3.1-0.2,5c1.8,0,3.4,0,5,0c0,1.6,0,3.2,0,5
				c1.8,0,3.4,0,5,0c0,1.6,0,3.2,0,5c1.8,0,3.4,0,5,0c0,1.6,0,3.2,0,5c1.8,0,3.4,0,5,0c0,1.7,0,3.3,0,5c-3.3,0-6.7,0-10,0
				c0-1.6,0-3.2,0-5c-1.8,0-3.4,0-5,0c-1.7,0-3.3,0-5,0c0-1.5,0-3,0-4.8c-3.2-0.5-6.4,0-10-0.3c0-1.6,0-3.2,0-4.9
				c-5.1,0-9.8,0-14.9,0c0-1.7,0-3.3,0-5.1c-5.3,0-10.2,0-15.1,0c0-1.6,0-3.2,0-5c-5.2,0-10.1,0-15,0C10,38.3,10,36.7,10,35z"/>
			<path fill="#AC802D" d="M75,15c0-1.6,0-3.2,0-5c1.8,0,3.4,0,5,0c0,1.7,0,3.3,0,5C78.3,15,76.7,15,75,15z"/>
			<path fill="#F7BA19" d="M25.1,50.2c1.5,0,3.1,0,4.8,0c0,3.2,0,6.3,0,9.6c-1.5,0-3.1,0-4.8,0C25.1,56.5,25.1,53.3,25.1,50.2z"/>
			<path fill="#F7BA19" d="M40.2,55.1c1.6,0,3,0,4.7,0c0,3.2,0,6.3,0,9.7c-1.4,0.1-2.9,0.1-4.7,0.2C40.2,61.8,40.2,58.7,40.2,55.1z"
				/>
			<path fill="#53B6E7" d="M15,65c0-1.7,0-3.3,0-5c1.5,0,3,0,4.8,0c0.1,1.5,0.1,3.1,0.2,5C18.2,65,16.6,65,15,65z"/>
			<path fill="#53B6E7" d="M65,60c1.7,0,3.3,0,5,0c0,1.7,0,3.3,0,5c-1.6,0-3.2,0-5,0C65,63.2,65,61.6,65,60z"/>
			<path fill="#010101" d="M45,80c0,8.3,0,16.7,0,25c-4.9,0-9.8,0-15,0c0-1.8,0-3.4,0-5c3.3,0,6.6,0,10,0c-0.2-3.6,0.1-6.8-0.2-10
				c-3.5,0-6.7,0-9.9,0c0-1.6,0-3.2,0-5c1.7,0,3.2,0,4.9,0c0-1.7,0-3.3,0-5C38.5,80,41.7,80,45,80z"/>
			<path fill="#F7BA19" d="M30,90c3.2,0,6.3,0,9.9,0c0.3,3.2,0,6.4,0.2,10c-3.5,0-6.8,0-10,0C30,96.7,30,93.3,30,90z"/>
			<path fill="#010101" d="M45,79.9c0-1.4,0-2.8,0-4.7c2.3-0.5,4.8-0.1,7.2-0.2c2.5-0.1,4.9,0,7.6,0c0,1.6,0,3.2,0,4.9
				C54.8,79.9,49.9,79.9,45,79.9z"/>
			<path fill="#010101" d="M15,90c0-3.3,0-6.7,0-10c1.5,0,3,0,4.8,0c0.1,1.6,0.1,3.2,0.2,4.8c0,1.6,0,3.3,0,5.2
				C18.2,90,16.6,90,15,90z"/>
			<path fill="#010101" d="M15,95c1.6,0,3.2,0,5,0c0,3.5,0,6.8,0,10c-1.6,0-3.2,0-5,0C15,101.5,15,98.2,15,95z"/>
			<path fill="#010101" d="M45,105c1.6,0,3.2,0,5,0c0,3.5,0,6.8,0,10c-1.6,0-3.2,0-5,0C45,111.5,45,108.2,45,105z"/>
			<path fill="#010101" d="M30.2,115.1c3.1,0,6.4,0,9.7,0c0,1.6,0,3,0,4.7c-3.2,0-6.4,0-9.7,0C30.2,118.2,30.2,116.6,30.2,115.1z"/>
			<path fill="#010101" d="M70,115c0,1.6,0,3.2,0,5c-1.8,0-3.4,0-5,0c0-1.6,0-3.2,0-5C66.8,115,68.4,115,70,115z"/>
			<path fill="#010101" d="M55,120c-1.6,0-3.2,0-5,0c0-1.8,0-3.4,0-5c1.6,0,3.2,0,5,0C55,116.8,55,118.4,55,120z"/>
			<path fill="#010101" d="M25,110c1.6,0,3.2,0,5,0c0,1.8,0,3.4,0,5c-1.6,0-3.2,0-5,0C25,113.2,25,111.6,25,110z"/>
			<path fill="#010101" d="M25,110c-1.6,0-3.2,0-5,0c0-1.8,0-3.4,0-5c1.6,0,3.2,0,5,0C25,106.8,25,108.4,25,110z"/>
			<path fill="#010101" d="M70,65c0-1.7,0-3.3,0-5c1.6,0,3.2,0,5,0c0,1.8,0,3.4,0,5C73.3,65,71.7,65,70,65z"/>
		</g>
	</g>
</g>
</svg>
