<?xml version="1.0" encoding="utf-8"?>
<!-- Generator: Adobe Illustrator 17.1.0, SVG Export Plug-In . SVG Version: 6.00 Build 0)  -->
<!DOCTYPE svg PUBLIC "-//W3C//DTD SVG 1.1//EN" "http://www.w3.org/Graphics/SVG/1.1/DTD/svg11.dtd">
<svg version="1.1" id="Layer_1" xmlns="http://www.w3.org/2000/svg" xmlns:xlink="http://www.w3.org/1999/xlink" x="0px" y="0px"
	 viewBox="0 0 90 125" enable-background="new 0 0 90 125" xml:space="preserve">
<g id="_x38_hoHqv_1_">
	<g>
		<g>
			<path fill="#010101" d="M65,0c0,1.7,0,3.3,0,5C53.3,5,41.7,5,30,5c0-1.7,0-3.3,0-5C41.7,0,53.3,0,65,0z"/>
			<path fill="#010101" d="M60,120c0,1.7,0,3.3,0,5c-10,0-20,0-30,0c0-1.7,0-3.3,0-5C40,120,50,120,60,120z"/>
			<path fill="#010101" d="M0,50c1.7,0,3.3,0,5,0c0,1.7,0,3.3,0,5c0,3.3,0,6.7,0,10c0,1.7,0,3.3,0,5c-1.7,0-3.3,0-5,0
				C0,63.3,0,56.7,0,50z"/>
			<path fill="#010101" d="M85,60c1.7,0,3.3,0,5,0c0,6.7,0,13.3,0,20c-1.7,0-3.3,0-5,0c0-1.7,0-3.3,0-5C85,70,85,65,85,60z"/>
			<path fill="#010101" d="M25,85c-1.5,0-3,0-4.8,0c-0.1-1.5-0.1-3.1-0.2-4.7c0-1.6,0-3.3,0-5.2c-4.9,0-9.8,0-15,0
				c0-1.9,0-3.5,0-5.1c5,0,10,0,15,0c1.6,0,3.2,0,5,0C25,75.2,25,80.1,25,85z"/>
			<path fill="#010101" d="M25,90c0-1.7,0-3.3,0-5c5,0,10,0,15,0c1.6,0,3.2,0,5,0c0,1.8,0,3.4,0,5c-1.6,0-3.2,0-4.9,0
				c-0.2,3.6,0.2,6.8-0.2,9.8c-1.8,0-3.3,0-4.7,0c-0.4-3.4,0.2-6.7-0.4-9.8C31.3,90,28.2,90,25,90z"/>
			<path fill="#010101" d="M25,100c-1.5,0-3,0-4.8,0c-0.1-1.6-0.1-3.2-0.2-4.8c0-1.6,0-3.3,0-5.2c1.8,0,3.4,0,5,0
				C25,93.3,25,96.7,25,100z"/>
			<path fill="#010101" d="M30,110c-1.6,0-3.2,0-5,0c0-3.5,0-6.8,0-10c1.6,0,3.2,0,5,0C30,103.5,30,106.8,30,110z"/>
			<path fill="#010101" d="M30,115c0-1.7,0-3.3,0-5c1.6,0,3.2,0,5,0c-0.1,1.9-0.2,3.5-0.2,5C33,115,31.5,115,30,115z"/>
			<path fill="#010101" d="M30,120c-1.5,0-3,0-4.8,0c-0.1-1.5-0.1-3.1-0.2-5c1.8,0,3.4,0,5,0C30,116.7,30,118.3,30,120z"/>
			<path fill="#010101" d="M65,105c0,4.9,0,9.8,0,15c-1.8,0-3.4,0-5,0c0-4.9,0-9.8,0-15C61.8,105,63.4,105,65,105z"/>
			<path fill="#010101" d="M80,85c0,1.6,0,3.2,0,4.9c-1.7,0-3.1,0-4.9,0c0,1.7,0,3.2,0,5.1c-1.9,0-3.5,0-5.1,0c0-1.7,0-3.3,0-5
				c0-1.6,0-3.2,0-5c1.8,0,3.4,0,5,0C76.7,85,78.3,85,80,85z"/>
			<path fill="#010101" d="M70,95c0,3.2,0,6.5,0,10c-1.8,0-3.4,0-5,0c0-3.2,0-6.5,0-10C66.8,95,68.4,95,70,95z"/>
			<path fill="#010101" d="M85,80c0,1.6,0,3.2,0,5c-1.8,0-3.4,0-5,0c0-1.7,0-3.3,0-5C81.7,80,83.3,80,85,80z"/>
			<path fill="#010101" d="M5,50c0-1.5,0-3,0-4.8c3.2-0.5,6.5,0,10-0.3c0-1.6,0-3.2,0-4.9c1.6,0,3.2,0,4.8,0c0.1,1.9,0.2,3.5,0.3,5
				c1.8,0,3.3,0,4.8,0c0,1.7,0,3.3,0,5c-1.7,0-3.3,0-5,0s-3.3,0-5,0C11.7,50,8.3,50,5,50z"/>
			<path fill="#010101" d="M15,40c-1.5,0-3,0-4.5,0c-0.1-0.1-0.2-0.2-0.3-0.3c-0.1-0.1-0.2-0.3-0.2-0.4c0-6.3,0-12.6,0-19.2
				c1.8,0,3.4,0,5,0C15,26.7,15,33.3,15,40z"/>
			<path fill="#010101" d="M20,15c0-1.6,0-3.2,0-5c1.8,0,3.4,0,5,0c0,1.6,0,3.2,0,5C23.2,15,21.6,15,20,15z"/>
			<path fill="#010101" d="M25,10c0-1.6,0-3.2,0-5c1.8,0,3.4,0,5,0c0,1.6,0,3.2,0,5C28.2,10,26.6,10,25,10z"/>
			<path fill="#010101" d="M15,20c0-1.6,0-3.2,0-5c1.8,0,3.4,0,5,0c0,1.6,0,3.2,0,5C18.2,20,16.6,20,15,20z"/>
			<path fill="#010101" d="M75,20c1.5,0,3,0,4.9,0c0.1,5.9,0,11.7,0.1,17.6c0,5.8,0,11.6,0,17.4c-1.7,0-3.3,0-5,0c0-1.7,0-3.3,0-5
				C75,40,75,30,75,20z"/>
			<path fill="#010101" d="M70,10c1.6,0,3.2,0,5,0c0,3.5,0,6.8,0,10c-1.6,0-3.2,0-5,0C70,16.5,70,13.2,70,10z"/>
			<path fill="#010101" d="M65,5c1.6,0,3.2,0,5,0c0,1.8,0,3.4,0,5c-1.6,0-3.2,0-5,0C65,8.2,65,6.6,65,5z"/>
			<path fill="#010101" d="M80,55c1.6,0,3.2,0,5,0c0,1.8,0,3.4,0,5c-1.6,0-3.2,0-5,0C80,58.2,80,56.6,80,55z"/>
			<path fill="#AC802D" d="M65,5c0,1.6,0,3.2,0,5c1.8,0,3.4,0,5,0c0,3.2,0,6.5,0,10c1.8,0,3.4,0,5,0c0,10,0,20,0,30
				c-1.6,0-3.2,0-5,0c0,1.8,0,3.4,0,5c-1.6,0-3.2,0-5,0c0,1.8,0,3.4,0,5c-3.3,0-6.7,0-10,0c0-1.6,0-3.2,0-5c-1.8,0-3.4,0-5,0
				c0-1.6,0-3.2,0-4.9c-1.9-0.1-3.4-0.2-5.1-0.3c0-5.1,0-9.8,0-14.9c-1.7,0-3.3,0-4.9,0c0-1.6,0-3.2,0-5c-3.5,0-6.8,0-10,0
				c0-1.6,0-3.2,0-5c-1.9,0.1-3.5,0.2-5,0.2c0,1.8,0,3.3,0,4.8c0,1.7,0,3.3,0,5s0,3.3,0,5s0,3.3,0,5c-1.5,0-3,0-4.8,0
				c-0.1-1.5-0.2-3.1-0.3-5c-1.6,0-3.2,0-4.8,0c0-6.7,0-13.3,0-20c1.6,0,3.2,0,5,0c0-1.8,0-3.4,0-5c1.6,0,3.2,0,5,0c0-1.8,0-3.4,0-5
				c1.6,0,3.2,0,5,0c0-1.8,0-3.4,0-5C41.7,5,53.3,5,65,5z M50.1,34.8c6.9,0,13.3,0,19.7,0c0-1.7,0-3.3,0-4.7c-6.7,0-13.1,0-19.7,0
				C50.1,31.8,50.1,33.2,50.1,34.8z"/>
			<path fill="#53B6E7" d="M70,95c-1.6,0-3.2,0-5,0c0,3.5,0,6.8,0,10c-1.6,0-3.2,0-5,0c0,5.2,0,10.1,0,15c-10,0-20,0-30,0
				c0-1.7,0-3.3,0-5c1.5,0,3,0,4.8,0c0.1-1.5,0.1-3.1,0.2-5c-1.8,0-3.4,0-5,0c0-3.2,0-6.5,0-10c-1.8,0-3.4,0-5,0c0-3.3,0-6.7,0-10
				c3.2,0,6.3,0,9.8,0c0.6,3.2,0,6.4,0.4,9.8c1.5,0,2.9,0,4.7,0c0.4-3,0-6.3,0.2-9.8c1.7,0,3.3,0,4.9,0c1.7,0,3.3,0,5,0
				c3.3,0,6.7,0,10,0c3.3,0,6.7,0,10,0C70,91.7,70,93.3,70,95z"/>
			<path fill="#AC802D" d="M20,70c-5,0-10,0-15,0c0-1.7,0-3.3,0-5c3.3,0,6.5,0,10,0c0-3.5,0-6.7,0-10c1.7,0,3.3,0,5,0
				C20,60,20,65,20,70z"/>
			<path fill="#F7BA19" d="M15,55c0,3.3,0,6.5,0,10c-3.5,0-6.7,0-10,0c0-3.3,0-6.7,0-10C8.3,55,11.7,55,15,55z"/>
			<path fill="#AC802D" d="M15,55c-3.3,0-6.7,0-10,0c0-1.7,0-3.3,0-5c3.3,0,6.7,0,10,0C15,51.7,15,53.3,15,55z"/>
			<path fill="#F7BA19" d="M80,55c0,1.6,0,3.2,0,5c1.8,0,3.4,0,5,0c0,5,0,10,0,15c-1.7,0-3.3,0-5,0c0-1.6,0-3.2,0-5
				c-1.8,0-3.4,0-5,0c0-1.6,0-3.2,0-5c-3.5,0-6.8,0-10,0c0-1.7,0-3.3,0-5c1.6,0,3.2,0,5,0c0-1.8,0-3.4,0-5c1.7,0,3.3,0,5,0
				S78.3,55,80,55z"/>
			<path fill="#AC802D" d="M80,75c1.7,0,3.3,0,5,0c0,1.7,0,3.3,0,5c-1.7,0-3.3,0-5,0C80,78.3,80,76.7,80,75z"/>
			<path fill="#53B6E7" d="M20,70c0-5,0-10,0-15c0-1.7,0-3.3,0-5c1.7,0,3.3,0,5,0c0,4.9,0,9.8,0,15c1.8,0,3.4,0,5,0c0,1.6,0,3.2,0,5
				c1.8,0,3.4,0,5,0c0,1.6,0,3.2,0,5c1.8,0,3.4,0,5,0c0,3.3,0,6.7,0,10c-5,0-10,0-15,0c0-4.9,0-9.8,0-15C23.2,70,21.6,70,20,70z"/>
			<path fill="#F7BA19" d="M40,85c0-3.3,0-6.7,0-10c1.6,0,3.2,0,5,0c0-1.8,0-3.4,0-5c1.7,0,3.3,0,5,0c0,1.6,0,3.2,0,4.8
				c1.9,0.1,3.5,0.2,4.8,0.3c0,3.5,0,6.6,0,9.7c-1.7,0.1-3.3,0.2-4.8,0.3c0,1.8,0,3.3,0,4.8c-1.7,0-3.3,0-5,0c0-1.6,0-3.2,0-5
				C43.2,85,41.6,85,40,85z"/>
			<path fill="#F7BA19" d="M80,75c0,1.7,0,3.3,0,5c-1.6,0-3.2,0-5,0c0,1.8,0,3.4,0,5c-1.6,0-3.2,0-5,0c0,1.8,0,3.4,0,5
				c-3.3,0-6.7,0-10,0c0-1.6,0-3.2,0-4.8c1.9-0.1,3.5-0.2,4.8-0.3c0-3.5,0-6.6,0-9.7c-1.7-0.1-3.3-0.2-4.8-0.3c0-1.8,0-3.3,0-4.8
				c1.7,0,3.3,0,5,0c3.3,0,6.7,0,10,0c0,1.6,0,3.2,0,5C76.8,75,78.4,75,80,75z"/>
			<path fill="#AC802D" d="M75,85c0-1.6,0-3.2,0-5c1.8,0,3.4,0,5,0c0,1.7,0,3.3,0,5C78.3,85,76.7,85,75,85z"/>
			<path fill="#F7BA19" d="M30,65c-1.6,0-3.2,0-5,0c0-5.2,0-10.1,0-15c0-1.7,0-3.3,0-5s0-3.3,0-5c1.6,0,3.2,0,5.1,0
				c0,3.5,0,6.7,0,9.9c1.8,0,3.2,0,4.9,0c0-3.3,0-6.6,0-9.7c1.9-0.1,3.4-0.2,4.9-0.4c0-1.8,0-3.3,0-4.8c1.6,0,3.2,0,4.9,0
				c0,5,0,9.8,0,14.9c1.7,0.1,3.2,0.2,5.1,0.3c0,1.7,0,3.3,0,4.9c-1.6,0-3.2,0-5,0c0,1.8,0,3.4,0,5c-1.6,0-3.2,0-5,0
				c0,1.8,0,3.4,0,5C36.7,65,33.3,65,30,65z"/>
			<path fill="#F7BA19" d="M20,50c0,1.7,0,3.3,0,5c-1.7,0-3.3,0-5,0c0-1.7,0-3.3,0-5C16.7,50,18.3,50,20,50z"/>
			<path fill="#53B6E7" d="M75,55c-1.7,0-3.3,0-5,0c0-1.6,0-3.2,0-5c1.8,0,3.4,0,5,0C75,51.7,75,53.3,75,55z"/>
			<path fill="#53B6E7" d="M65,70c-1.7,0-3.3,0-5,0c-3.3,0-6.7,0-10,0c-1.7,0-3.3,0-5,0c0-1.7,0-3.3,0-5c1.6,0,3.2,0,5,0
				c0-1.8,0-3.4,0-5c1.7,0,3.3,0,5,0c3.3,0,6.7,0,10,0c0,1.7,0,3.3,0,5S65,68.3,65,70z"/>
			<path fill="#010101" d="M40,35c0,1.5,0,3,0,4.8c-1.5,0.1-3.1,0.2-4.9,0.4c0,3.2,0,6.4,0,9.7c-1.7,0-3.2,0-4.9,0
				c0-3.1,0-6.4,0-9.9c-1.9,0-3.5,0-5.1,0c0-1.7,0-3.3,0-5C30,35,35,35,40,35z"/>
			<path fill="#53B6E7" d="M50.1,34.8c0-1.6,0-3.1,0-4.7c6.5,0,13,0,19.7,0c0,1.4,0,3,0,4.7C63.4,34.8,57,34.8,50.1,34.8z"/>
			<path fill="#53B6E7" d="M40,35c-5,0-10,0-15,0c0-1.7,0-3.3,0-5c1.7,0,3.3,0,5,0c3.2,0,6.5,0,10,0C40,31.8,40,33.4,40,35z"/>
			<path fill="#F7BA19" d="M30,30c-1.7,0-3.3,0-5,0c0-1.5,0-3,0-4.8c1.5-0.1,3.1-0.1,5-0.2C30,26.8,30,28.4,30,30z"/>
			<path fill="#53B6E7" d="M70,55c0,1.6,0,3.2,0,5c-1.8,0-3.4,0-5,0c0-1.6,0-3.2,0-5C66.8,55,68.4,55,70,55z"/>
			<path fill="#F7BA19" d="M55,60c-1.7,0-3.3,0-5,0c0-1.7,0-3.3,0-5c1.6,0,3.2,0,5,0C55,56.8,55,58.4,55,60z"/>
			<path fill="#AC802D" d="M50,70c3.3,0,6.7,0,10,0c0,1.5,0,3,0,4.8c1.5,0.1,3.1,0.2,4.8,0.3c0,3.1,0,6.2,0,9.7
				c-1.4,0.1-2.9,0.2-4.8,0.3c0,1.6,0,3.2,0,4.8c-3.3,0-6.7,0-10,0c0-1.5,0-3,0-4.8c1.5-0.1,3.1-0.2,4.8-0.3c0-3.1,0-6.2,0-9.7
				c-1.4-0.1-2.9-0.2-4.8-0.3C50,73.2,50,71.6,50,70z"/>
			<path fill="#AC802D" d="M65,70c0-1.7,0-3.3,0-5c3.2,0,6.5,0,10,0c0,1.8,0,3.4,0,5C71.7,70,68.3,70,65,70z"/>
			<path fill="#AC802D" d="M80,75c-1.6,0-3.2,0-5,0c0-1.8,0-3.4,0-5c1.6,0,3.2,0,5,0C80,71.8,80,73.4,80,75z"/>
			<path fill="#010101" d="M30,65c3.3,0,6.7,0,10,0c0,1.7,0,3.3,0,5c-1.7,0-3.3,0-5,0c-1.6,0-3.2,0-5,0C30,68.2,30,66.6,30,65z"/>
			<path fill="#F7BA19" d="M35,70c1.7,0,3.3,0,5,0c0,1.7,0,3.3,0,5c-1.6,0-3.2,0-5,0C35,73.2,35,71.6,35,70z"/>
			<path fill="#53B6E7" d="M40,75c0-1.7,0-3.3,0-5c1.7,0,3.3,0,5,0c0,1.6,0,3.2,0,5C43.2,75,41.6,75,40,75z"/>
			<path fill="#010101" d="M40,65c0-1.6,0-3.2,0-5c1.8,0,3.4,0,5,0c0,1.7,0,3.3,0,5C43.3,65,41.7,65,40,65z"/>
			<path fill="#010101" d="M50,55c0,1.7,0,3.3,0,5c-1.7,0-3.3,0-5,0c0-1.6,0-3.2,0-5C46.8,55,48.4,55,50,55z"/>
			<path fill="#F7BA19" d="M40,65c1.7,0,3.3,0,5,0c0,1.7,0,3.3,0,5c-1.7,0-3.3,0-5,0C40,68.3,40,66.7,40,65z"/>
			<path fill="#F7BA19" d="M45,60c1.7,0,3.3,0,5,0c0,1.6,0,3.2,0,5c-1.8,0-3.4,0-5,0C45,63.3,45,61.7,45,60z"/>
		</g>
	</g>
</g>
</svg>
