<svg xmlns="http://www.w3.org/2000/svg" version="1.0" viewBox="0 0 1584 1584"><path fill="#BCBCBC" d="M442 417v25h-50v100h50v-50h50v-50h50v50h50v50h50v-50h50v-50h-50v50h-50v-50h-50v-50H442zm250 0v25h50v-50h-50zm200 0v25h50v100h50v-50h50v50h-50v50h-50v50h100v-50h50V442H992v-50H892zm-150 50v25h50v-50h-50zm100 0v25h50v-50h-50zm-50 75v50h50V492h-50zm-350 25v25h50v50h-50v50h-50v50h50v50h50V642h50v-50h-50v-50h-50zm650 100v25h50v50h50v-50h-50v-50h-50zm0 100v25h50v-50h-50zm-550 50v25h-50v50h50v50h100v-50h50v-50h-50v50h-50V792h-50zm450 0v25h50v50h100v-50h-100v-50h-50zm150 0v25h50v-50h-50zM392 917v25h50v50h-50v100h50V992h100v-50H442v-50h-50zm750 25v50h-100v-50h-50v50h50v50h150V892h-50zm-300 25v25h50v50h-50v50H742V992h-50v150h50v50h100v-50h50v-50h50V992h-50v-50h-50zm-250 50v25h50v-50h-50zm-50 50v25H442v50h100v-50h50v-50h-50zm550 50v25h-50v50h100v-100h-50zm-500 50v25h50v-50h-50zm350 0v25h50v-50h-50z"/><path fill="#F2F2F2" d="M492 467v25h-50v50h50v50h50v-50h50v-50h-50v-50h-50zm50 50v25h-50v-50h50zm150-25v50h50V442h-50zm200-25v25h-50v50h50v50h100v-50h-50V442h-50zm100 50v25h50v-50h-50zm-400 50v25h50v-50h-50zm100 50v25h50v-50h-50zm150 0v25h50v-50h-50zM492 717v25h50v-50h-50zm300 0v25h50v-50h-50zm250 0v25h100v-50h-100zm-150 50v25h50v-50h-50zm-300 75v50h50V792h-50zm250-25v25h50v-50h-50zm-50 100v25h-50v50h50v-50h50v-50h-50zm200 0v25h50v50h100V892h-50v50h-50v-50h-50zm-550 125v50h100v-50h50v-50h-50v50h-50v-50h-50zm350-25v25h-50v50h100v-50h50v-50H792zm-200 100v25h50v-50h-50zm450 0v25h50v-50h-50z"/><path fill="#797979" d="M492 517v25h50v50h50v50h50v-50h-50v-50h-50v-50h-50zm350 50v25h50v-50h-50zm-50 50v25h50v50h50v-50h50v-50h-50v50h-50v-50h-50zM542 717v25h50v-50h-50zm450 0v25h50v-50h-50zm-300 50v25h50v-50h-50zm50 100v25h50v-50h-50zm200 0v25h50v-50h-50zm100 50v25h50v-50h-50zm-250 50v25h50v-50h-50zm-300 50v25h50v-50h-50zm250 0v25h50v-50h-50zm250 50v25h50v-50h-50z"/></svg>