<?xml version="1.0" encoding="utf-8"?>
<!-- Generator: Adobe Illustrator 17.1.0, SVG Export Plug-In . SVG Version: 6.00 Build 0)  -->
<!DOCTYPE svg PUBLIC "-//W3C//DTD SVG 1.1//EN" "http://www.w3.org/Graphics/SVG/1.1/DTD/svg11.dtd">
<svg version="1.1" id="Layer_1" xmlns="http://www.w3.org/2000/svg" xmlns:xlink="http://www.w3.org/1999/xlink" x="0px" y="0px"
	 viewBox="0 0 239 343" enable-background="new 0 0 239 343" xml:space="preserve">
<g>
	<g>
		<path d="M80.5,343c-13.3,0-26.7,0-40,0c0-3.8,0-7.6,0-11.5c-4.4,0-8.6,0-13,0c0-4.4,0-8.7,0-13c-4.6,0-9,0-13.5,0
			c0-4.5,0-9,0-13.5c-4.4,0-8.6,0-12.8,0c0-13.2,0-26.3,0-39.5c4.3,0,8.6,0,12.9,0c0-4.4,0-8.7,0-13c0-0.1,0-0.2-0.1-0.2
			c0-0.1-0.1-0.1-0.3-0.3c-4.1,0-8.3,0-12.6,0c0-13.1,0-26.2,0-39.4c4.3,0,8.6,0,13,0c0-22.2,0-44.3,0-66.5c4.5,0,9,0,13.5,0
			c0-4.4,0-8.6,0-13c8.9,0,17.7,0,26.4,0c0-4.6,0-9,0-13.4c-8.7,0-17.4,0-26,0c-0.1,0-0.2,0-0.2-0.1c-0.1,0-0.1-0.1-0.2-0.2
			c0-4.3,0-8.5,0-12.8c4.3,0,8.6,0,13,0c0-8.8,0-17.5,0-26.1c0-0.1,0-0.2,0.1-0.2c0-0.1,0.1-0.1,0.1-0.1c4.5,0,8.9,0,13.3,0
			c0,8.7,0,17.4,0,26c0,0.1,0,0.2,0.1,0.2c0,0.1,0.1,0.1,0.2,0.2c4.2,0,8.5,0,12.7,0c0,13.2,0,26.3,0,39.5c-4.3,0-8.7,0-13,0
			c-4.5,0-8.9,0-13.5,0c0,4.6,0,9,0,13.5c-4.3,0-8.6,0-12.9,0c0,4.4,0,8.7,0,13c4.3,0,8.5,0,12.9,0c0,4.5,0,9,0,13.5
			c-4.3,0-8.6,0-13,0c0,8.9,0,17.7,0,26.5c0,4.3,0,8.7,0,13c-4.5,0-8.9,0-13.5,0c0,4.5,0,8.8,0,13.1c0,0.1,0,0.2,0.1,0.2
			c0,0.1,0.1,0.1,0.3,0.3c4.3,0,8.7,0,13.2,0c0,4.3,0,8.5,0,12.9c8.9,0,17.7,0,26.5,0c0,4.5,0,9,0,13.5c-4.5,0-8.9,0-13.5,0
			c0,4.3,0,8.5,0,12.6c0,0.1,0,0.2-0.1,0.2c0,0.1-0.1,0.1-0.3,0.3c-8.6,0-17.3,0-26.1,0c0,4.4,0,8.7,0,13c0,0.1,0,0.1,0.1,0.2
			c0,0.1,0.1,0.1,0.3,0.3c4.3,0,8.7,0,13.1,0c0,4.3,0,8.5,0,12.9c4.4,0,8.7,0,13,0c0,4.6,0,9,0,13.5c4.5,0,9,0,13.5,0
			c0,4.4,0,8.6,0,12.8c4.4,0,8.7,0,13,0c0-4.3,0-8.6,0-13c4.5,0,9,0,13.5,0c0-4.6,0-9,0-13.4c4.2,0,8.4,0,12.5,0
			c0.1,0,0.2,0,0.2-0.1c0.1,0,0.1-0.1,0.2-0.2c0-4.2,0-8.5,0-12.7c4.3,0,8.6,0,13,0c0-8.8,0-17.5,0-26.1c0-0.1,0-0.2,0.1-0.2
			c0-0.1,0.1-0.1,0.1-0.1c8.8,0,17.5,0,26.3,0c0,4.2,0,8.4,0,12.5c0,0.1,0,0.2,0.1,0.2c0,0.1,0.1,0.1,0.2,0.2c4.4,0,8.8,0,13.2,0
			c0,4.5,0,8.9,0,13.5c4.4,0,8.7,0,13,0c0,8.8,0,17.6,0,26.5c-4.4,0-8.6,0-12.9,0c0,4.4,0,8.7,0,12.9c13.2,0,26.2,0,39.4,0
			c0-4.3,0-8.6,0-13c4.6,0,9,0,13.5,0c0-4.5,0-9,0-13.5c4.4,0,8.6,0,12.9,0c0-4.2,0-8.4,0-12.5c0-0.1,0-0.2,0.1-0.2
			c0-0.1,0.1-0.1,0.3-0.3c4.3,0,8.7,0,13.1,0c0-4.5,0-8.9,0-13.4c-4.5,0-9,0-13.5,0c0-4.4,0-8.6,0-13c-4.4,0-8.7,0-12.9,0
			c0-8.9,0-17.6,0-26.4c4.4-0.1,8.6,0.1,12.9-0.1c0-4.6,0-9,0-13.4c0-8.8,0-17.6,0-26.5c-4.3,0-8.5,0-12.6,0c-0.1,0-0.2,0-0.2-0.1
			c-0.1,0-0.1-0.1-0.2-0.2c0-4.2,0-8.5,0-12.7c8.8,0,17.6,0,26.4,0c0-8.9,0-17.7,0-26.6c-4.5,0-8.9,0-13.4,0c0-4.4,0-8.7,0-13
			c0-0.1,0-0.2-0.1-0.2c0-0.1-0.1-0.1-0.2-0.2c-4.2,0-8.5,0-12.7,0c-4.5,0-9,0-13.5,0c-4.3,0-8.6,0-13,0c0-4.4,0-8.7,0-13
			c8.8,0,17.6,0,26.6,0c0-4.6,0-9.1,0-13.6c4.4,0,8.6,0,12.9,0c0-4.2,0-8.4,0-12.5c0-0.1,0-0.2-0.1-0.2c0-0.1-0.1-0.1-0.3-0.3
			c-4.1,0-8.3,0-12.6,0c0-4.5,0-8.9,0-13.4c8.8,0,17.7,0,26.5,0c0,4.5,0,8.9,0,13.5c4.4,0,8.7,0,13,0c0,4.3,0,8.7,0,13
			c-4.3,0-8.6,0-12.9,0c-0.3,7.5-0.2,24.4,0.2,26.5c4.2,0,8.5,0,12.7,0c0,17.7,0,35.3,0,53c-4.3,0-8.6,0-12.9,0
			c-0.4,9-0.2,64.3,0.2,66.5c4.2,0,8.5,0,12.7,0c0,13.2,0,26.3,0,39.5c-4.3,0-8.6,0-13.1,0c0,4.6,0,9,0,13.5c-4.5,0-8.9,0-13.5,0
			c0,4.3,0,8.6,0,13c-4.4,0-8.6,0-13,0c0,3.9,0,7.7,0,11.5c-22.2,0-44.3,0-66.5,0c0-17,0-33.9,0-50.9c-4.4,0-8.7,0-13.1,0
			c0,4.3,0,8.6,0,13c-4.5,0-9,0-13.5,0c0,4.6,0,9,0,13.5c-4.4,0-8.6,0-13,0c0,4.4,0,8.6,0,12.9c-4.2,0-8.4,0-12.5,0
			c-0.1,0-0.2,0-0.2,0.1c-0.1,0-0.1,0.1-0.2,0.2C80.5,335.5,80.5,339.3,80.5,343z"/>
		<path d="M27.5,0.5c61.7,0,123.3,0,185,0c0,8.8,0,17.6,0,26.5c8.9,0,17.7,0,26.5,0c0,22,0,44,0,66c-4.3,0-8.7,0-13,0
			c0-4.3,0-8.6,0-13c-4.5,0-8.8,0-13.1,0c-0.1,0-0.1,0-0.2-0.1c-0.1,0-0.1-0.1-0.3-0.3c0-4.3,0-8.7,0-13.1c-4.3,0-8.5,0-12.8,0
			c0-4.4,0-8.7,0-13c8.8,0,17.5,0,26.3,0c0-4.5,0-9,0-13.5c-17.7,0-35.2,0-52.8,0c0-4.4,0-8.6,0-13c8.8,0,17.6,0,26.3,0
			c0-4.4,0-8.7,0-12.9c-35.3,0-70.5,0-105.9,0c0,4.3,0,8.6,0,12.9c-4.4,0-8.6,0-13,0c0-4.4,0-8.6,0-12.9c-4.6,0-9,0-13.4,0
			c0,4.4,0,8.6,0,12.9c-4.5,0-8.7,0-13,0c0-4.3,0-8.6,0-13c-4.5,0-8.8,0-13.1,0c-0.1,0-0.2,0-0.2,0.1c-0.1,0-0.1,0.1-0.2,0.2
			c0,4.2,0,8.5,0,12.7c-4.3,0-8.6,0-12.9,0c0,8.9,0,17.7,0,26.6c4.3,0,8.6,0,12.8,0c0,4.4,0,8.6,0,13c-4.3,0-8.6,0-12.9,0
			c0,13.4,0,26.7,0,40c-4.5,0-8.9,0-13.4,0c0-30.9,0-61.7,0-92.5c4.4,0,8.7,0,13,0c0.1,0,0.2,0,0.2-0.1c0.1,0,0.1-0.1,0.2-0.2
			C27.5,9.3,27.5,4.9,27.5,0.5z"/>
		<path fill="#F43A1C" d="M54,27c4.2,0,8.5,0,13,0c0-4.3,0-8.6,0-12.9c4.5,0,8.9,0,13.4,0c0,4.2,0,8.5,0,12.9c4.4,0,8.6,0,13,0
			c0-4.2,0-8.5,0-12.9c35.4,0,70.6,0,105.9,0c0,4.2,0,8.5,0,12.9c-8.7,0-17.4,0-26.3,0c0,4.4,0,8.6,0,13c17.6,0,35.1,0,52.8,0
			c0,4.5,0,9,0,13.5c-8.7,0-17.5,0-26.3,0c0,4.4,0,8.6,0,13c4.3,0,8.5,0,12.8,0c0,4.5,0,8.9,0,13.1c0.1,0.2,0.2,0.2,0.3,0.3
			c0.1,0,0.1,0.1,0.2,0.1c4.3,0,8.6,0,13.1,0c0,4.4,0,8.7,0,13c-8.8,0-17.6,0-26.5,0c0,4.5,0,8.9,0,13.4c4.2,0,8.5,0,12.6,0
			c0.2,0.1,0.2,0.2,0.3,0.3c0,0.1,0.1,0.1,0.1,0.2c0,4.2,0,8.3,0,12.5c-4.3,0-8.5,0-12.9,0c0,4.5,0,9,0,13.6c-9,0-17.8,0-26.6,0
			c0-8.8,0-17.6,0-26.4c-7.4-0.3-24.4-0.2-26.5,0.2c0,8.7,0,17.5,0,26.2c-4.5,0-8.9,0-13.6,0c0-4.6,0-9,0-13.6c-4.4,0-8.6,0-12.9,0
			c0-8.9,0-17.7,0-26.5c0-4.3,0-8.6,0-12.9c-8.9,0-17.7,0-26.5,0c0,4.3,0,8.5,0,12.9c-4.4,0-8.7,0-13,0c0-4.3,0-8.6,0-13
			c-4.5,0-8.8,0-13.1,0c-0.1,0-0.2,0-0.2,0.1c-0.1,0-0.1,0.1-0.2,0.2c0,4.2,0,8.5,0,12.7c0,4.5,0,9,0,13.5c-4.2,0-8.5,0-12.7,0
			c-0.1-0.1-0.1-0.1-0.2-0.2c0-0.1-0.1-0.1-0.1-0.2c0-8.6,0-17.3,0-26c-4.5,0-8.9,0-13.3,0c0,0,0,0-0.1,0.1c0,0.1-0.1,0.1-0.1,0.2
			c0,8.6,0,17.3,0,26.1c-4.4,0-8.7,0-13,0c0-13.3,0-26.6,0-40c4.3,0,8.6,0,12.9,0c0-4.4,0-8.6,0-13c-4.2,0-8.4,0-12.8,0
			c0-8.9,0-17.6,0-26.6c4.3,0,8.6,0,12.9,0c0,4.3,0,8.6,0,13c4.5,0,8.8,0,13.1,0c0.1,0,0.2,0,0.2-0.1c0.1,0,0.1-0.1,0.2-0.2
			C54,35.5,54,31.2,54,27z"/>
		<path fill="#F43A1C" d="M146.5,278.5c-4.4,0-8.8,0-13.2,0c-0.1-0.1-0.1-0.1-0.2-0.2c0-0.1-0.1-0.1-0.1-0.2c0-4.2,0-8.3,0-12.5
			c-8.8,0-17.5,0-26.3,0c0,0,0,0-0.1,0.1c0,0.1-0.1,0.1-0.1,0.2c0,8.6,0,17.3,0,26.1c-4.4,0-8.7,0-13,0c0-4.5,0-8.9,0-13.5
			c-4.4,0-8.7,0-13,0c0-4.3,0-8.6,0-13c-4.6,0-9,0-13.5,0c0-4.5,0-9,0-13.5c0-4.3,0-8.7,0-13c4.5,0,8.9,0,13.5,0c0-4.6,0-9,0-13.5
			c8.7,0,17.3,0,26,0c0,4.5,0,8.9,0,13.5c4.6,0,9,0,13.5,0c8.8,0,17.7,0,26.5,0c0,4.3,0,8.6,0,12.9c4.3,0,8.6,0,12.9,0
			c0-4.3,0-8.5,0-12.8c-4.4,0-8.6,0-12.9,0c0-4.5,0-9,0-13.5c8.8,0,17.5,0,26.1,0c0.1,0,0.2,0,0.2-0.1c0.1,0,0.1-0.1,0.2-0.2
			c0-4.2,0-8.5,0-12.7c0-4.5,0-9,0-13.5c4.3,0,8.6,0,13,0c0,4.5,0,8.8,0,13.1c0,0.1,0,0.2,0.1,0.2c0,0.1,0.1,0.1,0.3,0.3
			c4.3,0,8.7,0,13.2,0c0,4.2,0,8.4,0,12.5c0,0.1,0,0.2,0.1,0.2c0,0.1,0.1,0.1,0.2,0.2c4.2,0,8.5,0,12.7,0c0,4.4,0,8.8,0,13.4
			c-4.3,0.2-8.6,0-12.9,0.1c0,8.8,0,17.5,0,26.4c4.2,0,8.5,0,12.9,0c0,4.4,0,8.6,0,13c4.5,0,9,0,13.5,0c0,4.6,0,9,0,13.4
			c-4.4,0-8.8,0-13.1,0c-0.2,0.1-0.2,0.2-0.3,0.3c0,0.1-0.1,0.1-0.1,0.2c0,4.2,0,8.3,0,12.5c-4.3,0-8.5,0-12.9,0c0,4.5,0,9,0,13.5
			c-4.6,0-9,0-13.5,0c0,4.4,0,8.7,0,13c-13.2,0-26.3,0-39.4,0c0-4.3,0-8.6,0-12.9c4.3,0,8.5,0,12.9,0c0-8.9,0-17.7,0-26.5
			c0-4.5,0-9,0-13.5c4.5,0,8.9,0,13.5,0c0-4.4,0-8.7,0-13c4.3,0,8.6,0,12.9,0c0-4.5,0-9,0-13.4c-4.3,0-8.5,0-12.8,0
			c0,4.5,0,9,0,13.4c-4.5,0-9,0-13.5,0c0,4.4,0,8.7,0,13C155.2,278.5,150.8,278.5,146.5,278.5z"/>
		<path fill="#EECFB1" d="M120,93c0,8.8,0,17.6,0,26.5c4.3,0,8.6,0,12.9,0c0,4.5,0,9,0,13.6c4.6,0,9.1,0,13.6,0c0,4.3,0,8.7,0,13
			c-4.5,0-8.9,0-13.6,0c0,4.6,0,9,0,13.5c-4.4,0-8.6,0-12.9,0c0,4.4,0,8.7,0,13c-13.1,0-26.3,0-39.5,0c0-4.4,0-8.7,0-13
			c-4.7,0-9.1,0-13.5,0c0-4.5,0-9,0-13.5c0-13.2,0-26.3,0-39.5c4.5,0,8.9,0,13.6,0c0,8.9,0,17.7,0,26.4c4.4,0,8.6,0,13,0
			c0-8.9,0-17.6,0-26.5c4.4,0,8.6,0,12.9,0c0-4.4,0-8.7,0-13c0-0.1,0-0.2,0.1-0.2c0-0.1,0.1-0.1,0.2-0.2C111.2,93,115.6,93,120,93z"
			/>
		<path fill="#F43A1C" d="M67,146c0,4.5,0,9,0,13.5c0,8.8,0,17.6,0,26.6c4.6,0,9.1,0,13.6,0c0,4.4,0,8.6,0,12.8c8.7,0,17.3,0,26,0
			c0-4.3,0-8.6,0-12.9c4.4,0,8.7,0,13,0c0.1,0,0.2,0,0.2-0.1c0.1,0,0.1-0.1,0.2-0.2c0-4.4,0-8.8,0-13.2c4.3,0,8.6,0,13,0
			c0,4.5,0,8.8,0,13.1c0,0.1,0,0.2,0.1,0.2c0,0.1,0.1,0.1,0.2,0.2c4.4,0,8.8,0,13.2,0c0,4.3,0,8.7,0,13c-4.5,0-8.9,0-13.6,0
			c0,4.6,0,9,0,13.5c-4.4,0-8.6,0-12.9,0c0,4.4,0,8.7,0,13c-4.5,0-9,0-13.5,0c0-4.3,0-8.6,0-12.9c-7.6-0.3-23.9-0.2-26,0.2
			c0,4.2,0,8.5,0,12.7c-4.5,0-9,0-13.5,0c0-4.3,0-8.7,0-13c0-4.5,0-8.9,0-13.5c-4.4,0-8.7,0-13,0c-4.5,0-8.9,0-13.5,0
			c0-4.4,0-8.7,0-13c0-4.5,0-8.9,0-13.5c-4.4,0-8.6,0-12.9,0c0-4.3,0-8.6,0-13c4.3,0,8.6,0,12.9,0c4.5,0,8.9,0,13.5,0
			c0-4.6,0-9,0-13.5C58.3,146,62.7,146,67,146z"/>
		<path fill="#F43A1C" d="M146.5,146c0-4.3,0-8.7,0-13c8.8,0,17.7,0,26.5,0c0,4.3,0,8.6,0,13c4.4,0,8.7,0,13,0c0,4.5,0,8.9,0,13.5
			c4.5,0,8.8,0,13.1,0c0.1,0,0.2,0,0.2-0.1c0.1,0,0.1-0.1,0.2-0.2c0-4.4,0-8.8,0-13.2c4.2,0,8.5,0,12.7,0c0.1,0.1,0.1,0.1,0.2,0.2
			c0,0.1,0.1,0.1,0.1,0.2c0,4.3,0,8.6,0,13c4.5,0,8.9,0,13.4,0c0,8.9,0,17.6,0,26.6c-8.8,0-17.6,0-26.4,0c-13.3,0-26.7,0-40,0
			c-4.3,0-8.7,0-13,0c0-8.8,0-17.6,0-26.5c4.4,0,8.7,0,13,0c0-4.5,0-8.9,0-13.5C155.1,146,150.8,146,146.5,146z"/>
		<path fill="#F43A1C" d="M93.5,292c0,4.2,0,8.5,0,12.7c-0.1,0.1-0.1,0.1-0.2,0.2c-0.1,0-0.1,0.1-0.2,0.1c-4.2,0-8.3,0-12.5,0
			c0,4.5,0,8.9,0,13.4c-4.5,0-9,0-13.5,0c0,4.4,0,8.6,0,13c-4.4,0-8.6,0-13,0c0-4.2,0-8.4,0-12.8c-4.5,0-9,0-13.5,0
			c0-4.6,0-9,0-13.5c-4.4,0-8.6,0-13,0c0-4.4,0-8.6,0-12.9c-4.5,0-8.9,0-13.1,0c-0.2-0.1-0.2-0.2-0.3-0.3c0-0.1-0.1-0.1-0.1-0.2
			c0-4.3,0-8.6,0-13c8.8,0,17.5,0,26.1,0c0.2-0.1,0.2-0.2,0.3-0.3c0-0.1,0.1-0.1,0.1-0.2c0-4.2,0-8.3,0-12.6c4.6,0,9,0,13.5,0
			c4.3,0,8.7,0,13,0c0,4.3,0,8.6,0,13c4.6,0,9,0,13.5,0c0,4.5,0,8.9,0,13.5C84.9,292,89.2,292,93.5,292z"/>
		<path fill="#EECFB1" d="M159.5,186c13.3,0,26.7,0,40,0c0,4.2,0,8.5,0,12.7c0.1,0.1,0.1,0.1,0.2,0.2c0.1,0,0.1,0.1,0.2,0.1
			c4.2,0,8.3,0,12.6,0c0,8.9,0,17.7,0,26.5c-4.2,0-8.5,0-12.7,0c-0.1-0.1-0.1-0.1-0.2-0.2c0-0.1-0.1-0.1-0.1-0.2c0-4.2,0-8.3,0-12.5
			c-4.5,0-8.9,0-13.2,0c-0.1-0.1-0.2-0.2-0.3-0.3c0-0.1-0.1-0.1-0.1-0.2c0-4.3,0-8.6,0-13.1c-4.4,0-8.7,0-13,0c-4.5,0-9,0-13.5,0
			C159.5,194.7,159.5,190.3,159.5,186z"/>
		<path fill="#EECFB1" d="M54,252c-8.8,0-17.6,0-26.5,0c0-4.4,0-8.6,0-12.9c-4.5,0-8.9,0-13.2,0c-0.2-0.1-0.2-0.2-0.3-0.3
			c0-0.1-0.1-0.1-0.1-0.2c0-4.3,0-8.6,0-13.1c4.6,0,9,0,13.5,0c8.8,0,17.7,0,26.5,0c0,4.5,0,9,0,13.5C54,243.3,54,247.7,54,252z"/>
		<path fill="#EECFB1" d="M40.5,186c0,4.3,0,8.6,0,13c4.6,0,9,0,13.5,0c0,4.5,0,9,0,13.5c-8.8,0-17.7,0-26.5,0c0-8.8,0-17.6,0-26.5
			C31.9,186,36.2,186,40.5,186z"/>
		<path fill="#F43A1C" d="M27.5,212.5c8.8,0,17.7,0,26.5,0c0,4.3,0,8.7,0,13c-8.8,0-17.7,0-26.5,0C27.5,221.2,27.5,216.8,27.5,212.5
			z"/>
		<path fill="#F43A1C" d="M40.5,27c0-4.2,0-8.5,0-12.7c0.1-0.1,0.1-0.1,0.2-0.2c0.1,0,0.1-0.1,0.2-0.1c4.3,0,8.6,0,13.1,0
			c0,4.4,0,8.7,0,13C49.5,27,45,27,40.5,27z"/>
		<path d="M120,93c-4.4,0-8.8,0-13.2,0c-0.1,0.1-0.1,0.1-0.2,0.2c0,0.1-0.1,0.1-0.1,0.2c0,4.3,0,8.6,0,13c-4.3,0-8.5,0-12.9,0
			c0,8.9,0,17.6,0,26.5c-4.4,0-8.6,0-13,0c0-8.7,0-17.5,0-26.4c-4.6,0-9.1,0-13.6,0c0-4.5,0-9,0-13.5c4.5,0,9,0,13.5,0
			c4.3,0,8.6,0,13,0c0-4.4,0-8.6,0-12.9c8.8,0,17.6,0,26.5,0C120,84.4,120,88.7,120,93z"/>
		<path fill="#EECFB1" d="M173,133c-8.8,0-17.7,0-26.5,0c0-8.7,0-17.5,0-26.2c2.1-0.4,19.1-0.5,26.5-0.2
			C173,115.4,173,124.2,173,133z"/>
		<path fill="#EECFB1" d="M80.5,93c-4.5,0-9,0-13.5,0c0-4.2,0-8.5,0-12.7c0.1-0.1,0.1-0.1,0.2-0.2c0.1,0,0.1-0.1,0.2-0.1
			c4.3,0,8.6,0,13.1,0C80.5,84.4,80.5,88.7,80.5,93z"/>
		<path d="M40.5,27c4.5,0,9,0,13.5,0c0,4.2,0,8.5,0,12.7c-0.1,0.1-0.1,0.1-0.2,0.2c-0.1,0-0.1,0.1-0.2,0.1c-4.3,0-8.6,0-13.1,0
			C40.5,35.6,40.5,31.3,40.5,27z"/>
		<path fill="#EECFB1" d="M120,225.5c0-4.3,0-8.6,0-13c4.4,0,8.6,0,12.9,0c0-4.5,0-9,0-13.5c4.6,0,9.1,0,13.6,0c4.3,0,8.7,0,13,0
			c0,4.5,0,8.9,0,13.5c4.6,0,9,0,13.5,0c0,4.2,0,8.5,0,12.7c-0.1,0.1-0.1,0.1-0.2,0.2c-0.1,0-0.1,0.1-0.2,0.1c-8.6,0-17.3,0-26.1,0
			c0,4.6,0,9,0,13.5c-8.8,0-17.7,0-26.5,0C120,234.5,120,230,120,225.5z"/>
		<path d="M80.5,225.5c0-4.2,0-8.5,0-12.7c2.1-0.4,18.4-0.5,26-0.2c0,4.3,0,8.6,0,12.9C97.8,225.5,89.2,225.5,80.5,225.5z"/>
		<path d="M120,225.5c0,4.5,0,9,0,13.5c-4.5,0-8.9,0-13.5,0c0-4.6,0-9,0-13.5C111,225.5,115.5,225.5,120,225.5z"/>
		<path d="M67,225.5c4.5,0,9,0,13.5,0c0,4.5,0,8.9,0,13.5c-4.6,0-9,0-13.5,0C67,234.5,67,230,67,225.5z"/>
		<path d="M173,212.5c-4.5,0-8.9,0-13.5,0c0-4.6,0-9,0-13.5c4.5,0,9,0,13.5,0C173,203.5,173,208,173,212.5z"/>
		<path d="M146.6,239.1c4.2,0,8.5,0,12.9,0c0,4.3,0,8.5,0,12.8c-4.3,0-8.5,0-12.9,0C146.6,247.6,146.6,243.3,146.6,239.1z"/>
		<path d="M67,252c-4.3,0-8.7,0-13,0c0-4.3,0-8.7,0-13c4.3,0,8.7,0,13,0C67,243.3,67,247.7,67,252z"/>
		<path d="M120,172.5c0,4.4,0,8.8,0,13.2c-0.1,0.1-0.1,0.1-0.2,0.2c-0.1,0-0.1,0.1-0.2,0.1c-4.3,0-8.6,0-13,0c0,4.3,0,8.5,0,12.9
			c-8.7,0-17.3,0-26,0c0-4.2,0-8.4,0-12.8c-4.5,0-9,0-13.6,0c0-9,0-17.8,0-26.6c4.4,0,8.8,0,13.5,0c0,4.3,0,8.6,0,13
			C93.7,172.5,106.9,172.5,120,172.5z"/>
		<path d="M146.5,146c4.3,0,8.6,0,13,0c0,4.5,0,8.9,0,13.5c-4.3,0-8.6,0-13,0c0,9,0,17.7,0,26.5c-4.4,0-8.8,0-13.2,0
			c-0.1-0.1-0.1-0.1-0.2-0.2c0-0.1-0.1-0.1-0.1-0.2c0-4.3,0-8.6,0-13.1c-4.4,0-8.7,0-13,0c0-4.3,0-8.6,0-13c4.4,0,8.6,0,12.9,0
			c0-4.5,0-9,0-13.5C137.6,146,142,146,146.5,146z"/>
		<path d="M54,212.5c0-4.5,0-9,0-13.5c4.3,0,8.6,0,13,0c0,4.6,0,9,0,13.5C62.7,212.5,58.3,212.5,54,212.5z"/>
		<path d="M159.5,199c-4.3,0-8.7,0-13,0c0-4.3,0-8.7,0-13c4.3,0,8.7,0,13,0C159.5,190.3,159.5,194.7,159.5,199z"/>
		<path fill="#EECFB1" d="M54,212.5c4.3,0,8.7,0,13,0c0,4.3,0,8.7,0,13c-4.3,0-8.7,0-13,0C54,221.2,54,216.8,54,212.5z"/>
		<path fill="#F43A1C" d="M54,225.5c4.3,0,8.7,0,13,0c0,4.5,0,9,0,13.5c-4.3,0-8.7,0-13,0C54,234.5,54,230,54,225.5z"/>
	</g>
</g>
</svg>
