<?xml version="1.0" encoding="utf-8"?>
<!-- Generator: Adobe Illustrator 17.1.0, SVG Export Plug-In . SVG Version: 6.00 Build 0)  -->
<!DOCTYPE svg PUBLIC "-//W3C//DTD SVG 1.1//EN" "http://www.w3.org/Graphics/SVG/1.1/DTD/svg11.dtd">
<svg version="1.1" id="Layer_1" xmlns="http://www.w3.org/2000/svg" xmlns:xlink="http://www.w3.org/1999/xlink" x="0px" y="0px"
	 viewBox="0 0 239 343" enable-background="new 0 0 239 343" xml:space="preserve">
<g>
	<g>
		<path d="M0.5,264.5c0-17.5,0-35,0-52.5c1.9,0,3.8-0.1,5.7,0c1.9,0.1,3.6-0.8,5.5-0.5c0.7,0.1,1.5,0,2.2,0c0-22.1,0-44.1,0-66
			c0.2-0.2,0.3-0.3,0.5-0.5c4.1,0,8.3,0,12.5,0c0-4.2,0-8.4,0-12.5c0.2-0.2,0.3-0.3,0.5-0.5c8.6,0,17.3,0,26,0c0-4.6,0-9,0-13.5
			c-0.9,0-1.7,0-2.5,0c-12.1-0.2-24.2,0.5-36.2-0.5c-0.3-0.3-0.5-0.5-0.7-0.7c0-34.6,0-69.2,0-103.8c0.2-0.2,0.3-0.3,0.5-0.5
			c4.1,0,8.3,0,12.5,0c0-4.2,0-8.4,0-12.5c61.8,0,123.7,0,185.5,0c0,8.5,0,16.9,0,25.5c4,0,7.9,0,11.6,0c0.6,0.5,1,0.9,1.4,1.3
			c0,4,0,7.9,0,11.8c-17.6,0-35.3,0-52.9,0c0-4.4,0-8.7,0-13.1c8.8,0,17.6,0,26.4,0c0-4.2,0-8.4,0-12.5c0-0.1,0-0.2-0.1-0.2
			c0-0.1-0.1-0.1-0.1-0.1c-35.1,0-70.2,0-105.4,0c0,4.3,0,8.6,0,12.9c-4.6,0-9,0-13.5,0c0-4.4,0-8.6,0-12.8c-4.4,0-8.6,0-12.9,0
			c0,4.2,0,8.4,0,12.5c0,0.1,0,0.2-0.1,0.2c0,0.1-0.1,0.1-0.2,0.2c-4.4,0-8.8,0-13.2,0c0-4.3,0-8.6,0-13c-4.3,0-8.5,0-12.6,0
			c-0.1,0-0.2,0-0.2,0.1c-0.1,0-0.1,0.1-0.2,0.2c0,4.2,0,8.5,0,12.7c-4.5,0-8.9,0-13.4,0c-0.3,7.1-0.2,24.4,0.2,26.6
			c4.4,0,8.8,0,13.2,0c0,4.2,0,8.4,0,12.5c0,0.1,0,0.2-0.1,0.2c0,0.1-0.1,0.1-0.3,0.3c-4.3,0-8.7,0-13.1,0
			c-0.3,9.4-0.2,37.7,0.2,39.8c4.4,0,8.8,0,13.3,0c0-8.7,0-17.4,0-26c0-0.1,0-0.2,0.1-0.2c0-0.1,0.1-0.1,0.1-0.1c4.3,0,8.5,0,12.8,0
			c0,8.7,0,17.4,0,26c0,0.1,0,0.2,0.1,0.2c0,0.1,0.1,0.1,0.2,0.2c4.4,0,8.8,0,13.2,0c0,13.2,0,26.3,0,39.5c-4.5,0-9,0-13.5,0
			c-4.3,0-8.6,0-13,0c0,4.6,0,9,0,13.5c-4.5,0-8.9,0-13.4,0c0,4.4,0,8.7,0,13c4.5,0,8.9,0,13.4,0c0,4.5,0,9,0,13.5
			c-4.5,0-8.9,0-13.5,0c0,8.9,0,17.7,0,26.5c0,4.3,0,8.7,0,13c-4.3,0-8.6,0-12.9,0c0,8.9,0,17.7,0,26.4c13.2,0,26.2,0,39.4,0
			c0-8.9,0-17.6,0-26.4c4.5,0,9,0,13.5,0c4.3,0,8.7,0,13,0c0,8.8,0,17.6,0,26.5c4.5,0,8.8,0,13.1,0c0.1,0,0.2,0,0.2,0.1
			c0.1,0,0.1,0.1,0.2,0.2c0,4.4,0,8.8,0,13.2c0,4.3,0,8.7,0,13c0,13.3,0,26.6,0,40c-4.5,0-8.8,0-13.1,0c-0.1,0-0.2,0-0.2,0.1
			c-0.1,0-0.1,0.1-0.1,0.1c0,4.3,0,8.6,0,12.8c12.3,0.4,77.1,0.2,79.4-0.2c0-17.6,0-35.2,0-52.7c0-4.3,0-8.6,0-13c-4.6,0-9,0-13.5,0
			c0-8.8,0-17.7,0-26.5c4.5,0,9,0,13.5,0c17.6,0,35.2,0,53,0c0-4.6,0-9,0-13.5c0-8.8,0-17.6,0-26.5c-4.5,0-8.8,0-13.1,0
			c-0.1,0-0.2,0-0.2-0.1c-0.1,0-0.1-0.1-0.2-0.2c0-4.2,0-8.5,0-12.7c8.8,0,17.7,0,26.5,0c0,21.8,0,43.7,0,65.5
			c-0.2,0.2-0.3,0.3-0.5,0.5c-17.5,0-34.9,0-52.5,0c0,30.8,0,61.4,0,92c-35.2,0-70.3,0-105.5,0c0-12.2,0-24.3,0-36.5
			c0.2-0.2,0.3-0.3,0.5-0.5c0-0.5,0-1,0-1.4c4.2-1.2,8.3-0.3,12.4-0.7c0-13.1,0-26.2,0-39.4C53.4,264.5,26.9,264.5,0.5,264.5z"/>
		<path d="M239,185c-4.5,0-9,0-13.5,0c0-8.8,0-17.6,0-26.5c-4.4,0-8.7,0-13,0c0-4.5,0-8.9,0-13.5c-4.5,0-9,0-13.5,0
			c-4.3,0-8.7,0-13,0c-4.5,0-8.9,0-13.5,0c0-4.4,0-8.7,0-13c8.8,0,17.6,0,26.5,0c0-4.5,0-8.8,0-13.1c0-0.1,0-0.2,0.1-0.2
			c0-0.1,0.1-0.1,0.3-0.3c4.3,0,8.7,0,13.1,0c0-4.3,0-8.5,0-12.9c-4.5,0-9,0-13.4,0c0-4.6,0-9,0-13.5c8.8,0,17.6,0,26.4,0
			c0-4.4,0-8.6,0-13c-4.3,0-8.6,0-13,0c0-4.6,0-9,0-13.5c-4.5,0-9,0-13.4,0c0-4.4,0-8.6,0-12.9c8.7,0,17.4,0,26,0
			c0.1,0,0.2,0,0.2-0.1c0.1,0,0.1-0.1,0.2-0.2c0-4.4,0-8.8,0-13.2c4.5,0,9,0,13.5,0c0,22.2,0,44.3,0,66.5c-4.5,0-8.9,0-13.4,0
			c-0.3,8.2-0.2,37.4,0.2,39.5c4.4,0,8.8,0,13.2,0C239,158.3,239,171.7,239,185z"/>
		<path fill="#F43A1C" d="M225.5,39c0,4.4,0,8.8,0,13.2c-0.1,0.1-0.1,0.1-0.2,0.2c-0.1,0-0.1,0.1-0.2,0.1c-8.6,0-17.3,0-26,0
			c0,4.3,0,8.5,0,12.9c4.4,0,8.8,0,13.4,0c0,4.6,0,9,0,13.5c4.4,0,8.7,0,13,0c0,4.4,0,8.6,0,13c-8.8,0-17.5,0-26.4,0
			c0,4.6,0,9,0,13.5c4.4,0,8.9,0,13.4,0c0,4.4,0,8.6,0,12.9c-4.4,0-8.8,0-13.1,0c-0.2,0.1-0.2,0.2-0.3,0.3c0,0.1-0.1,0.1-0.1,0.2
			c0,4.3,0,8.6,0,13.1c-8.9,0-17.7,0-26.5,0c0-8.8,0-17.6,0-26.4c-7.4-0.3-24.4-0.2-26.5,0.2c0,8.7,0,17.5,0,26.2
			c-4.3,0-8.6,0-13.1,0c0-4.6,0-9,0-13.6c-4.5,0-8.9,0-13.4,0c0-8.9,0-17.7,0-26.4c0-4.3,0-8.6,0-12.9c-8.8,0-17.4,0-26,0
			c0,4.3,0,8.5,0,12.9c-4.5,0-9,0-13.5,0c0-4.3,0-8.6,0-13c-4.3,0-8.5,0-12.6,0c-0.1,0-0.2,0-0.2,0.1c-0.1,0-0.1,0.1-0.2,0.2
			c0,4.2,0,8.5,0,12.7c0,4.5,0,9,0,13.5c-4.4,0-8.8,0-13.2,0c-0.1-0.1-0.1-0.1-0.2-0.2c0-0.1-0.1-0.1-0.1-0.2c0-8.6,0-17.3,0-26
			c-4.3,0-8.5,0-12.8,0c0,0,0,0-0.1,0.1c0,0.1-0.1,0.1-0.1,0.2c0,8.6,0,17.3,0,26c-4.5,0-8.9,0-13.3,0c-0.4-2.1-0.5-30.4-0.2-39.8
			c4.4,0,8.8,0,13.1,0c0.2-0.1,0.2-0.2,0.3-0.3c0-0.1,0.1-0.1,0.1-0.2c0-4.2,0-8.3,0-12.5c-4.5,0-8.9,0-13.2,0
			c-0.4-2.2-0.5-19.5-0.2-26.6c4.5,0,8.9,0,13.4,0c0,4.3,0,8.6,0,13c4.3,0,8.5,0,12.6,0c0.1,0,0.2,0,0.2-0.1c0.1,0,0.1-0.1,0.2-0.2
			c0-4.2,0-8.5,0-12.7c4.4,0,8.8,0,13.2,0c0.1-0.1,0.1-0.1,0.2-0.2c0-0.1,0.1-0.1,0.1-0.2c0-4.2,0-8.3,0-12.5c4.3,0,8.5,0,12.9,0
			c0,4.2,0,8.5,0,12.8c4.6,0,9,0,13.5,0c0-4.2,0-8.5,0-12.9c35.2,0,70.3,0,105.4,0c0,0,0,0,0.1,0.1c0,0.1,0.1,0.1,0.1,0.2
			c0,4.2,0,8.3,0,12.5c-8.8,0-17.5,0-26.4,0c0,4.4,0,8.6,0,13.1C190.2,39,207.9,39,225.5,39z"/>
		<path fill="#F43A1C" d="M146,238c0,8.8,0,17.7,0,26.5c-17.5,0-35,0-52.5,0c0-4.4,0-8.8,0-13.2c-0.1-0.1-0.1-0.1-0.2-0.2
			c-0.1,0-0.1-0.1-0.2-0.1c-4.3,0-8.6,0-13.1,0c0-8.9,0-17.7,0-26.5c8.8,0,17.6,0,26.4,0c0-4.3,0-8.6,0-12.9c-8.8,0-17.5,0-26.3,0
			c0,4.3,0,8.7,0,12.9c-4.4,0-8.7,0-13,0c0-4.3,0-8.7,0-13c0-4.5,0-8.9,0-13.5c-4.6,0-9,0-13.5,0c-4.3,0-8.6,0-13,0
			c0-4.4,0-8.7,0-13c0-4.5,0-8.9,0-13.5c-4.5,0-8.9,0-13.4,0c0-4.3,0-8.6,0-13c4.5,0,8.9,0,13.4,0c4.3,0,8.6,0,13,0
			c0-4.6,0-9,0-13.5c4.5,0,9,0,13.5,0c0,4.5,0,9,0,13.5c0,8.8,0,17.6,0,26.6c4.4,0,8.7,0,13.1,0c0,4.4,0,8.6,0,12.8
			c8.9,0,17.6,0,26.5,0c0-4.3,0-8.6,0-12.9c4.2,0,8.4,0,12.5,0c0.1,0,0.2,0,0.2-0.1c0.1,0,0.1-0.1,0.2-0.2c0-4.4,0-8.8,0-13.2
			c4.5,0,8.9,0,13.5,0c0,4.5,0,8.8,0,13.1c0,0.1,0,0.2,0.1,0.2c0,0.1,0.1,0.1,0.2,0.2c4.2,0,8.5,0,12.7,0c0,4.3,0,8.7,0,13
			c-4.3,0-8.6,0-13,0c0,4.5,0,8.8,0,13.1c0,0.1,0,0.2-0.1,0.2c0,0.1-0.1,0.1-0.3,0.3c-4.3,0-8.7,0-13.1,0c-0.3,9-0.2,24.3,0.2,26.4
			C128.5,238,137.3,238,146,238z"/>
		<path fill="#EECFB1" d="M67,158.5c0-4.5,0-9,0-13.5c0-13.2,0-26.3,0-39.5c4.3,0,8.6,0,13.1,0c0,8.9,0,17.7,0,26.4
			c4.6,0,8.9,0,13.5,0c0-8.9,0-17.6,0-26.5c4.4,0,8.6,0,12.9,0c0-4.4,0-8.7,0-13c0-0.1,0-0.2,0.1-0.2c0-0.1,0.1-0.1,0.2-0.2
			c4.2,0,8.5,0,12.7,0c0,8.8,0,17.6,0,26.4c4.5,0,8.9,0,13.4,0c0,4.5,0,9,0,13.6c4.5,0,8.8,0,13.1,0c0,4.3,0,8.7,0,13
			c-4.3,0-8.6,0-13.1,0c0,4.6,0,9,0,13.5c-4.5,0-8.9,0-13.4,0c0,4.4,0,8.7,0,13c-13.1,0-26.3,0-39.5,0c0-4.4,0-8.7,0-13
			C75.5,158.5,71.3,158.5,67,158.5z"/>
		<path fill="#F43A1C" d="M159.5,277.5c0,17.6,0,35.2,0,52.7c-2.3,0.4-67.2,0.6-79.4,0.2c0-4.2,0-8.4,0-12.8c0,0,0,0,0.1-0.1
			c0.1,0,0.1-0.1,0.2-0.1c4.3,0,8.6,0,13.1,0c0-13.4,0-26.7,0-40c17.5,0,35,0,52.5,0C150.5,277.5,155,277.5,159.5,277.5z"/>
		<path fill="#F43A1C" d="M146,145c0-4.3,0-8.7,0-13c8.8,0,17.7,0,26.5,0c0,4.3,0,8.6,0,13c4.6,0,9,0,13.5,0c0,4.5,0,8.9,0,13.5
			c4.3,0,8.5,0,12.6,0c0.1,0,0.2,0,0.2-0.1c0.1,0,0.1-0.1,0.2-0.2c0-4.4,0-8.8,0-13.2c4.5,0,8.9,0,13.5,0c0,4.5,0,8.9,0,13.5
			c4.3,0,8.6,0,13,0c0,9,0,17.7,0,26.5c-8.8,0-17.7,0-26.5,0c-13.2,0-26.3,0-39.5,0c-4.5,0-9,0-13.5,0c0-8.8,0-17.6,0-26.5
			c4.6,0,9,0,13.5,0c0-4.5,0-8.9,0-13.5C154.9,145,150.5,145,146,145z"/>
		<path fill="#EECFB1" d="M146,238c-8.7,0-17.5,0-26.2,0c-0.4-2.1-0.5-17.5-0.2-26.4c4.4,0,8.8,0,13.1,0c0.2-0.1,0.2-0.2,0.3-0.3
			c0-0.1,0.1-0.1,0.1-0.2c0-4.3,0-8.6,0-13.1c4.4,0,8.7,0,13,0c4.5,0,9,0,13.5,0c0,4.5,0,8.9,0,13.5c4.4,0,8.7,0,13,0
			c0,4.3,0,8.6,0,13c-4.3,0-8.5,0-12.6,0c-0.1,0-0.2,0-0.2,0.1c-0.1,0-0.1,0.1-0.2,0.2c0,4.4,0,8.8,0,13.2
			C155,238,150.5,238,146,238z"/>
		<path fill="#F43A1C" d="M159.5,238c0-4.4,0-8.8,0-13.2c0.1-0.1,0.1-0.1,0.2-0.2c0.1,0,0.1-0.1,0.2-0.1c4.2,0,8.3,0,12.6,0
			c0-4.4,0-8.7,0-13c0-4.5,0-9,0-13.5c4.5,0,8.9,0,13.5,0c0,4.5,0,8.8,0,13.1c0,0.1,0,0.2,0.1,0.2c0,0.1,0.1,0.1,0.3,0.3
			c4.1,0,8.4,0,12.7,0c0,4.2,0,8.4,0,12.5c0,0.1,0,0.2,0.1,0.2c0,0.1,0.1,0.1,0.2,0.2c4.4,0,8.8,0,13.2,0c0,4.5,0,8.9,0,13.5
			C194.7,238,177.1,238,159.5,238z"/>
		<path fill="#EECFB1" d="M53.5,224.5c0,8.8,0,17.6,0,26.4c-13.2,0-26.2,0-39.4,0c0-8.7,0-17.5,0-26.4c4.3,0,8.6,0,12.9,0
			C35.8,224.5,44.7,224.5,53.5,224.5z"/>
		<path fill="#EECFB1" d="M212.5,224.5c-4.4,0-8.8,0-13.2,0c-0.1-0.1-0.1-0.1-0.2-0.2c0-0.1-0.1-0.1-0.1-0.2c0-4.2,0-8.3,0-12.5
			c-4.3,0-8.5,0-12.7,0c-0.1-0.1-0.2-0.2-0.3-0.3c0-0.1-0.1-0.1-0.1-0.2c0-4.3,0-8.6,0-13.1c-4.6,0-9,0-13.5,0c-4.3,0-8.7,0-13,0
			c0-4.3,0-8.7,0-13c13.2,0,26.3,0,39.5,0c0,4.2,0,8.5,0,12.7c0.1,0.1,0.1,0.1,0.2,0.2c0.1,0,0.1,0.1,0.2,0.1c4.3,0,8.6,0,13.1,0
			C212.5,206.9,212.5,215.7,212.5,224.5z"/>
		<path fill="#EECFB1" d="M40.5,185c0,4.3,0,8.6,0,13c4.4,0,8.7,0,13,0c0,4.5,0,9,0,13.5c-8.8,0-17.7,0-26.5,0c0-8.8,0-17.6,0-26.5
			C31.6,185,36,185,40.5,185z"/>
		<path fill="#F43A1C" d="M27,211.5c8.8,0,17.7,0,26.5,0c0,4.3,0,8.7,0,13c-8.8,0-17.7,0-26.5,0C27,220.2,27,215.8,27,211.5z"/>
		<path fill="#EECFB1" d="M53.5,224.5c0-4.3,0-8.7,0-13c4.5,0,9,0,13.5,0c0,4.3,0,8.7,0,13C62.5,224.5,58,224.5,53.5,224.5z"/>
		<path fill="#EECFB1" d="M146,277.5c0-4.3,0-8.7,0-13c4.5,0,8.9,0,13.5,0c0,4.4,0,8.7,0,13C155,277.5,150.5,277.5,146,277.5z"/>
		<path fill="#F43A1C" d="M40.5,26c0-4.2,0-8.5,0-12.7c0.1-0.1,0.1-0.1,0.2-0.2c0.1,0,0.1-0.1,0.2-0.1c4.2,0,8.3,0,12.6,0
			c0,4.4,0,8.7,0,13C49.2,26,44.8,26,40.5,26z"/>
		<path fill="#060606" d="M14,13.5c0.2-0.2,0.3-0.3,0.5-0.5C14.3,13.2,14.2,13.3,14,13.5z"/>
		<path fill="#060606" d="M225.5,250.5c-0.2,0.2-0.3,0.3-0.5,0.5C225.2,250.8,225.3,250.7,225.5,250.5z"/>
		<path fill="#060606" d="M14,145.5c0.2-0.2,0.3-0.3,0.5-0.5C14.3,145.2,14.2,145.3,14,145.5z"/>
		<path fill="#060606" d="M27,132.5c0.2-0.2,0.3-0.3,0.5-0.5C27.3,132.2,27.2,132.3,27,132.5z"/>
		<path fill="#050505" d="M67,306.5c0.2-0.2,0.3-0.3,0.5-0.5C67.3,306.2,67.2,306.3,67,306.5z"/>
		<path d="M119.5,92c-4.2,0-8.5,0-12.7,0c-0.1,0.1-0.1,0.1-0.2,0.2c0,0.1-0.1,0.1-0.1,0.2c0,4.3,0,8.6,0,13c-4.3,0-8.5,0-12.9,0
			c0,8.9,0,17.6,0,26.5c-4.6,0-8.9,0-13.5,0c0-8.7,0-17.5,0-26.4c-4.5,0-8.8,0-13.1,0c0-4.5,0-9,0-13.5c4.3,0,8.7,0,13,0
			c4.5,0,8.9,0,13.5,0c0-4.4,0-8.6,0-12.9c8.7,0,17.3,0,26,0C119.5,83.4,119.5,87.7,119.5,92z"/>
		<path fill="#EECFB1" d="M172.5,132c-8.8,0-17.7,0-26.5,0c0-8.7,0-17.5,0-26.2c2.1-0.4,19.1-0.5,26.5-0.2
			C172.5,114.4,172.5,123.2,172.5,132z"/>
		<path fill="#EECFB1" d="M80,92c-4.3,0-8.7,0-13,0c0-4.2,0-8.5,0-12.7c0.1-0.1,0.1-0.1,0.2-0.2c0.1,0,0.1-0.1,0.2-0.1
			c4.2,0,8.3,0,12.6,0C80,83.4,80,87.7,80,92z"/>
		<path d="M40.5,26c4.3,0,8.7,0,13,0c0,4.2,0,8.5,0,12.7c-0.1,0.1-0.1,0.1-0.2,0.2c-0.1,0-0.1,0.1-0.2,0.1c-4.2,0-8.3,0-12.6,0
			C40.5,34.6,40.5,30.3,40.5,26z"/>
		<path d="M67,158.5c4.2,0,8.5,0,13,0c0,4.3,0,8.6,0,13c13.2,0,26.4,0,39.5,0c0,4.4,0,8.8,0,13.2c-0.1,0.1-0.1,0.1-0.2,0.2
			c-0.1,0-0.1,0.1-0.2,0.1c-4.2,0-8.3,0-12.5,0c0,4.3,0,8.5,0,12.9c-8.9,0-17.6,0-26.5,0c0-4.2,0-8.4,0-12.8c-4.4,0-8.6,0-13.1,0
			C67,176.1,67,167.3,67,158.5z"/>
		<path d="M146,145c4.5,0,8.9,0,13.5,0c0,4.5,0,8.9,0,13.5c-4.4,0-8.9,0-13.5,0c0,9,0,17.7,0,26.5c-4.2,0-8.5,0-12.7,0
			c-0.1-0.1-0.1-0.1-0.2-0.2c0-0.1-0.1-0.1-0.1-0.2c0-4.3,0-8.6,0-13.1c-4.6,0-9,0-13.5,0c0-4.3,0-8.6,0-13c4.5,0,8.9,0,13.4,0
			c0-4.5,0-9,0-13.5C137.4,145,141.7,145,146,145z"/>
		<path d="M80.1,224.4c0-4.2,0-8.5,0-12.9c8.8,0,17.5,0,26.3,0c0,4.3,0,8.5,0,12.9C97.6,224.4,88.8,224.4,80.1,224.4z"/>
		<path d="M67,211.5c-4.5,0-9,0-13.5,0c0-4.5,0-9,0-13.5c4.5,0,8.9,0,13.5,0C67,202.6,67,207.1,67,211.5z"/>
		<path d="M159.5,185c0,4.3,0,8.7,0,13c-4.5,0-9,0-13.5,0c0-4.3,0-8.7,0-13C150.5,185,155,185,159.5,185z"/>
		<path d="M159.5,198c4.3,0,8.7,0,13,0c0,4.5,0,9,0,13.5c-4.3,0-8.6,0-13,0C159.5,206.9,159.5,202.5,159.5,198z"/>
	</g>
</g>
</svg>
