<?xml version="1.0" encoding="utf-8"?>
<!-- Generator: Adobe Illustrator 17.1.0, SVG Export Plug-In . SVG Version: 6.00 Build 0)  -->
<!DOCTYPE svg PUBLIC "-//W3C//DTD SVG 1.1//EN" "http://www.w3.org/Graphics/SVG/1.1/DTD/svg11.dtd">
<svg version="1.1" id="Layer_1" xmlns="http://www.w3.org/2000/svg" xmlns:xlink="http://www.w3.org/1999/xlink" x="0px" y="0px"
	 viewBox="0 0 238.5 344.5" enable-background="new 0 0 238.5 344.5" xml:space="preserve">
<g id="kfyZNv_1_">
	<g>
		<g>
			<path fill="#010101" d="M0.5,286.5c0-2.7,0-5.3,0-8c0.3,0,0.6,0,1,0c0-1.1,0.3-2-0.1-2.8c-0.5-1.3-0.4-2.7-0.4-4
				c0-1.2,0-2.5,0-3.7c0-0.3,0-0.7,0-1c0.2-0.2,0.3-0.3,0.5-0.5c8.5,0,17.1,0,25.6,0c0.1,0,0.2,0,0.2-0.1c0.1,0,0.1-0.1,0.2-0.2
				c0-0.3,0-0.5,0-0.8c0.7,0,0.5-0.5,0.5-0.9c0-2.7,0-5.3,0-8c0-1,0.3-2,0.4-3.2c1.2-0.2,2.2-0.4,3.2-0.4c2.9-0.1,5.8,0,8.6,0
				c0.3-0.3,0.4-0.4,0.7-0.7c0-2.8,0-5.7,0-8.6c0-1.2,0.1-2.2,0.9-3.3c0.8-0.1,1.8-0.3,2.7-0.4c3.1,0,6.2,0,9.2,0
				c0.3-0.3,0.5-0.5,0.7-0.7c0-9.1,0-18.2,0-27.2c-0.3-0.3-0.4-0.4-0.7-0.7c-3.2,0.5-6.4-0.8-9.6-0.5c-0.8,0.1-1.6,0-2.6,0
				c-0.1-1.1-0.4-2.1-0.4-3.1c0-15.4,0-30.8,0-46.2c0-0.8,0-1.6,0-2.4c-0.3-0.3-0.4-0.4-0.7-0.7c-2.8,0-5.7,0-8.6,0
				c-1.2,0-2.2-0.1-3.2-0.8c0-1.8,0.1-3.7,0-5.5c-0.1-1.8,0.3-3.7-0.4-5.6c-0.5-1.7-0.1-3.6-0.1-5.5c0-7.3,0-14.7,0-22
				c-0.3-0.3-0.5-0.5-0.7-0.7c-4.1-0.3-8.2,0.5-12.1-0.7c-0.2-3-0.5-6-0.6-9c-0.1-3.2,0-6.3,0-9.5c0-25.1,0-50.2,0-75.2
				c0-2.8-0.3-5.7,0.7-8.6c1.6,0,3.2,0.1,4.9,0c1.7-0.1,3.4-0.3,5-0.5c0.7-0.1,1.5,0,2.4,0c1.8-4.2,0.6-8.6,1.1-12.6
				c1.1-1.1,2.3-0.9,3.5-0.9c58.2,0,116.5,0,174.7,0c0.8,0,1.7,0,2.3,0c0.6,0.3,1,0.5,1.3,0.7c0.2,2,0.5,3.9,0.6,5.9
				c0.1,2.1,0,4.2,0,6.2c0,4.3,0,8.7,0,13c0.2,0.2,0.5,0.5,0.8,0.8c3.9-0.5,7.9,0.7,11.9,0.5c2.2-0.1,4.5,0,6.7,0c2.1,0,4.3,0,6.6,0
				c-0.6,6.9,0.7,13.7,0.4,20.4c-0.1,3,0,6,0,9c0,3.1,0,6.2,0,9.2c0,3,0,6,0,9s0,6,0,9c0,3.1-0.1,6.2,0,9.2c0.2,3-0.7,5.8-0.5,8.8
				c0,0.6,0,1.1,0,1.5c-0.5,0.4-0.7,0.6-1,0.8c-3.2,0-6.3,0-9.5,0c-0.5,0-0.9,0-1.5,0c0,0.4,0,0.7,0,1c-1,0.2-0.5,0.9-0.5,1.4
				c0,12.6,0,25.2,0,37.7c0,0.2,0,0.5,0.1,0.9c4,1.7,8.3,0.5,12.4,1c0.3,4.6-0.4,9,0.6,13.4c0,11.7,0,23.5,0,35
				c-0.3,0.6-0.5,1-0.8,1.6c-0.8,0.1-1.8,0.3-2.7,0.4c-2.9,0-5.8,0-8.7,0c-0.2,0.2-0.5,0.5-0.7,0.7c0,22.4,0,44.8,0,67.1
				c0.2,0.2,0.4,0.4,0.6,0.6c3.9,0.3,7.8-0.5,11.9,0.8c0.1,0.9,0.4,1.9,0.4,2.9c0,10.1,0,20.2,0,30.2c0,1.2-0.1,2.2-0.7,3
				c-0.6,0.3-1,0.6-1.4,0.6c-0.5,0.1-1,0-1.5,0c-2.9,0-5.8,0-8.7,0c-0.3,0.3-0.5,0.5-0.8,0.8c0,3.1,0,6.2,0,9.2c0,1.1,0,2.1-0.7,3
				c-2.9,0-5.8-0.1-8.7,0c-1.2,0-2.3,0.4-3.5,0.6c-0.2,0-0.4,0.3-0.6,0.6c0,2.8,0,5.7,0,8.6c0,1.1,0.2,2.3-0.9,3.2
				c-3.8-0.3-7.6,0-11.5,0.6c-0.1,0.1-0.3,0.3-0.6,0.6c0,2.8,0,5.7,0,8.6c0,1.2-0.1,2.2-0.8,3.3c-0.8,0.1-1.6,0.4-2.5,0.4
				c-19.8,0-39.6,0-59.3,0c-0.6-0.3-1-0.5-1.3-0.7c-0.2-0.4-0.4-0.8-0.7-1.4c0-16.4,0-33.1,0-49.8c-0.3-0.3-0.4-0.4-0.6-0.6
				c-4.6,0-9.1,0-13.6,0c-0.2,0.2-0.4,0.4-0.5,0.5c-0.2,3.9-0.3,7.9-0.5,11.9c-3,0-5.8-0.1-8.7,0c-1.4,0-2.8,0.3-3.8,1
				c-0.3,1.3-0.5,2.3-0.6,3.3c-0.1,1.1,0,2.2,0,3.2c0,2,0,3.9,0,6c-3.9-0.5-7.5,0.7-11.2,0.4c-0.4,0-0.8,0-1,0
				c-0.3,0.3-0.5,0.5-0.8,0.8c0,2.8,0,5.6,0,8.4c0,1.1-0.3,2.2-0.4,3.4c-1.1,0.2-2.1,0.4-3,0.4c-3,0.1-6,0-8.8,0
				c-0.3,0.3-0.5,0.5-0.8,0.8c0,2.8,0,5.7,0,8.6c0,1.1-0.1,2.2-0.8,3.2c-1.5,0-3-0.1-4.5,0c-1.4,0.1-2.9,0.5-4.3,0.5
				c-8.2,0-16.5,0-24.7,0c-1.2,0-2.2-0.1-3.3-0.9c-0.1-0.8-0.3-1.8-0.4-2.7c0-2.9,0-5.8,0-8.7c-0.3-0.3-0.5-0.5-0.8-0.8
				c-2.9,0-5.8,0-8.7,0c-1.1,0-2.1,0-2.8-0.6c-0.2-1.9-0.6-3.8-0.7-5.6c-0.1-2,0-4,0-6c0-0.1-0.1-0.1-0.1-0.2
				c-0.2-0.2-0.4-0.4-0.6-0.6c-4-0.2-8.1,0.4-12.4-0.8c-0.1-0.9-0.3-1.9-0.4-2.9c-0.1-2.7,0-5.5,0-8.2c0-0.4-0.1-0.8-0.1-1.1
				c-0.4,0-0.7,0-0.9,0c0-0.7-0.5-0.5-0.9-0.5c-3.5,0-7.1,0-10.6,0c-0.3,0-0.7,0-1,0c-0.2-0.2-0.3-0.3-0.5-0.5c0-3.2,0-6.3,0-9.5
				c0.3,0,0.6,0,1,0c0-2.5,0-4.8,0-7.1c0-0.1-0.2-0.3-0.2-0.4C1,286.5,0.7,286.5,0.5,286.5z M185.5,199c0-4.3,0-8.7,0-13
				c13.3,0,26.6,0,39.9,0c0-8.9,0-17.7,0-26.6c-4.5,0-8.9,0-13.4,0c0-4.4,0-8.7,0-13c0-0.1,0-0.2-0.1-0.2c0-0.1-0.1-0.1-0.2-0.2
				c-4.2,0-8.5,0-12.7,0c-4.5,0-9,0-13.5,0c-4.3,0-8.6,0-13,0c0-4.4,0-8.7,0-13c8.8,0,17.6,0,26.5,0c0-4.6,0-9,0-13.5
				c4.4,0,8.7,0,12.9,0c0-4.4,0-8.6,0-13c-4.4,0-8.6,0-12.9,0c0-4.6,0-9,0-13.4c8.7,0,17.4,0,26,0c0.1,0,0.2,0,0.2-0.1
				c0.1,0,0.1-0.1,0.1-0.1c0-4.3,0-8.6,0-12.9c-4.5,0-8.9,0-13.4,0c0-4.5,0-9,0-13.5c-4.4,0-8.6,0-13,0c0-4.2,0-8.4,0-12.5
				c0-0.1,0-0.2,0.1-0.2c0-0.1,0.1-0.1,0.3-0.3c8.6,0,17.4,0,26.1,0c0-4.5,0-8.9,0-13.4c-17.7,0-35.3,0-52.9,0c0-4.4,0-8.6,0-13
				c8.9,0,17.6,0,26.4,0c0-4.4,0-8.6,0-12.8c-8.6-0.4-103.8-0.2-106,0.2c0,4.2,0,8.4,0,12.7c-4.3,0-8.5,0-12.9,0c0-4.3,0-8.6,0-12.9
				c-4.6,0-9,0-13.5,0c0,4.4,0,8.6,0,12.9c-4.5,0-8.7,0-13,0c0-4.3,0-8.6,0-13c-4.5,0-8.8,0-13.1,0c-0.1,0-0.2,0-0.2,0.1
				c-0.1,0-0.1,0.1-0.2,0.2c0,4.2,0,8.5,0,12.7c-4.3,0-8.6,0-12.9,0c-0.3,7.2-0.2,24.4,0.2,26.6c4.2,0,8.4,0,12.7,0
				c0,4.2,0,8.4,0,12.5c0,0.1,0,0.2-0.1,0.2c0,0.1-0.1,0.1-0.3,0.3c-4.1,0-8.3,0-12.6,0c-0.3,9.5-0.2,37.7,0.2,39.8
				c4.2,0,8.5,0,12.8,0c0-8.7,0-17.4,0-26c0-0.1,0-0.2,0.1-0.2c0-0.1,0.1-0.1,0.1-0.1c4.5,0,8.9,0,13.3,0c0,8.7,0,17.4,0,26
				c0,0.1,0,0.2,0.1,0.2c0,0.1,0.1,0.1,0.2,0.2c4.2,0,8.5,0,12.7,0c0,4.3,0,8.7,0,13c-8.8,0-17.6,0-26.4,0
				c-0.3,6.8-0.2,24.4,0.2,26.6c4.4,0,8.8,0,13.3,0c0,17.7,0,35.3,0,53c4.4,0,8.6,0,12.9,0c0,8.7,0,17.4,0,26c0,0.1,0,0.2,0.1,0.2
				c0,0.1,0.1,0.1,0.2,0.2c4.4,0,8.8,0,13.2,0c0,4.5,0,8.9,0,13.5c-4.5,0-8.8,0-13.1,0c-0.1,0-0.2,0-0.2,0.1c-0.1,0-0.1,0.1-0.2,0.2
				c0,4.2,0,8.5,0,12.7c-4.3,0-8.6,0-13,0c0,4.6,0,9,0,13.5c-4.5,0-8.9,0-13.5,0c0,4.3,0,8.5,0,12.6c0,0.1,0,0.2-0.1,0.2
				c0,0.1-0.1,0.1-0.3,0.3c-8.6,0-17.3,0-26.1,0c0,4.4,0,8.7,0,13c0,0.1,0,0.1,0.1,0.2c0,0.1,0.1,0.1,0.3,0.3c4.3,0,8.7,0,13.1,0
				c0,4.3,0,8.5,0,12.9c4.4,0,8.7,0,13,0c0,4.6,0,9,0,13.5c4.5,0,9,0,13.5,0c0,4.4,0,8.6,0,12.8c4.4,0,8.6,0,13,0c0-4.3,0-8.6,0-13
				c4.5,0,9,0,13.5,0c0-4.6,0-9,0-13.4c4.2,0,8.4,0,12.5,0c0.1,0,0.2,0,0.2-0.1c0.1,0,0.1-0.1,0.2-0.2c0-4.2,0-8.5,0-12.7
				c4.5,0,8.9,0,13.5,0c0-8.8,0-17.5,0-26.1c0-0.1,0-0.2,0.1-0.2c0-0.1,0.1-0.1,0.1-0.1c8.6,0,17.2,0,25.8,0c0,4.2,0,8.4,0,12.5
				c0,0.1,0,0.2,0.1,0.2c0,0.1,0.1,0.1,0.2,0.2c4.4,0,8.8,0,13.2,0c0,4.5,0,8.9,0,13.5c4.4,0,8.7,0,13,0c0,8.8,0,17.6,0,26.5
				c-4.4,0-8.6,0-12.9,0c0,4.4,0,8.7,0,12.9c13.2,0,26.2,0,39.4,0c0-4.3,0-8.6,0-13c4.6,0,9,0,13.5,0c0-4.5,0-9,0-13.5
				c4.4,0,8.6,0,12.9,0c0-4.2,0-8.4,0-12.5c0-0.1,0-0.2,0.1-0.2c0-0.1,0.1-0.1,0.3-0.3c4.3,0,8.7,0,13.1,0c0-4.5,0-8.9,0-13.4
				c-4.5,0-9,0-13.5,0c0-4.4,0-8.6,0-13c-4.4,0-8.7,0-12.9,0c0-8.9,0-17.6,0-26.4c4.4-0.1,8.6,0.1,12.9-0.1c0-4.6,0-9,0-13.4
				c0-8.8,0-17.6,0-26.5C203.1,199,194.3,199,185.5,199z"/>
			<path fill="#020202" d="M27.5,265.5c-0.2-0.2-0.5-0.4-0.5-0.6c0-4.2,0-8.5,0-12.8c4.3,0,8.5,0,12.9,0c0-4.4,0-8.7,0-13
				c4.6,0,9,0,13.5,0c0-8.9,0-17.6,0-26.5c-4.4,0-8.8,0-13.4,0c0-17.7,0-35.3,0-53c-4.4,0-8.6,0-12.9,0c0-13.3,0-26.5,0-39.6
				c-0.1-0.2-0.2-0.2-0.3-0.3c-0.1,0-0.1-0.1-0.2-0.1c-4.3,0-8.6,0-13,0c0-35.2,0-70.3,0-105.5c4.5,0,8.9,0,13.4,0c0-4.6,0-9,0-13.5
				c61.7,0,123.3,0,185,0c0,8.8,0,17.6,0,26.5c8.9,0,17.7,0,26.5,0c0,26.5,0,53,0,79.5c-0.8,0-1.7,0-2.5-0.1c0-0.5,0-0.7,0-0.9
				c0.3-0.2,0.5-0.4,1-0.8c0-0.3,0-0.9,0-1.5c-0.2-3,0.7-5.8,0.5-8.8c-0.2-3.1,0-6.2,0-9.2c0-3,0-6,0-9s0-6,0-9c0-3.1,0-6.2,0-9.2
				c0-3-0.1-6,0-9c0.3-6.8-1-13.5-0.4-20.4c-2.3,0-4.5,0-6.6,0c-2.2,0-4.5-0.1-6.7,0c-4,0.2-8-0.9-11.9-0.5
				c-0.3-0.3-0.6-0.6-0.8-0.8c0-4.3,0-8.6,0-13c0-2.1,0.1-4.2,0-6.2c-0.1-1.9-0.4-3.8-0.6-5.9c-0.3-0.1-0.7-0.4-1.3-0.7
				c-0.6,0-1.4,0-2.3,0c-58.2,0-116.5,0-174.7,0c-1.2,0-2.4-0.3-3.5,0.9c-0.5,4,0.7,8.4-1.1,12.6c-0.9,0-1.6,0-2.4,0
				c-1.7,0.1-3.4,0.4-5,0.5c-1.7,0.1-3.3,0-4.9,0c-1,2.9-0.7,5.7-0.7,8.6c0,25.1,0,50.2,0,75.2c0,3.2-0.1,6.3,0,9.5
				c0.1,3,0.4,6,0.6,9c3.9,1.2,8,0.4,12.1,0.7c0.2,0.2,0.4,0.4,0.7,0.7c0,7.3,0,14.6,0,22c0,1.8-0.4,3.8,0.1,5.5
				c0.6,1.9,0.2,3.7,0.4,5.6c0.1,1.8,0,3.7,0,5.5c1,0.7,2,0.8,3.2,0.8c2.9-0.1,5.8,0,8.6,0c0.3,0.3,0.5,0.5,0.7,0.7
				c0,0.7,0,1.6,0,2.4c0,15.4,0,30.8,0,46.2c0,1,0.2,2,0.4,3.1c1,0,1.8,0.1,2.6,0c3.3-0.4,6.5,0.9,9.6,0.5c0.3,0.3,0.5,0.5,0.7,0.7
				c0,9,0,18,0,27.2c-0.2,0.2-0.4,0.4-0.7,0.7c-3.1,0-6.1,0-9.2,0c-0.9,0-1.9,0.2-2.7,0.4c-0.8,1.1-0.9,2.2-0.9,3.3
				c0.1,2.9,0,5.8,0,8.6c-0.3,0.3-0.5,0.5-0.7,0.7c-2.8,0-5.7,0-8.6,0c-1,0-2,0.2-3.2,0.4c-0.2,1.2-0.4,2.2-0.4,3.2
				c-0.1,2.7,0,5.3,0,8C28,265,28.2,265.5,27.5,265.5z"/>
			<path fill="#020202" d="M238.5,199c-4.2,0-8.5,0-12.7,0c-0.4,2.2-0.5,57.5-0.2,66.5c4.3,0,8.6,0,12.9,0c0,13.2,0,26.3,0,39.5
				c-4.3,0-8.6,0-13,0c0,4.5,0,8.9,0,13.5c-4.5,0-9,0-13.5,0c0,4.4,0,8.6,0,13c-4.3,0-8.6,0-13.1,0c0,4.5,0,8.8,0,13.1
				c-22.2,0-44.3,0-66.5,0c0-17.5,0-34.9,0-52.4c-4.4,0-8.6,0-13,0c0,4.3,0,8.6,0,12.9c-4.4,0-8.6,0-13,0c0,4.5,0,9,0,13.5
				c-4.6,0-8.9,0-13.4,0c0,4.3,0,8.5,0,12.6c-0.1,0.2-0.2,0.2-0.3,0.3c-0.1,0-0.1,0.1-0.2,0.1c-4.2,0-8.3,0-12.6,0c0,4.4,0,8.7,0,13
				c-13.3,0-26.7,0-40,0c0-4.2,0-8.5,0-12.7c-0.1-0.1-0.1-0.1-0.2-0.2c-0.1,0-0.1-0.1-0.2-0.1c-4.2,0-8.3,0-12.5,0
				c0-4.3,0-8.5,0-12.7c-0.1-0.1-0.2-0.2-0.3-0.2c-0.1,0-0.1-0.1-0.2-0.1c-4.3,0-8.6,0-13.1,0c0-4.7,0-9.4,0-14c0.2,0,0.5,0,0.9,0
				c0,0.4,0.1,0.8,0.1,1.1c0,2.7,0,5.5,0,8.2c0,1,0.3,2,0.4,2.9c4.3,1.1,8.4,0.6,12.4,0.8c0.2,0.2,0.4,0.4,0.6,0.6
				c0,0.1,0.1,0.1,0.1,0.2c0,2-0.1,4,0,6c0.1,1.8,0.4,3.7,0.7,5.6c0.8,0.6,1.8,0.6,2.8,0.6c2.9,0,5.8,0,8.7,0
				c0.3,0.3,0.5,0.5,0.8,0.8c0,2.9,0,5.8,0,8.7c0,0.9,0.2,1.9,0.4,2.7c1.1,0.8,2.2,0.9,3.3,0.9c8.2,0,16.5,0,24.7,0
				c1.4,0,2.9-0.4,4.3-0.5c1.5-0.1,3,0,4.5,0c0.7-0.9,0.8-2,0.8-3.2c0-2.9,0-5.8,0-8.6c0.3-0.3,0.5-0.5,0.8-0.8c2.9,0,5.9,0,8.8,0
				c0.9,0,1.8-0.3,3-0.4c0.2-1.2,0.4-2.3,0.4-3.4c0.1-2.8,0-5.7,0-8.4c0.2-0.2,0.4-0.4,0.8-0.8c0.2,0,0.6,0,1,0
				c3.7,0.3,7.3-0.9,11.2-0.4c0-2.1,0-4.1,0-6c0-1.1-0.1-2.2,0-3.2c0.1-1,0.4-2,0.6-3.3c1-0.7,2.4-1,3.8-1c2.8-0.1,5.6,0,8.7,0
				c0.2-4,0.4-8,0.5-11.9c0.1-0.1,0.3-0.3,0.5-0.5c4.5,0,9.1,0,13.6,0c0.2,0.2,0.4,0.4,0.6,0.6c0,16.6,0,33.4,0,49.8
				c0.3,0.6,0.5,1,0.7,1.4c0.3,0.1,0.7,0.4,1.3,0.7c19.6,0,39.5,0,59.3,0c0.8,0,1.7-0.3,2.5-0.4c0.7-1.1,0.8-2.1,0.8-3.3
				c-0.1-2.9,0-5.8,0-8.6c0.3-0.3,0.5-0.5,0.6-0.6c3.9-0.6,7.7-0.9,11.5-0.6c1.1-0.9,0.9-2.1,0.9-3.2c0-2.9,0-5.8,0-8.6
				c0.2-0.2,0.4-0.5,0.6-0.6c1.2-0.3,2.3-0.6,3.5-0.6c2.9-0.1,5.8,0,8.7,0c0.7-0.9,0.8-2,0.7-3c0-3.1,0-6.2,0-9.2
				c0.2-0.2,0.5-0.5,0.8-0.8c2.9,0,5.8,0,8.7,0c0.5,0,1,0.1,1.5,0c0.4-0.1,0.8-0.4,1.4-0.6c0.6-0.8,0.7-1.9,0.7-3
				c0-10.1,0-20.2,0-30.2c0-1-0.3-2-0.4-2.9c-4.1-1.2-8.1-0.4-11.9-0.8c-0.2-0.2-0.4-0.4-0.6-0.6c0-22.3,0-44.7,0-67.1
				c0.2-0.2,0.4-0.4,0.7-0.7c2.9,0,5.8,0,8.7,0c0.9,0,1.9-0.2,2.7-0.4c0.3-0.6,0.5-1,0.8-1.6c0-11.5,0-23.3,0-35
				c-1-4.4-0.3-8.9-0.6-13.4c-4.1-0.5-8.4,0.6-12.4-1c0-0.5-0.1-0.7-0.1-0.9c0-12.6,0-25.2,0-37.7c0-0.5-0.5-1.2,0.5-1.4
				c0.2,0,0.3,0,0.5,0c0,13.1,0,26.2,0,39.5c4.4,0,8.7,0,13,0C238.5,163.7,238.5,181.3,238.5,199z"/>
			<path fill="#020202" d="M0.5,286.5c0.2,0,0.5,0,0.7,0c0.1,0.1,0.2,0.3,0.2,0.4c0,2.3,0,4.6,0,7.1c-0.4,0-0.7,0-1,0
				C0.5,291.5,0.5,289,0.5,286.5z"/>
			<path fill="#020202" d="M1,268c0,1.2,0,2.5,0,3.7c0,1.3-0.1,2.7,0.4,4c0.3,0.8,0.1,1.8,0.1,2.8c-0.4,0-0.7,0-1,0
				c0-3.5,0-7,0-10.5C0.7,268,0.8,268,1,268z"/>
			<path fill="#030303" d="M1,268c-0.2,0-0.3,0-0.5,0c0-0.3,0-0.7,0-1c0.2,0,0.3,0,0.5,0C1,267.3,1,267.7,1,268z"/>
			<path fill="#030303" d="M1,304.5c-0.2,0.2-0.3,0.3-0.5,0.5c0-0.3,0-0.7,0-1c0.2,0,0.3,0,0.5,0C1,304.2,1,304.3,1,304.5z"/>
			<path fill="#030303" d="M1,266c0,0.2,0,0.3,0,0.5c-0.2,0-0.3,0-0.5,0c0-0.3,0-0.7,0-1c0.2,0,0.3,0,0.5,0C1,265.7,1,265.8,1,266z"
				/>
			<path fill="#020202" d="M0.5,266.5c0.2,0,0.3,0,0.5,0c0,0.2,0,0.3,0,0.5c-0.2,0-0.3,0-0.5,0C0.5,266.8,0.5,266.7,0.5,266.5z"/>
			<path fill="#020202" d="M1,304c-0.2,0-0.3,0-0.5,0c0-0.2,0-0.3,0-0.5C0.7,303.7,0.8,303.8,1,304z"/>
			<path fill="#EF3F24" d="M66.5,106.5c-4.2,0-8.5,0-12.7,0c-0.1-0.1-0.1-0.1-0.2-0.2c0-0.1-0.1-0.1-0.1-0.2c0-8.6,0-17.3,0-26
				c-4.5,0-8.9,0-13.3,0c0,0,0,0-0.1,0.1c0,0.1-0.1,0.1-0.1,0.2c0,8.6,0,17.3,0,26c-4.3,0-8.5,0-12.8,0c-0.4-2.1-0.5-30.3-0.2-39.8
				c4.2,0,8.4,0,12.6,0c0.2-0.1,0.2-0.2,0.3-0.3c0-0.1,0.1-0.1,0.1-0.2c0-4.2,0-8.3,0-12.5c-4.3,0-8.5,0-12.7,0
				c-0.4-2.2-0.5-19.4-0.2-26.6c4.3,0,8.6,0,12.9,0c0,4.3,0,8.6,0,13c4.5,0,8.8,0,13.1,0c0.1,0,0.2,0,0.2-0.1c0.1,0,0.1-0.1,0.2-0.2
				c0-4.2,0-8.5,0-12.7c4.2,0,8.5,0,13,0c0-4.3,0-8.6,0-12.9c4.5,0,8.9,0,13.5,0c0,4.2,0,8.5,0,12.9c4.4,0,8.6,0,12.9,0
				c0-4.2,0-8.4,0-12.7c2.2-0.4,97.4-0.6,106-0.2c0,4.2,0,8.4,0,12.8c-8.7,0-17.5,0-26.4,0c0,4.4,0,8.6,0,13c17.6,0,35.2,0,52.9,0
				c0,4.6,0,9,0,13.4c-8.7,0-17.5,0-26.1,0c-0.1,0.1-0.2,0.2-0.3,0.3c0,0.1-0.1,0.1-0.1,0.2c0,4.2,0,8.3,0,12.5c4.3,0,8.6,0,13,0
				c0,4.5,0,9,0,13.5c4.6,0,9,0,13.4,0c0,4.3,0,8.5,0,12.9c0,0,0,0-0.1,0.1c-0.1,0-0.1,0.1-0.2,0.1c-8.7,0-17.3,0-26,0
				c0,4.5,0,8.9,0,13.4c4.2,0,8.5,0,12.9,0c0,4.4,0,8.6,0,13c-4.3,0-8.5,0-12.9,0c0,4.6,0,9,0,13.5c-8.9,0-17.7,0-26.5,0
				c0-8.8,0-17.6,0-26.4c-7.4-0.3-24.4-0.2-26.5,0.2c0,8.7,0,17.5,0,26.2c-4.5,0-8.9,0-13.6,0c0-4.6,0-9,0-13.6c-4.4,0-8.6,0-12.9,0
				c0-8.9,0-17.7,0-26.4c0-4.3,0-8.6,0-12.9c-8.9,0-17.7,0-26.5,0c0,4.3,0,8.5,0,12.9c-4.4,0-8.7,0-13,0c0-4.3,0-8.6,0-13
				c-4.5,0-8.8,0-13.1,0c-0.1,0-0.2,0-0.2,0.1c-0.1,0-0.1,0.1-0.2,0.2c0,4.2,0,8.5,0,12.7C66.5,97.5,66.5,102,66.5,106.5z"/>
			<path fill="#EF3F24" d="M66.5,252c0-4.2,0-8.5,0-12.7c0.1-0.1,0.1-0.1,0.2-0.2c0.1,0,0.1-0.1,0.2-0.1c4.3,0,8.6,0,13.1,0
				c0-4.6,0-9,0-13.5c8.8,0,17.7,0,26.5,0c0,4.5,0,8.9,0,13.5c4.4,0,8.7,0,13,0c8.8,0,17.7,0,26.5,0c0,4.3,0,8.6,0,12.9
				c4.3,0,8.6,0,12.9,0c0-4.3,0-8.5,0-12.8c-4.4,0-8.6,0-12.9,0c0-4.5,0-9,0-13.5c4.3,0,8.5,0,12.6,0c0.1,0,0.2,0,0.2-0.1
				c0.1,0,0.1-0.1,0.2-0.2c0-4.2,0-8.5,0-12.7c4.5,0,8.9,0,13.5,0c0-4.6,0-9,0-13.5c4.3,0,8.7,0,13,0c0,4.5,0,8.9,0,13.6
				c4.6,0,9,0,13.5,0c0,4.4,0,8.6,0,12.9c4.4,0,8.7,0,13,0c0,4.4,0,8.8,0,13.4c-4.3,0.2-8.6,0-12.9,0.1c0,8.8,0,17.5,0,26.4
				c4.2,0,8.5,0,12.9,0c0,4.4,0,8.6,0,13c4.5,0,9,0,13.5,0c0,4.6,0,9,0,13.4c-4.4,0-8.8,0-13.1,0c-0.2,0.1-0.2,0.2-0.3,0.3
				c0,0.1-0.1,0.1-0.1,0.2c0,4.2,0,8.3,0,12.5c-4.3,0-8.5,0-12.9,0c0,4.5,0,9,0,13.5c-4.6,0-9,0-13.5,0c0,4.4,0,8.7,0,13
				c-13.2,0-26.3,0-39.4,0c0-4.3,0-8.6,0-12.9c4.3,0,8.5,0,12.9,0c0-8.9,0-17.7,0-26.5c0-4.5,0-9,0-13.5c4.5,0,8.9,0,13.5,0
				c0-4.4,0-8.7,0-13c4.3,0,8.6,0,12.9,0c0-4.5,0-9,0-13.4c-4.3,0-8.5,0-12.8,0c0,4.5,0,9,0,13.4c-4.5,0-9,0-13.5,0
				c0,4.4,0,8.7,0,13c-4.3,0-8.7,0-13,0c-4.4,0-8.8,0-13.2,0c-0.1-0.1-0.1-0.1-0.2-0.2c0-0.1-0.1-0.1-0.1-0.2c0-4.2,0-8.3,0-12.5
				c-8.6,0-17.2,0-25.8,0c0,0,0,0-0.1,0.1c0,0.1-0.1,0.1-0.1,0.2c0,8.6,0,17.3,0,26.1c-4.6,0-9,0-13.5,0c0-4.5,0-8.9,0-13.5
				c-4.4,0-8.7,0-13,0c0-4.3,0-8.6,0-13c-4.6,0-9,0-13.5,0C66.5,261,66.5,256.5,66.5,252z"/>
			<path fill="#EFD0B1" d="M119.5,93c0,8.8,0,17.6,0,26.4c4.3,0,8.6,0,12.9,0c0,4.5,0,9,0,13.6c4.6,0,9.1,0,13.6,0c0,4.3,0,8.7,0,13
				c-4.5,0-8.9,0-13.6,0c0,4.6,0,9,0,13.5c-4.4,0-8.6,0-12.9,0c0,4.4,0,8.7,0,13c-13.1,0-26.3,0-39.5,0c0-4.4,0-8.7,0-13
				c-4.7,0-9.1,0-13.5,0c0-13.3,0-26.7,0-40c0-4.3,0-8.7,0-13c4.5,0,8.9,0,13.6,0c0,8.9,0,17.7,0,26.4c4.4,0,8.6,0,13,0
				c0-8.9,0-17.6,0-26.5c4.6,0,8.9,0,13.4,0c0-4.4,0-8.7,0-13c0-0.1,0-0.2,0.1-0.2c0-0.1,0.1-0.1,0.2-0.2C111,93,115.3,93,119.5,93z
				"/>
			<path fill="#EF3F24" d="M66.5,119.5c0,13.3,0,26.7,0,40c0,8.8,0,17.6,0,26.6c4.6,0,9.1,0,13.6,0c0,4.4,0,8.6,0,12.8
				c8.9,0,17.6,0,26.5,0c0-4.3,0-8.6,0-12.9c4.2,0,8.4,0,12.5,0c0.1,0,0.2,0,0.2-0.1c0.1,0,0.1-0.1,0.2-0.2c0-4.4,0-8.8,0-13.2
				c4.3,0,8.6,0,13,0c0,4.5,0,8.8,0,13.1c0,0.1,0,0.2,0.1,0.2c0,0.1,0.1,0.1,0.2,0.2c4.4,0,8.8,0,13.2,0c0,4.3,0,8.7,0,13
				c-4.5,0-8.9,0-13.6,0c0,4.6,0,9,0,13.5c-4.4,0-8.6,0-12.9,0c0,4.4,0,8.7,0,13c-4.3,0-8.7,0-13,0c0-4.3,0-8.6,0-12.9
				c-7.5-0.3-24.4-0.2-26.5,0.2c0,4.2,0,8.5,0,12.7c-4.4,0-8.8,0-13.2,0c-0.1-0.1-0.1-0.1-0.2-0.2c0-0.1-0.1-0.1-0.1-0.2
				c0-8.6,0-17.3,0-26c-4.3,0-8.5,0-12.9,0c0-17.7,0-35.3,0-53c-4.6,0-8.9,0-13.3,0c-0.4-2.2-0.5-19.8-0.2-26.6
				C48.9,119.5,57.7,119.5,66.5,119.5z"/>
			<path fill="#EF3F24" d="M146,146c0-4.3,0-8.7,0-13c8.8,0,17.7,0,26.5,0c0,4.3,0,8.6,0,13c4.4,0,8.7,0,13,0c0,4.5,0,8.9,0,13.5
				c4.5,0,8.8,0,13.1,0c0.1,0,0.2,0,0.2-0.1c0.1,0,0.1-0.1,0.2-0.2c0-4.4,0-8.8,0-13.2c4.2,0,8.5,0,12.7,0c0.1,0.1,0.1,0.1,0.2,0.2
				c0,0.1,0.1,0.1,0.1,0.2c0,4.3,0,8.6,0,13c4.5,0,8.9,0,13.4,0c0,8.9,0,17.6,0,26.6c-13.3,0-26.6,0-39.9,0c-8.8,0-17.7,0-26.5,0
				c-4.3,0-8.7,0-13,0c0-8.8,0-17.6,0-26.5c4.4,0,8.7,0,13,0c0-4.5,0-8.9,0-13.5C154.6,146,150.3,146,146,146z"/>
			<path fill="#EF3F24" d="M93,292c0,4.2,0,8.5,0,12.7c-0.1,0.1-0.1,0.1-0.2,0.2c-0.1,0-0.1,0.1-0.2,0.1c-4.2,0-8.3,0-12.5,0
				c0,4.5,0,8.9,0,13.4c-4.5,0-9,0-13.5,0c0,4.4,0,8.6,0,13c-4.4,0-8.6,0-13,0c0-4.2,0-8.4,0-12.8c-4.5,0-9,0-13.5,0
				c0-4.6,0-9,0-13.5c-4.4,0-8.6,0-13,0c0-4.4,0-8.6,0-12.9c-4.5,0-8.9,0-13.1,0c-0.2-0.1-0.2-0.2-0.3-0.3c0-0.1-0.1-0.1-0.1-0.2
				c0-4.3,0-8.6,0-13c8.8,0,17.5,0,26.1,0c0.2-0.1,0.2-0.2,0.3-0.3c0-0.1,0.1-0.1,0.1-0.2c0-4.2,0-8.3,0-12.6c4.6,0,9,0,13.5,0
				c4.3,0,8.7,0,13,0c0,4.3,0,8.6,0,13c4.6,0,9,0,13.5,0c0,4.5,0,8.9,0,13.5C84.4,292,88.7,292,93,292z"/>
			<path fill="#EFD0B1" d="M212,225.5c-4.3,0-8.6,0-13,0c0-4.4,0-8.6,0-12.9c-4.5,0-9,0-13.5,0c0-4.6,0-9.1,0-13.6
				c8.8,0,17.6,0,26.5,0C212,207.9,212,216.7,212,225.5z"/>
			<path fill="#EFD0B1" d="M159,186c8.8,0,17.7,0,26.5,0c0,4.3,0,8.7,0,13c-4.3,0-8.7,0-13,0c-4.5,0-9,0-13.5,0
				C159,194.7,159,190.3,159,186z"/>
			<path fill="#EF3F24" d="M40,27c0-4.2,0-8.5,0-12.7c0.1-0.1,0.1-0.1,0.2-0.2c0.1,0,0.1-0.1,0.2-0.1c4.3,0,8.6,0,13.1,0
				c0,4.4,0,8.7,0,13C49,27,44.5,27,40,27z"/>
			<path fill="#020202" d="M226.5,105.5c0,0.3,0,0.6,0,1c-0.4,0-0.7,0-1,0c-0.2,0-0.3,0-0.5,0c0-0.3,0-0.6,0-1
				C225.6,105.5,226,105.5,226.5,105.5z"/>
			<path fill="#020202" d="M1,304.5c0-0.2,0-0.3,0-0.5c0.3,0,0.7,0,1,0C2,304.7,1.4,304.4,1,304.5z"/>
			<path fill="#030303" d="M1,267c0-0.2,0-0.3,0-0.5c0.2,0,0.3,0,0.5,0C1.3,266.7,1.2,266.8,1,267z"/>
			<path fill="#020202" d="M1,266c0-0.2,0-0.3,0-0.5c0.1,0.1,0.3,0.2,0.4,0.3C1.3,265.9,1.1,265.9,1,266z"/>
			<path fill="#010101" d="M119.5,93c-4.2,0-8.5,0-12.7,0c-0.1,0.1-0.1,0.1-0.2,0.2c0,0.1-0.1,0.1-0.1,0.2c0,4.3,0,8.6,0,13
				c-4.5,0-8.9,0-13.4,0c0,8.9,0,17.6,0,26.5c-4.4,0-8.6,0-13,0c0-8.7,0-17.5,0-26.4c-4.6,0-9.1,0-13.6,0c0-4.5,0-9,0-13.5
				c4.5,0,9,0,13.5,0c4.3,0,8.6,0,13,0c0-4.4,0-8.6,0-12.9c8.8,0,17.6,0,26.5,0C119.5,84.4,119.5,88.7,119.5,93z"/>
			<path fill="#EFD0B1" d="M172.5,133c-8.8,0-17.7,0-26.5,0c0-8.7,0-17.5,0-26.2c2.1-0.4,19.1-0.5,26.5-0.2
				C172.5,115.4,172.5,124.2,172.5,133z"/>
			<path fill="#EFD0B1" d="M80,93c-4.5,0-9,0-13.5,0c0-4.2,0-8.5,0-12.7c0.1-0.1,0.1-0.1,0.2-0.2c0.1,0,0.1-0.1,0.2-0.1
				c4.3,0,8.6,0,13.1,0C80,84.4,80,88.7,80,93z"/>
			<path fill="#010101" d="M40,27c4.5,0,9,0,13.5,0c0,4.2,0,8.5,0,12.7c-0.1,0.1-0.1,0.1-0.2,0.2c-0.1,0-0.1,0.1-0.2,0.1
				c-4.3,0-8.6,0-13.1,0C40,35.6,40,31.3,40,27z"/>
			<path fill="#EFD0B1" d="M119.5,225.5c0-4.3,0-8.6,0-13c4.4,0,8.6,0,12.9,0c0-4.5,0-9,0-13.5c4.6,0,9.1,0,13.6,0c4.3,0,8.7,0,13,0
				c0,4.5,0,9,0,13.5c0,4.2,0,8.5,0,12.7c-0.1,0.1-0.1,0.1-0.2,0.2c-0.1,0-0.1,0.1-0.2,0.1c-4.2,0-8.3,0-12.6,0c0,4.6,0,9,0,13.5
				c-8.8,0-17.7,0-26.5,0C119.5,234.5,119.5,230,119.5,225.5z"/>
			<path fill="#010101" d="M80,225.5c0-4.2,0-8.5,0-12.7c2.1-0.4,19-0.5,26.5-0.2c0,4.3,0,8.6,0,12.9
				C97.7,225.5,88.8,225.5,80,225.5z"/>
			<path fill="#010101" d="M159,212.5c0-4.5,0-9,0-13.5c4.5,0,9,0,13.5,0c0,4.5,0,8.9,0,13.5C167.9,212.5,163.5,212.5,159,212.5z"/>
			<path fill="#010101" d="M119.5,225.5c0,4.5,0,9,0,13.5c-4.3,0-8.6,0-13,0c0-4.6,0-9,0-13.5C110.8,225.5,115.2,225.5,119.5,225.5z
				"/>
			<path fill="#010101" d="M146.1,239.1c4.2,0,8.5,0,12.9,0c0,4.3,0,8.5,0,12.8c-4.3,0-8.5,0-12.9,0
				C146.1,247.6,146.1,243.3,146.1,239.1z"/>
			<path fill="#010101" d="M119.5,172.5c0,4.4,0,8.8,0,13.2c-0.1,0.1-0.1,0.1-0.2,0.2c-0.1,0-0.1,0.1-0.2,0.1c-4.2,0-8.3,0-12.5,0
				c0,4.3,0,8.5,0,12.9c-8.9,0-17.6,0-26.5,0c0-4.2,0-8.4,0-12.8c-4.5,0-9,0-13.6,0c0-9,0-17.8,0-26.6c4.4,0,8.8,0,13.5,0
				c0,4.3,0,8.6,0,13C93.2,172.5,106.4,172.5,119.5,172.5z"/>
			<path fill="#010101" d="M146,146c4.3,0,8.6,0,13,0c0,4.5,0,8.9,0,13.5c-4.3,0-8.6,0-13,0c0,9,0,17.7,0,26.5c-4.4,0-8.8,0-13.2,0
				c-0.1-0.1-0.1-0.1-0.2-0.2c0-0.1-0.1-0.1-0.1-0.2c0-4.3,0-8.6,0-13.1c-4.4,0-8.7,0-13,0c0-4.3,0-8.6,0-13c4.4,0,8.6,0,12.9,0
				c0-4.5,0-9,0-13.5C137.1,146,141.5,146,146,146z"/>
			<path fill="#010101" d="M159,199c-4.3,0-8.7,0-13,0c0-4.3,0-8.7,0-13c4.3,0,8.7,0,13,0C159,190.3,159,194.7,159,199z"/>
		</g>
	</g>
</g>
</svg>
