<?xml version="1.0" encoding="utf-8"?>
<!-- Generator: Adobe Illustrator 17.1.0, SVG Export Plug-In . SVG Version: 6.00 Build 0)  -->
<!DOCTYPE svg PUBLIC "-//W3C//DTD SVG 1.1//EN" "http://www.w3.org/Graphics/SVG/1.1/DTD/svg11.dtd">
<svg version="1.1" id="Layer_1" xmlns="http://www.w3.org/2000/svg" xmlns:xlink="http://www.w3.org/1999/xlink" x="0px" y="0px"
	 viewBox="0 0 53.8 52.3" enable-background="new 0 0 53.8 52.3" xml:space="preserve">
<polygon fill="#FFFFFF" points="4.8,14.4 11.2,8 15.4,4.4 26.2,3.2 30.2,4.8 32.6,9.9 44.1,10.1 48.7,10.7 50.7,12.5 50.8,19.6 
	46.3,22.7 37.5,24.4 34.4,31.8 27.6,39.1 15.8,38.2 7.6,35.6 2.4,35.6 "/>
<g id="wmhIaP.tif">
	<g>
		<g>
			<path fill="#818181" d="M33.5,36.7c0,0.8,0,1.6,0,2.9c4.1,0,8.2,0,12.3,0c0.3,1.2,0.4,2,0.6,3.1c1.9,0.2,4.1,0.5,7.3,0.8
				c-2.1,2.2-3.5,3.6-5.6,5.8c-5.1,0-11.3,0-17.4,0c-0.3,1.3-0.5,2-0.8,3c-8,0-16.2,0-24.6,0c-0.2-0.5-0.5-1.4-1-2.9
				c-0.8,0-1.8,0-2.8,0c0-2.1,0-4.2,0-6.4c3.2-0.2,6.5,0.5,9.6-0.5c-0.1-1-0.1-1.5-0.1-2.4c-2.1-0.2-4.2-0.4-6.3-0.6
				c0-1.3,0-2.1,0-2.8c0.9,0,1.9,0,3.2,0c0-1.3,0-2.3,0-3.2c0.5,0,1.3-0.2,1.5,0c1.6,2.1,4.3,3.2,5.2,5.9c0.1,0.2,0.4,0.3,0.2,0.2
				c5.2,0,10.2,0,15,0c0.4-1.2,0.7-2.1,1-2.9C31.9,36.7,32.7,36.7,33.5,36.7z"/>
			<path fill="#818181" d="M1.6,14.3c1.1,0,2.1,0,3.2,0c0,6.4,0,12.8,0,19.1c0,1.1,0,2.1,0,3.2c-1.1,0-2.1,0-3.2,0
				C1.6,29.2,1.6,21.8,1.6,14.3z"/>
			<path fill="#818181" d="M11.2,8c0-0.8,0-1.6,0-2.5c1-0.5,2.1-1,3.2-1.5c0-0.9,0-1.7,0-2.5c5.3,0,10.6,0,15.9,0c0,1.1,0,2.1,0,3.2
				c-4.2,0-8.3,0-12.3,0c-0.5,1.4-0.8,2.3-1.1,3.2C14.9,8,13,8,11.2,8z"/>
			<path fill="#818181" d="M49.4,20.7c0,0.8,0,1.5,0,2.9c-2.9,0.1-5.9,0.3-9.3,0.5c-0.2,1.8-0.3,3.8-0.5,6.2c-1,0-2,0-3,0
				c0-3.2,0-6.4,0-9.6C40.9,20.7,45.2,20.7,49.4,20.7z"/>
			<path fill="#C8C8C8" d="M33.5,8c1.1,0,2.1,0,3.2,0c0,1.1,0,2.1,0,3.2c-4.2,0-8.3,0-12.6,0c0-1.2,0-1.9,0-3.2c2.1,0,4.2,0,6.2,0
				C31.3,8,32.4,8,33.5,8z"/>
			<path fill="#818181" d="M36.7,11.2c0-1.1,0-2.1,0-3.2c4.1,0,8.2,0,12.8,0c0,1.3,0,2.2,0,3.2C45.2,11.2,40.9,11.2,36.7,11.2z"/>
			<path fill="#818181" d="M36.7,30.3c0,2,0,4,0,6.4c-1.3,0-2.2,0-3.2,0c0-2,0-4,0-6.4C34.8,30.3,35.7,30.3,36.7,30.3z"/>
			<path fill="#818181" d="M49.4,11.2c0.9,0,1.9,0,3.2,0c0,1.3,0,2.3,0,3.2c-1.1,0-2.1,0-3.2,0C49.4,13.3,49.4,12.2,49.4,11.2z"/>
			<path fill="#C8C8C8" d="M49.4,14.3c1.1,0,2.1,0,3.2,0c0,1.1,0,2.1,0,3.2c-1.1,0-2.1,0-3.2,0C49.4,16.5,49.4,15.4,49.4,14.3z"/>
			<path fill="#818181" d="M49.4,17.5c1.1,0,2.1,0,3.2,0c0,0.9,0,1.9,0,3.2c-1.3,0-2.3,0-3.2,0C49.4,19.7,49.4,18.6,49.4,17.5z"/>
			<path fill="#818181" d="M33.5,8c-1.1,0-2.1,0-3.2,0c0-1.1,0-2.1,0-3.2c0.9,0,1.9,0,3.2,0C33.5,6.1,33.5,7,33.5,8z"/>
			<path fill="#C8C8C8" d="M36.7,30.3c-0.9,0-1.9,0-3.2,0c0,2.4,0,4.4,0,6.4c-0.8,0-1.6,0-2.6,0c-0.3,0.8-0.6,1.8-1,2.9
				c-4.8,0-9.7,0-15,0c0.1,0.1-0.2,0-0.2-0.2c-0.9-2.7-3.6-3.8-5.2-5.9c-0.2-0.3-1,0-1.5,0c0-4.2,0-8.3,0-12.6c1.2,0,1.9,0,3.2,0
				c0,3.1,0,6.2,0,7.8c3.1,3.2,5.2,5.4,7.6,7.8c2.3,0,5.1,0,7,0c1.7-1.7,2.8-2.7,4.4-4.4c0.1-1,0.3-3,0.4-4.7
				c1.2-0.2,1.9-0.4,2.6-0.5c0.2-2.2,0.4-4.1,0.7-6.1c1.2,0,2,0,2.8,0C36.7,23.9,36.7,27.1,36.7,30.3z"/>
			<path fill="#C8C8C8" d="M4.8,36.7c0-1.1,0-2.1,0-3.2c1.1,0,2.1,0,3.2,0c0,0.9,0,1.9,0,3.2C6.6,36.7,5.7,36.7,4.8,36.7z"/>
			<path fill="#818181" d="M4.8,14.3c0-0.8-0.2-2.1,0-2.2C6.8,11.3,8.1,10,9,8c0.1-0.3,1.4,0,2.2,0c0,2.1,0,4.2,0,6.4
				c-1.1,0-2.1,0-3.2,0S5.8,14.3,4.8,14.3z"/>
			<path fill="#C8C8C8" d="M36.7,20.7c0-0.8,0-1.5,0-3c4.2-0.3,8.5-0.1,12.8-0.2c0,1.1,0,2.1,0,3.2C45.2,20.7,40.9,20.7,36.7,20.7z"
				/>
			<path fill="#C8C8C8" d="M11.2,14.3c0,0.8,0,1.6,0,2.4c-2.9,1-2.9,1-3.2-2.4C9,14.3,10.1,14.3,11.2,14.3z"/>
		</g>
	</g>
</g>
</svg>
