<?xml version="1.0" encoding="utf-8"?>
<!-- Generator: Adobe Illustrator 17.1.0, SVG Export Plug-In . SVG Version: 6.00 Build 0)  -->
<!DOCTYPE svg PUBLIC "-//W3C//DTD SVG 1.1//EN" "http://www.w3.org/Graphics/SVG/1.1/DTD/svg11.dtd">
<svg version="1.1" id="Layer_1" xmlns="http://www.w3.org/2000/svg" xmlns:xlink="http://www.w3.org/1999/xlink" x="0px" y="0px"
	 viewBox="0 0 500 500" enable-background="new 0 0 500 500" xml:space="preserve">
<g id="zcfnPM_1_">
	<g>
		<g>
			<path fill="#FA3A00" d="M180.3,180.3c0-9.1,0-18.1,0-28.4c-4.1-1.4-8.6-2.9-15.8-5.2c0-8.7,0-18.4,0-27.3
				c-6.2-1.6-9.7-2.5-14.4-3.7c0-29.1,0-58.6,0-90.5c8.2-0.9,17.8-1.9,30.2-3.3c0-4.5,0-9.3,0-14.2c15.7,0,31.4,0,47,0
				c0,5.2,0,10.5,0,15.7c-9.9,0-19.8,0-25,0c-9.9,11.1-16.7,18.7-24.8,27.7c7.7,2.6,12.1,4.2,18.4,6.3c0,14.3,0,29.3,0,44.3
				c-4.8,0-9.6,0-16,0c0.6,12.3,1.1,21.9,1.6,31.4c6.6,0,10.5,0,14.3,0c0,4.6,0,9.1,0,15.7c6.5,0,11.1,0,15.7,0c0,15.7,0,31.4,0,47
				c-5.2,0-10.5,0-15.7,0c0-4.6,0-9.1,0-15.7C189.4,180.3,184.9,180.3,180.3,180.3z"/>
			<path fill="#FA3800" d="M196,493.8c0-9.7,0-19.4,0-31.4c6.3,0,11,0,15.7,0c0,4.8,0,9.6,0,13.5c17.8,5.9,15.5-4.9,15.7-13.5
				c4.6,0,9.1,0,15.7,0c0-6.5,0-11.1,0-15.7c5.2,0,10.5,0,15.7,0c0,4.6,0,9.1,0,15.7c6.5,0,11.1,0,15.7,0c0,5.2,0,10.5,0,15.7
				c-4.6,0-9.1,0-15.7,0c0,6.5,0,11.1,0,15.7C237.8,493.8,216.9,493.8,196,493.8z"/>
			<path fill="#FA3C00" d="M337.1,7.8c-1.9,5.2-2.8,11.2-5.9,15.5c-3.6,4.9-9.2,8.2-17.4,15.1c-8.4,0-22.1,0-36.8,0
				c-1.3-3.9-2.8-8.3-5-14.9c-9.1,0-19,0-28.9,0c0-5.2,0-10.5,0-15.7c15.7,0,31.4,0,47,0c0,4.8,0,9.6,0,13.5
				c17.8,5.9,15.5-4.9,15.7-13.5C316.2,7.8,326.6,7.8,337.1,7.8z"/>
			<path fill="#F1D2B2" d="M493.8,227.3c-3.8,0-7.6,0-13.5,0c-4.4-15.2-1.2-31.3-2.2-47c5.2,0,10.5,0,15.7,0
				C493.8,196,493.8,211.6,493.8,227.3z"/>
			<path fill="#FA3A00" d="M7.8,321.4c5.2,0,10.5,0,15.7,0c0,10.5,0,20.9,0,31.4c-5.2,0-10.5,0-15.7,0
				C7.8,342.3,7.8,331.8,7.8,321.4z"/>
			<path fill="#F1D2B2" d="M23.5,368.4c0,9.7,0,19.5,0,31.4c-6.3,0-11,0-15.7,0c0-10.5,0-20.9,0-31.4
				C13.1,368.4,18.3,368.4,23.5,368.4z"/>
			<path fill="#F1D1B1" d="M478.2,148.9c5.2,0,10.5,0,15.7,0c0,5.2,0,10.5,0,15.7c-5.2,0-10.5,0-15.7,0
				C478.2,159.4,478.2,154.2,478.2,148.9z"/>
			<path fill="#FEA43B" d="M478.2,164.6c5.2,0,10.5,0,15.7,0c0,5.2,0,10.5,0,15.7c-5.2,0-10.5,0-15.7,0
				C478.2,175.1,478.2,169.8,478.2,164.6z"/>
			<path fill="#FEA43B" d="M180.3,384.1c-3.8,0-7.7,0-12.6,0c-1.4,4.1-2.9,8.6-4.8,14.4c-13.2,0-27,0-40.5,0
				c-6.3-6.4-13.2-13.4-20.4-20.7c0.3-1.6,0-5.9,1.1-6.2c14.7-4.8,22.2-17.4,29.7-28.9c5-7.7,10.6-4.5,16.2-5.5c0,4.8,0,9.6,0,15.9
				c22.8-0.8,42.9,0.9,62.7-1.2c0-6.9,0-10.8,0-14.7c10.5,0,20.9,0,31.4,0c-1.1,5.6,3.2,12.3-5.8,16c-5.6,2.3-9.7,8.1-17.9,15.4
				c-8.6,0-22.5,0-39,0C180.3,374.5,180.3,379.3,180.3,384.1z"/>
			<path fill="#FEA43B" d="M133.3,274.4c9,0,18,0,27,0c1-0.8,2.4-1.4,2.8-2.5c4.7-12.9,17.7-18.5,25.4-28.7c0.9-1.2,4.9-0.2,7.5-0.2
				c5.2,0,10.5,0,15.7,0c0,4.6,0,9.1,0,15.7c6.5,0,11.1,0,15.7,0c0,5.2,0,10.5,0,15.7c0,5.2,0,10.5,0,15.7c-4.6,0-9.1,0-15.7,0
				c0,6.5,0,11.1,0,15.7c-20.9,0-41.8,0-62.7,0c0-3.9,0-7.7,0-13.8c-9.4-1-19.1-2.1-31.4-3.4c0-4.6,0-9.4,0-14.2
				C122.8,274.4,128,274.4,133.3,274.4z"/>
			<path fill="#F1D2B2" d="M305.7,133.3c0,3.9,0,7.7,0,12.1c5.2,2.4,10.5,4.8,15.7,7.1c0,4.4,0,8.2,0,12.1c-4.6,0-9.1,0-15.7,0
				c0,6.5,0,11.1,0,15.7c0,9.7,0,19.4,0,31.4c6.3,0,11,0,15.7,0c0,10,0,20,0,31c-6-0.4-10.5,0.6-12.7-1.2c-2.4-1.9-2.7-6.4-4.8-12.5
				c-2.6-0.3-7.2-1.2-12-1.5c-5-0.3-10-0.1-17.6-0.1c0-6.1,0-10.9,0-15.7c4.8,0,9.6,0,15,0c0-11.3,0-20,0-28.4
				c-5-2-9.4-3.8-13.8-5.6c-1.5-4.4-3-8.9-4.4-13c-10.1,0-19.2,0-28.2,0c0-5.2,0-10.5,0-15.7c10,0,20,0,29.2,0
				c2.3-7,3.8-11.5,5.2-15.7C287.6,133.3,296.6,133.3,305.7,133.3z"/>
			<path fill="#FA3900" d="M274.4,431.1c3.9,0,7.7,0,12.7,0c1.4-4.1,2.8-8.6,4.7-14.4c13.3,0,27.1,0,41,0c2.9-6.4,5.4-11.7,7.8-17
				c3,0,5.5,0,10.8,0c0.5,9.4,1,18.9,1.6,28.2c-5.7,2.2-10.1,4-14.5,5.7c-0.9,3.5-1.8,7-3,11.8c-8.3,0-17,0-26.3,0
				c-1.8,5.4-3.2,9.9-5.5,17c-3.9,0-8.7,0-13.5,0c-5.2,0-10.5,0-15.7,0C274.4,452,274.4,441.6,274.4,431.1z"/>
			<path fill="#FEA43C" d="M274.4,337.1c-10.5,0-20.9,0-31.4,0c0-3.9,0-7.7,0-12.1c5.2-2.4,10.5-4.8,15.7-7.1c0-4.4,0-8.2,0-12.1
				c2.6,0,6.2,1.1,7.6-0.2c9.5-8.8,18.5-18.1,30.6-30.2c14.1,0,33.3,0,53.6,0c0.8,2.7,1.8,6.2,3.9,13c-16,0.9-30.8,1.7-41.7,2.3
				c-6.9,6.3-11,12.4-16.6,14.6c-9.2,3.6-4.8,10.5-6,16.1c-4.6,0-9.1,0-15.7,0C274.4,327.9,274.4,332.5,274.4,337.1z"/>
			<path fill="#F0D0AF" d="M305.7,337.1c9.1,0,18.1,0,29.9,0c0.5,9.4,1.1,19,1.7,30c-10.1,0-18.8,0-28.2,0c-1.8,5.5-3.3,10-5.6,17
				c-9.1,0-19.1,0-29.1,0c0-10.5,0-20.9,0-31.4c4.6,0,9.1,0,15.7,0c0-6.5,0-11.1,0-15.7C295.3,337.1,300.5,337.1,305.7,337.1z"/>
			<path fill="#F1D1B1" d="M211.6,431.1c-3.8,0-7.5,0-14,0c-0.8-9.1-1.6-18.4-2.4-28.9c-3.8-1.2-8.2-2.7-14.9-4.8
				c0-3.9,0-8.6,0-13.3c20.2,0,40.4,0,61.7,0c0,10.4,0,19.1,0,29.7c-8.6,0.8-18.2,1.7-30.3,2.9C211.6,421.6,211.6,426.4,211.6,431.1
				z"/>
			<path fill="#F1D2B3" d="M274.4,211.6c-9.8,0-19.6,0-31.4,0c0,11.7,0,21.5,0,31.4c-5.2,0-10.5,0-15.7,0c0-10,0-20,0-29.1
				c-7-2.3-11.5-3.8-15.7-5.2c0-5,0-8.8,0-12.7c4.8,0,9.6,0,14.2,0c1.3-12.3,2.4-21.9,3.4-31.4c6,0,9.9,0,13.8,0c0,10,0,20,0,29.9
				c12.2,1.3,21.9,2.4,31.4,3.4C274.4,203.9,274.4,207.8,274.4,211.6z"/>
			<path fill="#FA3A00" d="M305.7,180.3c0-4.6,0-9.1,0-15.7c6.5,0,11.1,0,15.7,0c5.2,0,10.5,0,15.7,0c0,9.7,0,19.4,0,31.4
				c6.3,0,11,0,15.7,0c0,4.7,0,9.4,0,15.7c-11.9,0-21.6,0-31.4,0c0-9.7,0-19.4,0-31.4C315,180.3,310.4,180.3,305.7,180.3z"/>
			<path fill="#FA3C00" d="M431.1,101.9c5.2,0,10.5,0,15.7,0c0,5.2,0,10.5,0,15.7c-3.8,0-7.6,0-14,0c-1,10.2-2,20.6-3,30.6
				c-4.4,0.4-6.8,0.6-12.6,1.1c-0.6-10.6-1.1-21.1-1.7-31.7c0-4.6,0-9.1,0-15.7C422,101.9,426.6,101.9,431.1,101.9z"/>
			<path fill="#F1D2B2" d="M352.7,164.6c0-3.8,0-7.5,0-11.3c-5.7-4.2-11.5-8.4-24.7-18c19.3-1,29.8-1.6,40.4-2.1c4.6,0,9.1,0,15.7,0
				c0,6.5,0,11.1,0,15.7c-3.9,0-7.7,0-12.1,0c-2.4,5.2-4.8,10.5-7.1,15.7C360.5,164.6,356.6,164.6,352.7,164.6z"/>
			<path fill="#FA3B00" d="M384.1,148.9c0-4.6,0-9.1,0-15.7c-6.5,0-11.1,0-15.7,0c0-3.9,0-7.7,0-12.1c5.2-2.4,10.5-4.8,15.7-7.1
				c0-4.4,0-8.2,0-12.1c5.2,0,10.5,0,15.7,0c0,5.2,0,10.5,0,15.7c0,9.7,0,19.4,0,31.4C393.4,148.9,388.8,148.9,384.1,148.9z"/>
			<path fill="#FA3B00" d="M227.3,274.4c0-5.2,0-10.5,0-15.7c5.2,0,10.5,0,15.7,0c10.5,0,20.9,0,31.4,0c0,3.8,0,7.6,0,13.5
				C259.2,276.6,243,273.4,227.3,274.4z"/>
			<path fill="#F1D2B2" d="M274.4,258.7c-10.5,0-20.9,0-31.4,0c0-5.2,0-10.5,0-15.7c15.2,0,30.5,0,46.3,0c0,6,0,9.5,0,15.7
				C284,258.7,279.2,258.7,274.4,258.7z"/>
			<path fill="#FA3B00" d="M274.4,352.7c0,10.5,0,20.9,0,31.4c0,3.8,0,7.6,0,13.3c-3.8,0.9-8.1,1.9-14.2,3.4c0-16.4,0-31,0-48
				C264.9,352.7,269.6,352.7,274.4,352.7z"/>
			<path fill="#FA3A00" d="M211.6,462.5c0-10.5,0-20.9,0-31.4c9.7,0,19.4,0,31.4,0c0,6.3,0,11,0,15.7c-4.6,0-9.1,0-15.7,0
				c0,6.5,0,11.1,0,15.7C222.1,462.5,216.9,462.5,211.6,462.5z"/>
			<path fill="#FEA43B" d="M352.7,196c-4.7,0-9.3,0-15.7,0c0-11.9,0-21.6,0-31.4c5.2,0,10.5,0,15.7,0c0,3.7,0,7.4,0,11.9
				c4.9,2.2,10,4.5,15.6,7c-0.3,3.5-0.6,6.9-1,12.5C362.1,196,357.4,196,352.7,196z"/>
			<path fill="#F1D1B1" d="M399.8,117.6c0-5.2,0-10.5,0-15.7c0-3.9,0-7.7,0-14.3c9.4-0.5,19-1,31.4-1.6c0,6.4,0,11.2,0,16
				c-4.6,0-9.1,0-15.7,0c0,6.5,0,11.1,0,15.7C410.2,117.6,405,117.6,399.8,117.6z"/>
			<path fill="#F1D3B4" d="M227.3,290c9.7,0,19.5,0,31.4,0c0,6.3,0,11,0,15.7c-10.5,0-20.9,0-31.4,0
				C227.3,300.5,227.3,295.3,227.3,290z"/>
			<path fill="#FEA43B" d="M446.8,117.6c5.2,0,10.5,0,15.7,0c0,10.5,0,20.9,0,31.4c-5.2,0-10.5,0-15.7,0
				C446.8,138.5,446.8,128,446.8,117.6z"/>
			<path fill="#F1D1B0" d="M274.4,431.1c0,10.5,0,20.9,0,31.4c-4.6,0-9.1,0-15.7,0c0-6.5,0-11.1,0-15.7c0-4.6,0-9.1,0-15.7
				C265.2,431.1,269.8,431.1,274.4,431.1z"/>
			<path fill="#F1D1B1" d="M274.4,462.5c5.2,0,10.5,0,15.7,0c0,4.6,0,9.1,0,15.7c-6.5,0-11.1,0-15.7,0
				C274.4,472.9,274.4,467.7,274.4,462.5z"/>
			<path fill="#FA3C00" d="M290,337.1c0,4.6,0,9.1,0,15.7c-6.5,0-11.1,0-15.7,0c0-5.2,0-10.5,0-15.7
				C279.6,337.1,284.8,337.1,290,337.1z"/>
			<path fill="#F1D1B1" d="M446.8,148.9c5.2,0,10.5,0,15.7,0c0,5.2,0,10.5,0,15.7c-4.6,0-9.1,0-15.7,0
				C446.8,158.1,446.8,153.5,446.8,148.9z"/>
			<path fill="#F1D2B2" d="M478.2,164.6c0,5.2,0,10.5,0,15.7c-4.6,0-9.1,0-15.7,0c0-6.5,0-11.1,0-15.7
				C467.7,164.6,472.9,164.6,478.2,164.6z"/>
			<path fill="#FA3D00" d="M305.7,337.1c-5.2,0-10.5,0-15.7,0c0-5.2,0-10.5,0-15.7c4.6,0,9.1,0,15.7,0
				C305.7,327.9,305.7,332.5,305.7,337.1z"/>
			<path fill="#FEA43B" d="M196,227.3c-9.1,0-18.1,0-28.4,0c-1.4-4.1-2.9-8.6-5.2-15.7c-9.1,0-19.1,0-29.2,0c0-3.9,0-7.8,0-14.1
				c-24.9-3.9-50.5,0.2-76.7-2.5c-0.7-3.5-1.5-7.1-2.8-13.3c15.8-0.8,30.6-1.6,48.2-2.4c0-5.1,0-9.9,0-14.7c14.3,0,28.5,0,43.9,0
				c1.4,4.2,3,8.6,5.4,15.7c9.1,0,19.1,0,29.1,0c0,4.6,0,9.1,0,15.7c6.5,0,11.1,0,15.7,0C196,206.4,196,216.9,196,227.3z"/>
			<path fill="#F1D2B2" d="M133.3,211.6c0,3.8,0,7.6,0,12.1c5.1,2.3,10.4,4.7,15.6,7c0,2.9,0,5.4,0,10.7
				c-19.2,3.8-39.2,0.3-59.9,1.9c-1.3,4-2.7,8.4-5,15.4c-3.9,0-8.7,0-13.4,0c-5.2,0-10.5,0-15.7,0c1.9-5.2,2.7-11.2,5.9-15.5
				c3.6-4.8,9.2-8.1,18.1-15.5c2.5-0.1,11.1-0.5,20.5-0.9c1.4-4.2,2.9-8.6,5.1-15.1C113.6,211.6,123.4,211.6,133.3,211.6z"/>
			<path fill="#F1D2B2" d="M86.2,117.6c0-9.9,0-19.8,0-30.2c5.6-0.4,9-0.7,14.9-1.1c0,15.3,0,29.9,0,43.7c6.7,2.5,11.1,4.1,15.8,5.8
				c0,3.8,0,7.3,0,13.2c-5.5,0-10.2,0-15,0c-4.7,0-9.3,0-15.7,0C86.2,137,86.2,127.3,86.2,117.6z"/>
			<path fill="#FA3A00" d="M86.2,117.6c0,9.7,0,19.4,0,31.4c6.3,0,11,0,15.7,0c0,5.2,0,10.5,0,15.7c-9.1,0-18.2,0-29.3,0
				c0-14.7,0-29.5,0-47C76.6,117.6,81.4,117.6,86.2,117.6z"/>
			<path fill="#FEA43B" d="M23.5,321.4c0-9.7,0-19.5,0-31.4c6.3,0,11,0,15.7,0c0,9.7,0,19.4,0,31.4
				C32.8,321.4,28.2,321.4,23.5,321.4z"/>
			<path fill="#FA3A00" d="M54.9,258.7c5.2,0,10.5,0,15.7,0c0,5.2,0,10.5,0,15.7c-5.2,0-10.5,0-15.7,0s-10.5,0-15.7,0
				c0-4.6,0-9.1,0-15.7C45.7,258.7,50.3,258.7,54.9,258.7z"/>
			<path fill="#FEA43B" d="M39.2,274.4c5.2,0,10.5,0,15.7,0c0,4.6,0,9.1,0,15.7c-6.5,0-11.1,0-15.7,0
				C39.2,284.8,39.2,279.6,39.2,274.4z"/>
			<path fill="#F1D1B0" d="M39.2,290c4.6,0,9.1,0,15.7,0c0-6.5,0-11.1,0-15.7c5.2,0,10.5,0,15.7,0c0,4.6,0,9.1,0,15.7
				c6.5,0,11.1,0,15.7,0c0,10.5,0,20.9,0,31.4c-8.8,0-17.6,0-27.4,0c0.1,14.4-23.9,13.6-19.7,31.4c0,5.2,0,10.5,0,15.7
				c-5.2,0-10.5,0-15.7,0c0-5.2,0-10.5,0-15.7c0-10.5,0-20.9,0-31.4c4.7,0,9.3,0,15.7,0C39.2,309.5,39.2,299.7,39.2,290z"/>
			<path fill="#FA3C00" d="M134.5,469.3c0-16.8,0-25.4,0-35.5c2.9-1,7.3-2.4,11.8-3.9c1.8-4.4,3.5-8.8,5.9-14.6
				c9.1,0.4,18.6,0.8,34.3,1.5C168.2,435.3,154.2,449.4,134.5,469.3z"/>
			<path fill="#FA3D00" d="M148.9,337.1c0-5.2,0-10.5,0-15.7c20.9,0,41.8,0,62.7,0c0,5.2,0,10.5,0,15.7
				C190.7,337.1,169.8,337.1,148.9,337.1z"/>
			<path fill="#F1D2B2" d="M85.4,321.4c7.1,0,9.7,0,14.3,0c0,10.2,0,20.5,0,30.7c-3.6,0.3-6,0.5-11.3,1
				C87.4,342.6,86.4,332,85.4,321.4z"/>
			<path fill="#FEA43C" d="M39.2,368.4c0-5.2,0-10.5,0-15.7c4.6,0,9.1,0,15.7,0c0,6.5,0,11.1,0,15.7
				C49.6,368.4,44.4,368.4,39.2,368.4z"/>
			<path fill="#FEA43C" d="M54.6,368.1c5,0.4,9.7,0.8,14.9,1.2c0.4,4.7,0.7,8.1,1.1,13.3c-4.7,0.5-9,1-14.8,1.6
				C55.3,377.8,54.9,373.1,54.6,368.1z"/>
			<path fill="#FA3D00" d="M211.6,243c-5.2,0-10.5,0-15.7,0c0-5.2,0-10.5,0-15.7c4.6,0,9.1,0,15.7,0
				C211.6,233.9,211.6,238.4,211.6,243z"/>
			<path fill="#FA3C00" d="M133.3,274.4c-5.2,0-10.5,0-15.7,0c0-3.9,0-7.7,0-11.6C132,258.1,132,258.1,133.3,274.4z"/>
			<path fill="#FA3B00" d="M86.2,290c-4.6,0-9.1,0-15.7,0c0-6.5,0-11.1,0-15.7c4.6,0,9.1,0,15.7,0C86.2,280.9,86.2,285.5,86.2,290z"
				/>
			<path fill="#FA3C00" d="M148.9,321.4c-8.6-0.1-19.5,2.2-13.5-15.7c4,0,8.7,0,13.5,0C148.9,310.9,148.9,316.2,148.9,321.4z"/>
			<path fill="#FA3B00" d="M243,86.2c0-10.1,0-20.1,0-38.3c10.4,10.3,15.4,15.3,22.4,22.2c4.1,0,11.8,0,18.9,0
				c7.4,8.9,16.1,16.4,20.9,25.8c4.4,8.7,10.6,4.7,16.2,5.9c0,9.7,0,19.4,0,31.4c-6.3,0-11,0-15.7,0c0-4.7,0-9.4,0-14.8
				c-11.7-0.7-21.2-1.2-29.9-1.8c-1.7-6.5-2.8-10.9-3.8-14.8c-5.8,0-9.5,0-13.3,0c0-4.6,0-9.1,0-15.7
				C252.1,86.2,247.6,86.2,243,86.2z"/>
			<path fill="#F1D3B3" d="M227.3,39.2c0,14.9,0,29.8,0,47c6.3,0,11,0,15.7,0c0,5.2,0,10.5,0,15.7c-10.5,0-20.9,0-31.4,0
				c0.4-21-0.8-42.1,0.8-62.7C219.7,39.2,223.5,39.2,227.3,39.2z"/>
			<path fill="#FEA43C" d="M313.9,100.8c10-9,14.6-13,22.9-20.4c0-4.9,0-14.5,0-24.4c5.9-0.4,9.4-0.6,14.4-0.9c0,15.2,0,29.9,0,45.7
				C341.2,100.8,331.3,100.8,313.9,100.8z"/>
			<path fill="#F1D1B1" d="M462.5,148.9c0-10.5,0-20.9,0-31.4c4.7,0,9.3,0,15.7,0c0,11.9,0,21.6,0,31.4
				C472.9,148.9,467.7,148.9,462.5,148.9z"/>
			<path fill="#FA3C00" d="M384.4,102.2c-5-0.4-9.7-0.8-14.9-1.2c-0.4-4.7-0.7-8.1-1.1-13.3c4.7-0.5,9-1,14.8-1.6
				C383.7,92.5,384,97.2,384.4,102.2z"/>
			<path fill="#F1D2B3" d="M227.3,23.5c5.2,0,10.5,0,15.7,0c0,4.6,0,9.1,0,15.7c-6.5,0-11.1,0-15.7,0
				C227.3,34,227.3,28.7,227.3,23.5z"/>
			<path fill="#FA3C00" d="M446.5,102.2c0.4-5,0.8-9.7,1.2-14.9c4.7-0.4,8.1-0.7,13.3-1.1c0.5,4.7,1,9,1.6,14.8
				C456.2,101.5,451.5,101.8,446.5,102.2z"/>
			<path fill="#F0D0AE" d="M211.6,462.5c5.2,0,10.5,0,15.7,0c-0.1,8.6,2.2,19.5-15.7,13.5C211.6,472.1,211.6,467.3,211.6,462.5z"/>
			<path fill="#F0D0AE" d="M227.3,462.5c0-4.6,0-9.1,0-15.7c6.5,0,11.1,0,15.7,0c0,4.6,0,9.1,0,15.7
				C236.5,462.5,231.9,462.5,227.3,462.5z"/>
			<path fill="#FEA43B" d="M462.5,148.9c5.2,0,10.5,0,15.7,0c0,5.2,0,10.5,0,15.7c-5.2,0-10.5,0-15.7,0
				C462.5,159.4,462.5,154.2,462.5,148.9z"/>
			<path fill="#FA3C00" d="M211.6,243c5.2,0,10.5,0,15.7,0c0,5.2,0,10.5,0,15.7c-4.6,0-9.1,0-15.7,0
				C211.6,252.1,211.6,247.6,211.6,243z"/>
			<path fill="#FEA43C" d="M211.6,101.9c0,4.6,0,9.1,0,15.7c6.5,0,11.1,0,15.7,0c0,4.6,0,9.1,0,15.7c6.5,0,11.1,0,15.7,0
				c0,5.2,0,10.5,0,15.7c-10.5,0-20.9,0-31.4,0c0-4.6,0-9.1,0-15.7c-6.5,0-11.1,0-15.7,0c0-10.5,0-20.9,0-31.4
				C201.2,101.9,206.4,101.9,211.6,101.9z"/>
			<path fill="#FA4100" d="M211.6,305.7c5.2,0,10.5,0,15.7,0c0,4.6,0,9.1,0,15.7c-6.5,0-11.1,0-15.7,0
				C211.6,316.2,211.6,310.9,211.6,305.7z"/>
			<path fill="#F1D2B3" d="M243,133.3c-4.6,0-9.1,0-15.7,0c0-6.5,0-11.1,0-15.7c4.6,0,9.1,0,15.7,0c0-6.5,0-11.1,0-15.7
				c5.2,0,10.5,0,15.7,0c0,9.7,0,19.4,0,31.4C252.3,133.3,247.7,133.3,243,133.3z"/>
		</g>
	</g>
</g>
</svg>
