<?xml version="1.0" encoding="utf-8"?>
<!-- Generator: Adobe Illustrator 17.1.0, SVG Export Plug-In . SVG Version: 6.00 Build 0)  -->
<!DOCTYPE svg PUBLIC "-//W3C//DTD SVG 1.1//EN" "http://www.w3.org/Graphics/SVG/1.1/DTD/svg11.dtd">
<svg version="1.1" id="Layer_1" xmlns="http://www.w3.org/2000/svg" xmlns:xlink="http://www.w3.org/1999/xlink" x="0px" y="0px"
	 viewBox="0 0 83 88" enable-background="new 0 0 83 88" xml:space="preserve">
<g id="LQer9B_1_">
	<g>
		<g>
			<path fill="#010101" d="M42,70c0.7,0,1.3,0,2,0c0.5-0.2,1-0.3,1.6-0.5c-0.4-2.2,0.5-4.4-0.5-6.3c-1.5-0.2-2.7-0.4-4.1-0.6
				c-0.2-1.2-0.5-2.3-0.7-3.7c-0.3-0.1-0.8-0.4-1.3-0.4c-1.1,0.1-2-0.2-3.1-0.9c-0.2-1.1-0.3-2.2-0.5-3.6c-0.1-0.1-0.3-0.3-0.6-0.6
				c-1.2,0-2.6,0.2-3.9-0.9c-0.1-1-0.3-2.2-0.5-3.5c-0.2-0.2-0.3-0.3-0.4-0.4c-1.2-0.2-2.3-0.4-3.5-0.7c-0.2-1.3-0.4-2.6-0.6-3.8
				c-0.2-0.2-0.4-0.5-0.6-0.7c-1.4,0.1-2.7,0.1-3.9-0.9c-0.1-1-0.3-2.2-0.5-3.5c-0.1-0.1-0.3-0.3-0.6-0.6c-1.2,0-2.6,0.2-3.7-0.7
				c-0.2-0.5-0.5-1-0.6-1.5c-0.1-0.5,0-1.1,0-1.6c-0.3-0.3-0.5-0.5-0.6-0.6c-1.3-0.2-2.6-0.4-4-0.6c-0.2-1.4-0.4-2.6-0.6-3.9
				c-0.2-0.2-0.4-0.5-0.6-0.8c-1.3,0.2-2.6,0.1-3.9-0.8c-0.1-1-0.3-2.2-0.5-3.5c-0.1-0.1-0.3-0.3-0.4-0.4c-1.4-0.2-2.6-0.4-3.9-0.6
				c-0.2,0-0.3,0-0.5,0s-0.3,0-0.5,0c0-2.3,0-4.7,0-7c0.2,0,0.3,0,0.5,0c0.2-0.2,0.4-0.4,0.5-0.6c0.1-0.5,0-0.9,0-1.4
				c0-0.3,0-0.7,0-1c-0.1-1,0.1-2-0.1-3c-0.4,0-0.6,0-0.9,0c0-0.8,0-1.7,0-2.5c0.3,0,0.6,0,1,0C1.5,6.5,1.6,5.3,1.4,4
				C1,4,0.7,4,0.5,4c0-0.7,0-1.3,0-2C0.7,2,0.8,2,1,2s0.3,0,0.5,0c4.4,0,8.8,0,13.2,0c0.7,0,1.5,0.1,2.2,0c0.7-0.1,1.4-0.3,2-0.5
				c0,0.2,0,0.3,0,0.5c-0.7,0.9-0.6,1.9-0.4,3c0.5,0,0.9,0,1.4,0c0,0.2,0,0.3,0,0.5c-0.2,0.2-0.4,0.3-0.7,0.6
				C20.7,7.3,22.1,7,23.5,7c0,0.9,0,1.8,0,3c0.6,0.6,1.4,1.4,2,2c1,0,1.7,0,2.5,0c0,0.7,0,1.5,0,2.5c0.6,0.6,1.4,1.4,2,2
				c1.1,0,2,0,3,0c0,0.9,0,1.8,0,3c0.6,0.6,1.4,1.4,2,2c1.1,0,2,0,3,0c0,0.9,0,1.8,0,3c0.6,0.6,1.4,1.4,2,2c1.1,0,2,0,3,0
				c0,0.9,0,1.8,0,3c0.6,0.6,1.4,1.4,2,2c1.1,0,2,0,3,0c0,0.9,0,1.8,0,3c0.6,0.6,1.4,1.4,2,2c1,0,1.7,0,2.5,0c0,0.8,0,1.6,0,2.5
				c0.6,0,1,0,1.5,0c0.2,0.2,0.3,0.3,0.5,0.5c0,0.5,0,0.9,0,1.5c1.1,0,2,0,3,0c0.2,0,0.3,0,0.5,0c-0.1,1.3,0.1,2.5,0.6,3.8
				c0.8,0.6,1.9,0.7,3,0.7c5.1,0,10.2,0,15.3,0c0.2,0.2,0.3,0.3,0.5,0.5c0.1,1.3-0.3,2.7,0.9,3.9c1,0.3,2.3,0.8,3.6,0.6
				c0.7,0,0.4,0.6,0.5,1c0,1.1,0,2.1,0,3.2c0,1.1-0.1,2.2,0.1,3.3c0.4,0,0.6,0,0.9,0c0,1.7,0,3.3,0,5c-0.3,0-0.6,0-1,0
				c0,1.7,0,3.1,0,4.6c0,0.1,0.2,0.3,0.2,0.4c0.2,0,0.5,0,0.7,0c0,0.3,0,0.7,0,1c-0.3,0.2-0.6,0.4-1,0.7c0,1.1-0.2,2.2,1,2.8
				c0,3.2,0,6.3,0,9.5c-0.4,0.1-1-0.2-1,0.5C82,82.7,81.2,82,81,83c-0.8,0.2-1.7,0.3-2.5,0.5c-1,0.1-1,0.1-0.7,1c0.2,0,0.5,0,0.7,0
				c0,0.5,0,1,0,1.5c-0.5,0-0.9,0-1.5,0c0,0.4,0,0.7,0,1c-0.3,0-0.6,0-1,0c0,0.6,0,1,0,1.5c-9.7,0-19.3,0-29,0c0-0.5,0-0.9,0-1.5
				c-0.4,0-0.7,0-1,0c-0.1-0.4,0.2-1-0.5-1c0-0.5,0-1,0-1.5c-0.1-1.1-0.4-1.4-1.5-1.5c-0.7,0-1.3,0-2,0c-0.7-0.5-1.2-1.2-1.5-2
				c-0.2-1.7,0.4-3.4-0.5-5.1c0.7-0.6,0.4-1.5,0.5-2.4c0-0.3,0-0.6,0-1c-0.4,0-0.7,0-1,0c0-0.3,0-0.7,0-1c0.5,0,0.9,0,1,0
				C41.2,70.8,41.6,70.4,42,70z M74,79c1.5,0,2.9,0,4.5,0c0-1,0-1.8,0-2.6c0-0.8-0.1-1.6-0.1-2.4c-1.6,0-3,0-4.4,0c0-3.3,0-6.7,0-10
				c1.5,0,3,0,4.5,0c0-3.2,0-6.1,0-9.1c0-0.1,0-0.2-0.1-0.2c0-0.1-0.1-0.1-0.2-0.2c-1.4,0-2.8,0-4.3-0.1c0-1.6,0-3.2,0-4.8
				c-1.7,0-3.3,0-4.9,0c0,1.7,0,3.2,0,4.8c1.7,0,3.3,0,4.9,0.1c0,3.2,0,6.3,0,9.5c-1.7,0-3.3,0-5,0c0-1.5,0-3,0-4.5
				c-1.7,0-3.3,0-5,0c0-1.7,0-3.3,0-5c-1.7,0-3.3,0-5,0c0-1.7,0-3.3,0-5c-1.7,0-3.3,0-4.9,0c-0.2-1.7,0.1-3.3-0.2-5
				c-1.5,0-2.9,0-4.4,0c0-1.6,0-3.2,0-4.9c-1.7,0-3.3,0-5,0c0-1.6,0-3,0-4.5c-1.7,0-3.3,0-5,0c0-1.7,0-3.3,0-4.9
				c-1.7-0.2-3.3,0.1-5-0.2c0-1.7,0-3.3,0-4.9c-1.7,0-3.2,0-4.9,0c0-1.7,0-3.3,0-5c-1.6,0-3,0-4.5,0c0-1.7,0-3.3,0-5
				c-1.7,0-3.3,0-4.9,0c0-1.5,0-2.9,0-4.4c-1.7,0-3.3,0-5,0c0-1.7,0-3.3,0-4.9c-3.4,0-6.7,0-9.9,0c0,4.8,0,9.6,0,14.5
				c1.7,0,3.3,0,5,0c0,1.7,0,3.3,0,4.9c1.6,0,3.2,0,4.9,0c0,1.7,0,3.3,0,5c1.7,0,3.3,0,5,0c0,1.7,0,3.3,0,5c1.7,0,3.3,0,5,0
				c0,1.5,0,3,0,4.4c1.6,0,3,0,4.4,0c0,1.6,0,3.3,0,5c1.7,0,3.4,0,5,0c0,1.6,0,3.3,0,5c1.7,0,3.4,0,5,0c0,1.6,0,3.3,0,5
				c1.7,0,3.4,0,5,0c0,1.6,0,3.3,0,5c1.7,0,3.4,0,5,0c0,1.5,0,2.9,0,4.5c1.6,0,3,0,4.5,0c0,1.6,0,3.3,0,5c1.7,0,3.4,0,5,0
				c0,1.7,0,3.3,0,5s0,3.3,0,5c-3.2,0-6.3,0-9.6-0.1c0-1.6,0-3.2,0-4.8c-1.7,0-3.3,0-4.9,0c0,1.7,0,3.2,0,4.8c1.7,0,3.3,0,4.9,0.1
				c0,1.6,0,3.3,0,5c3.3-0.1,6.4,0.1,9.5-0.1c0-1.8,0-3.4,0-4.9c3.3,0,6.7,0,10,0c0,1.6,0,3.3,0,5c1,0,1.8,0,2.6,0
				c0.8,0,1.6-0.1,2.4-0.1C74,82.2,74,80.6,74,79z"/>
			<path fill="#030303" d="M19,1.5c-0.7,0.2-1.4,0.4-2,0.5c-0.7,0.1-1.5,0-2.2,0C10.3,2,5.9,2,1.5,2C1.3,1.8,1.2,1.7,1,1.5
				c-0.2,0-0.3,0-0.5,0c0-0.2,0-0.3,0-0.5c0.4-0.1,1,0.2,1-0.5c5.7,0,11.3,0,17,0C18.7,0.8,18.8,1.2,19,1.5z"/>
			<path fill="#030303" d="M83.5,58c-0.2,0-0.5,0-0.9,0c-0.2-1.1-0.1-2.2-0.1-3.3c0-1.1,0-2.1,0-3.2c0.3,0,0.7,0,1,0
				C83.5,53.7,83.5,55.8,83.5,58z"/>
			<path fill="#030303" d="M83.5,68c-0.2,0-0.5,0-0.7,0c-0.1-0.1-0.2-0.3-0.2-0.4c0-1.5,0-3,0-4.6c0.4,0,0.7,0,1,0
				C83.5,64.7,83.5,66.3,83.5,68z"/>
			<path fill="#030303" d="M1.5,14.5c0,0.5,0.1,0.9,0,1.4c0,0.2-0.3,0.4-0.5,0.6C0.8,16,1.5,15.2,0.5,15c0-1.5,0-3,0-4.5
				c0.2,0,0.5,0,0.9,0c0.3,1,0.1,2,0.1,3c-0.2,0.1-0.3,0.3-0.5,0.4C1.2,14.1,1.3,14.3,1.5,14.5z"/>
			<path fill="#030303" d="M0.5,4C0.7,4,1,4,1.4,4c0.1,1.3,0,2.5,0.1,4c-0.4,0-0.7,0-1,0C0.5,6.7,0.5,5.3,0.5,4z"/>
			<path fill="#030303" d="M83.5,72.5c-1.2-0.6-1-1.8-1-2.8c0.4-0.2,0.7-0.5,1-0.7C83.5,70.2,83.5,71.3,83.5,72.5z"/>
			<path fill="#040404" d="M83.5,51.5c-0.3,0-0.7,0-1,0c-0.1-0.4,0.2-1-0.5-1c0-0.3,0-0.6,0-1c0.6,0,1,0,1.5,0
				C83.5,50.2,83.5,50.8,83.5,51.5z"/>
			<path fill="#040404" d="M83.5,84c-0.5,0-1,0-1.5,0c0.2-0.5,0.3-1,0.5-1.5c0-0.7,0.6-0.4,1-0.5C83.5,82.7,83.5,83.3,83.5,84z"/>
			<path fill="#030303" d="M78.5,87c0,0.5,0,1,0,1.5c-0.5,0-1,0-1.5,0c0-0.5,0-1,0-1.5C77.5,87,78,87,78.5,87z"/>
			<path fill="#030303" d="M44.5,88.5c0-0.5,0-1,0-1.5c0.5,0,1,0,1.5,0c0,0.5,0,1,0,1.5C45.5,88.5,45,88.5,44.5,88.5z"/>
			<path fill="#030303" d="M46,88.5c0-0.5,0-1,0-1.5c0.3,0,0.6,0,1,0c0,0.6,0,1,0,1.5C46.7,88.5,46.3,88.5,46,88.5z"/>
			<path fill="#030303" d="M77,87c0,0.5,0,1,0,1.5c-0.3,0-0.7,0-1,0c0-0.5,0-0.9,0-1.5C76.4,87,76.7,87,77,87z"/>
			<path fill="#040404" d="M19,1.5c-0.2-0.3-0.3-0.7-0.5-1c0.5,0,1,0,1.5,0c0,0.3,0,0.7,0,1c-0.3,0.2-0.7,0.3-1,0.5
				C19,1.8,19,1.7,19,1.5z"/>
			<path fill="#020202" d="M0.5,15c1,0.2,0.3,1,0.5,1.5c-0.2,0-0.3,0-0.5,0C0.5,16,0.5,15.5,0.5,15z"/>
			<path fill="#040404" d="M1.5,0.5c0,0.7-0.6,0.4-1,0.5C0.4,0,1.2,0.7,1.5,0.5z"/>
			<path fill="#030303" d="M0.5,1.5c0.2,0,0.3,0,0.5,0C1,1.7,1,1.8,1,2C0.8,2,0.7,2,0.5,2C0.5,1.8,0.5,1.7,0.5,1.5z"/>
			<path fill="#030303" d="M38,21.5c-0.9,0-1.8,0-3,0c-0.6-0.6-1.4-1.4-2-2c0-1.1,0-2,0-3c0.5,0,1,0,1.5,0c0,1.1,0,2.3,0,3.5
				c1.2,0,2.4,0,3.5,0C38,20.5,38,21,38,21.5z"/>
			<path fill="#030303" d="M43,26.5c-0.9,0-1.8,0-3,0c-0.6-0.6-1.4-1.4-2-2c0-1.1,0-2,0-3c0.5,0,1,0,1.5,0c0,1.1,0,2.3,0,3.5
				c1.2,0,2.4,0,3.5,0C43,25.5,43,26,43,26.5z"/>
			<path fill="#030303" d="M48,31.5c-0.9,0-1.8,0-3,0c-0.6-0.6-1.4-1.4-2-2c0-1.1,0-2,0-3c0.5,0,1,0,1.5,0c0,1.1,0,2.3,0,3.5
				c1.2,0,2.4,0,3.5,0C48,30.5,48,31,48,31.5z"/>
			<path fill="#030303" d="M28,12c-0.7,0-1.5,0-2.5,0c-0.6-0.6-1.4-1.4-2-2c0-1.1,0-2,0-3c0.5,0,1,0,1.5,0c0,1.1,0,2.3,0,3.5
				c1.1,0,2,0,3,0C28,11,28,11.5,28,12z"/>
			<path fill="#030303" d="M33,16.5c-0.9,0-1.8,0-3,0c-0.6-0.6-1.4-1.4-2-2c0-1,0-1.7,0-2.5c0.5,0,1,0,1.5,0c0,1,0,1.9,0,3
				c1.2,0,2.4,0,3.5,0C33,15.5,33,16,33,16.5z"/>
			<path fill="#030303" d="M52.5,36.5c-0.7,0-1.5,0-2.5,0c-0.6-0.6-1.4-1.4-2-2c0-1.1,0-2,0-3c0.5,0,1,0,1.5,0c0,1.1,0,2.3,0,3.5
				c1.1,0,2,0,3,0C52.5,35.5,52.5,36,52.5,36.5z"/>
			<path fill="#030303" d="M23.5,7c-1.4,0-2.8,0.3-4.2-0.9c0.3-0.2,0.5-0.4,0.7-0.6c1.2,0,2.3,0,3.5,0C23.5,6,23.5,6.5,23.5,7z"/>
			<path fill="#030303" d="M19,2c0.3-0.2,0.7-0.3,1-0.5c0,1.2,0,2.3,0,3.5c-0.5,0-0.9,0-1.4,0C18.4,3.9,18.3,2.9,19,2z"/>
			<path fill="#030303" d="M57.5,41c-1,0-1.9,0-3,0c0-0.6,0-1,0-1.5c1,0,2,0,3,0C57.5,40,57.5,40.5,57.5,41z"/>
			<path fill="#030303" d="M54,39c-0.5,0-0.9,0-1.5,0c0-0.9,0-1.7,0-2.5c0.5,0,1,0,1.5,0C54,37.3,54,38.2,54,39z"/>
			<path fill="#040404" d="M23.5,7c0-0.5,0-1,0-1.5c0.5,0,0.9,0,1.5,0c0,0.6,0,1,0,1.5C24.5,7,24,7,23.5,7z"/>
			<path fill="#040404" d="M44.5,26.5c-0.5,0-1,0-1.5,0c0-0.5,0-1,0-1.5c0.5,0,0.9,0,1.5,0C44.5,25.6,44.5,26,44.5,26.5z"/>
			<path fill="#040404" d="M57.5,41c0-0.5,0-1,0-1.5c0.4,0,0.8,0,1.4,0c0,0.4,0.1,0.9,0.1,1.5c-0.4,0-0.7,0-1,0
				C57.8,41,57.7,41,57.5,41z"/>
			<path fill="#040404" d="M54,36.5c-0.5,0-1,0-1.5,0c0-0.5,0-1,0-1.5c0.5,0,0.9,0,1.5,0C54,35.6,54,36,54,36.5z"/>
			<path fill="#040404" d="M39.5,21.5c-0.5,0-1,0-1.5,0c0-0.5,0-1,0-1.5c0.5,0,0.9,0,1.5,0C39.5,20.6,39.5,21,39.5,21.5z"/>
			<path fill="#040404" d="M33,16.5c0-0.5,0-1,0-1.5c0.5,0,0.9,0,1.5,0c0,0.6,0,1,0,1.5C34,16.5,33.5,16.5,33,16.5z"/>
			<path fill="#040404" d="M29.5,12c-0.5,0-1,0-1.5,0c0-0.5,0-1,0-1.5c0.5,0,0.9,0,1.5,0C29.5,11.1,29.5,11.5,29.5,12z"/>
			<path fill="#040404" d="M49.5,31.5c-0.5,0-1,0-1.5,0c0-0.5,0-1,0-1.5c0.5,0,0.9,0,1.5,0C49.5,30.6,49.5,31,49.5,31.5z"/>
			<path fill="#040404" d="M77.5,46c-0.2-0.2-0.3-0.3-0.5-0.5c0-0.2,0-0.5,0-0.9c0.4,0,0.8-0.1,1.4-0.1c0,0.5,0,0.9,0,1.5
				C78.1,46,77.8,46,77.5,46z"/>
			<path fill="#030303" d="M1.5,23.5c1.3,0.2,2.5,0.4,3.9,0.6c0.1,0.1,0.4,0.4,0.4,0.4c0.2,1.3,0.4,2.5,0.5,3.5
				c1.3,0.9,2.6,1,3.9,0.8c0.2,0.3,0.4,0.5,0.6,0.8c0.2,1.2,0.4,2.5,0.6,3.9c1.4,0.2,2.6,0.4,4,0.6c0.1,0.1,0.3,0.3,0.6,0.6
				c0,0.4-0.1,1,0,1.6c0.1,0.5,0.4,1,0.6,1.5c1.1,0.9,2.4,0.7,3.7,0.7c0.3,0.3,0.5,0.5,0.6,0.6c0.2,1.3,0.4,2.5,0.5,3.5
				c1.3,1,2.6,1,3.9,0.9c0.2,0.2,0.4,0.5,0.6,0.7c0.2,1.2,0.4,2.5,0.6,3.8c1.2,0.2,2.3,0.5,3.5,0.7c0.1,0.1,0.2,0.2,0.4,0.4
				c0.2,1.3,0.3,2.5,0.5,3.5c1.4,1.1,2.7,0.9,3.9,0.9c0.3,0.3,0.5,0.5,0.6,0.6c0.2,1.3,0.4,2.5,0.5,3.6c1.1,0.7,2,0.9,3.1,0.9
				c0.5,0,1,0.3,1.3,0.4c0.3,1.4,0.5,2.4,0.7,3.7c1.3,0.2,2.6,0.4,4.1,0.6c1,1.9,0.1,4,0.5,6.3C45,69.7,44.5,69.8,44,70
				c0.7-1.9,0.5-3.8,0.5-6c-1.6,0-3.2,0-4.9,0c0-1.6,0-3,0-4.4c-1.6,0-3.2,0-4.9,0c-0.3-1.7,0-3.3-0.2-5c-1.6,0-3.1,0-4.9,0
				c0-1.7,0-3.3,0-5c-1.6,0-3,0-4.5,0c0-1.7,0-3.3,0-5c-1.7,0-3.3,0-4.9,0c0-1.6,0-3.2,0-4.9c-1.7-0.3-3.3,0-5-0.2
				c0-1.4,0-2.8,0-4.4c-1.7,0-3.3,0-5,0c0-1.7,0-3.3,0-5c-1.7,0-3.3,0-5,0c0-1.7,0-3.3,0-5c-1.2,0-2.4,0-3.5,0c0-0.3,0-0.7,0-1
				C1.5,23.8,1.5,23.7,1.5,23.5z"/>
			<path fill="#030303" d="M42,70c-0.4,0.4-0.8,0.8-1.5,1.5c-0.1,0-0.6,0-1,0c0-0.7,0-1.3,0-2c0.2-0.2,0.3-0.3,0.5-0.5
				c0.6,0,1.2,0,2,0C42,69.4,42,69.7,42,70z"/>
			<path fill="#030303" d="M40.5,81c0.3,0.8,0.8,1.5,1.5,2c0,0.3,0,0.6,0,1c-0.6,0-1,0-1.5,0c0-0.3,0-0.6,0-1c-0.4,0-0.7,0-1,0
				c0-0.6,0-1.2,0-2C39.9,81,40.2,81,40.5,81z"/>
			<path fill="#030303" d="M44,83c1.1,0.1,1.4,0.4,1.5,1.5C44.4,84.4,44.1,84.1,44,83z"/>
			<path fill="#030303" d="M46,87c-0.5,0-1,0-1.5,0c0-0.3,0-0.6,0-1c0.4,0,0.7,0,1,0C46.2,86,45.9,86.6,46,87z"/>
			<path fill="#030303" d="M39.5,72.5c0.3,0,0.6,0,1,0c0,0.4,0,0.7,0,1c-0.3,0-0.6,0-1,0C39.5,73.1,39.5,72.8,39.5,72.5z"/>
			<path fill="#040404" d="M39.5,83c0.3,0,0.6,0,1,0c0,0.4,0,0.7,0,1c-0.3,0-0.6,0-1,0C39.5,83.6,39.5,83.3,39.5,83z"/>
			<path fill="#040404" d="M1.5,24c0,0.3,0,0.7,0,1c-0.7,0-0.4-0.6-0.5-1C1.2,24,1.3,24,1.5,24z"/>
			<path fill="#030303" d="M1.5,24c-0.2,0-0.3,0-0.5,0c0-0.2,0-0.3,0-0.5c0.2,0,0.3,0,0.5,0C1.5,23.7,1.5,23.8,1.5,24z"/>
			<path fill="#050505" d="M40,69c-0.2,0.2-0.3,0.3-0.5,0.5C39.7,69.3,39.8,69.2,40,69z"/>
			<path fill="#7C7C7C" d="M69,69c0-1.7,0-3.3,0-5c1.7,0,3.3,0,5,0c0,3.3,0,6.7,0,10c-1.7,0-3.3,0-5,0C69,72.3,69,70.7,69,69z"/>
			<path fill="#7C7C7C" d="M69,79c-3.3,0-6.7,0-10,0c0-1.7,0-3.3,0-5c1.7,0,3.3,0,5,0c1.7,0,3.3,0,5,0C69,75.7,69,77.3,69,79z"/>
			<path fill="#7C7C7C" d="M49.5,79c3.2,0,6.3,0,9.5,0c0,1.6,0,3.2,0,4.9c-3.1,0.1-6.2,0-9.5,0.1C49.5,82.3,49.5,80.6,49.5,79z"/>
			<path fill="#7C7C7C" d="M74,54.5c1.4,0,2.8,0,4.2,0c0.1,0.1,0.1,0.1,0.2,0.2c0,0.1,0.1,0.1,0.1,0.2c0,3,0,6,0,9.1
				c-1.5,0-3,0-4.5,0C74,60.8,74,57.7,74,54.5z"/>
			<path fill="#7C7C7C" d="M73.9,54.4c-1.6,0-3.2,0-4.9,0c0-1.6,0-3.2,0-4.8c1.6,0,3.2,0,4.9,0C73.9,51.2,73.9,52.9,73.9,54.4z"/>
			<path fill="#7C7C7C" d="M74,79c0,1.6,0,3.2,0,4.9c-0.8,0-1.6,0.1-2.4,0.1c-0.8,0-1.6,0-2.6,0c0-1.7,0-3.4,0-5
				C70.7,79,72.3,79,74,79z"/>
			<path fill="#7C7C7C" d="M49.4,78.9c-1.6,0-3.2,0-4.9,0c0-1.6,0-3.2,0-4.8c1.6,0,3.2,0,4.9,0C49.4,75.7,49.4,77.4,49.4,78.9z"/>
			<path fill="#7C7C7C" d="M74,74c1.4,0,2.8,0,4.4,0c0,0.8,0.1,1.6,0.1,2.4c0,0.8,0,1.6,0,2.6c-1.6,0-3,0-4.5,0
				C74,77.3,74,75.7,74,74z"/>
			<path fill="#030303" d="M82.5,82.5c-0.2,0.5-0.3,1-0.5,1.5c-0.3,0-0.6,0-1,0c0-0.4,0-0.7,0-1C81.2,82,82,82.7,82.5,82.5z"/>
			<path fill="#030303" d="M78.5,87c-0.5,0-1,0-1.5,0c0-0.3,0-0.6,0-1c0.6,0,1,0,1.5,0C78.5,86.3,78.5,86.7,78.5,87z"/>
			<path fill="#030303" d="M78.5,83.5c0,0.3,0,0.7,0,1c-0.2,0-0.5,0-0.7,0C77.5,83.6,77.5,83.6,78.5,83.5z"/>
			<path fill="#020202" d="M1.5,14.5c-0.2-0.2-0.3-0.4-0.5-0.6c0.2-0.1,0.3-0.3,0.5-0.4C1.5,13.8,1.5,14.2,1.5,14.5z"/>
			<path fill="#040404" d="M1,2c0-0.2,0-0.3,0-0.5C1.2,1.7,1.3,1.8,1.5,2C1.3,2,1.2,2,1,2z"/>
			<path fill="#BDBDBD" d="M39.5,44.5c-1.7,0-3.3,0-5,0c0-1.7,0-3.3,0-5c1.6,0,3.3,0,5,0C39.5,41.2,39.5,42.9,39.5,44.5z"/>
			<path fill="#BDBDBD" d="M44.5,49.5c-1.7,0-3.3,0-5,0c0-1.7,0-3.3,0-5c1.6,0,3.3,0,5,0C44.5,46.2,44.5,47.9,44.5,49.5z"/>
			<path fill="#BDBDBD" d="M49.5,54.5c-1.7,0-3.3,0-5,0c0-1.7,0-3.3,0-5c1.6,0,3.3,0,5,0C49.5,51.2,49.5,52.9,49.5,54.5z"/>
			<path fill="#BDBDBD" d="M64,69c-1.7,0-3.3,0-5,0c0-1.7,0-3.3,0-5c1.6,0,3.3,0,5,0C64,65.7,64,67.4,64,69z"/>
			<path fill="#BDBDBD" d="M64,74c0-1.7,0-3.3,0-5c1.7,0,3.3,0,5,0c0,1.7,0,3.3,0,5C67.3,74,65.7,74,64,74z"/>
			<path fill="#BDBDBD" d="M54,64c0-1.5,0-3,0-4.5c1.6,0,3.3,0,5,0c0,1.6,0,3,0,4.5C57.3,64,55.7,64,54,64z"/>
			<path fill="#BDBDBD" d="M54,59.5c-1.5,0-3,0-4.5,0c0-1.7,0-3.3,0-5c1.5,0,2.9,0,4.5,0C54,56.2,54,57.9,54,59.5z"/>
			<path fill="#BDBDBD" d="M34.5,39.5c-1.7,0-3.3,0-5,0c0-1.4,0-2.8,0-4.4c0.8,0,1.6-0.1,2.4-0.1c0.8,0,1.6,0,2.6,0
				C34.5,36.6,34.5,38,34.5,39.5z"/>
			<path fill="#010101" d="M74,74c0,1.7,0,3.3,0,5c-1.7,0-3.3,0-5,0c0-1.7,0-3.3,0-5C70.7,74,72.3,74,74,74z"/>
		</g>
	</g>
</g>
</svg>
