<?xml version="1.0" encoding="utf-8"?>
<!-- Generator: Adobe Illustrator 17.1.0, SVG Export Plug-In . SVG Version: 6.00 Build 0)  -->
<!DOCTYPE svg PUBLIC "-//W3C//DTD SVG 1.1//EN" "http://www.w3.org/Graphics/SVG/1.1/DTD/svg11.dtd">
<svg version="1.1" id="Layer_1" xmlns="http://www.w3.org/2000/svg" xmlns:xlink="http://www.w3.org/1999/xlink" x="0px" y="0px"
	 viewBox="0 0 90 130" enable-background="new 0 0 90 130" xml:space="preserve">
<g id="zqMGAi_1_">
	<rect x="15" y="42.8" fill="#FFFFFF" width="55" height="80.5"/>
	<rect x="32" y="10.2" fill="#FFFFFF" width="45.8" height="39.8"/>
	<rect x="30" y="14.5" fill="#FFFFFF" width="43.5" height="45.5"/>
	<rect x="7.5" y="68.5" fill="#FFFFFF" width="62" height="50.2"/>
	<rect x="40" y="10" fill="#FFFFFF" width="40.2" height="20"/>
	<rect x="18" y="75" fill="#FFFFFF" width="62" height="48.8"/>
	<rect x="13" y="70" fill="#FFFFFF" width="62" height="48.8"/>
	<rect x="55" y="5" fill="#FFFFFF" width="20" height="20"/>
	<rect x="20" y="20" fill="#FFFFFF" width="20" height="20"/>
	<rect x="15" y="25" fill="#FFFFFF" width="20" height="20"/>
	<rect x="10" y="30" fill="#FFFFFF" width="20" height="20"/>
	<rect x="5" y="35" fill="#FFFFFF" width="20" height="10.1"/>
	<g>
		<g>
			<path fill="#010101" d="M0,70c1.7,0,3.3,0,5,0c0,13.3,0,26.7,0,40c-1.7,0-3.3,0-5,0C0,96.7,0,83.3,0,70z"/>
			<path fill="#010101" d="M15,130c0-1.7,0-3.3,0-5c10,0,20,0,30,0c0,1.7,0,3.3,0,5C35,130,25,130,15,130z"/>
			<path fill="#010101" d="M85,130c-10,0-20,0-30,0c0-1.7,0-3.3,0-5c10,0,20,0,30,0C85,126.7,85,128.3,85,130z"/>
			<path fill="#010101" d="M75,0c0,1.7,0,3.3,0,5c-6.7,0-13.3,0-20,0c0-1.7,0-3.3,0-5C61.7,0,68.3,0,75,0z"/>
			<path fill="#010101" d="M90,125c-1.7,0-3.3,0-5,0c0-1.7,0-3.3,0-5c1.7,0,3.3,0,5,0C90,121.7,90,123.3,90,125z"/>
			<path fill="#010101" d="M15,65c0-3.3,0-6.7,0-10c1.6,0,3.2,0,5,0c0-1.8,0-3.4,0-5c1.7,0,3.3,0,5,0c0,5,0,10,0,15
				C21.7,65,18.3,65,15,65z"/>
			<path fill="#010101" d="M40,10c0-1.6,0-3.2,0-5c5.2,0,10.1,0,15,0c0,1.6,0,3.2,0,5C49.8,10,44.9,10,40,10z"/>
			<path fill="#010101" d="M5,70c0-1.6,0-3.2,0-5c3.5,0,6.8,0,10,0c0,1.6,0,3.2,0,5c-1.8,0-3.4,0-5,0C8.3,70,6.7,70,5,70z"/>
			<path fill="#010101" d="M30,15c0-1.6,0-3.2,0-5c3.5,0,6.8,0,10,0c0,1.6,0,3.2,0,5C36.5,15,33.2,15,30,15z"/>
			<path fill="#010101" d="M20,20c0-1.6,0-3.2,0-5c3.5,0,6.8,0,10,0c0,1.6,0,3.2,0,5C26.5,20,23.2,20,20,20z"/>
			<path fill="#010101" d="M5,45c-1.2,0-2.3,0-3.8,0C1.1,43.4,1,41.8,1,40.2C1,38.6,1,37,1,35c1.4,0,2.7,0,4,0C5,38.3,5,41.7,5,45z"
				/>
			<path fill="#010101" d="M15,25c0-1.6,0-3.2,0-5c1.8,0,3.4,0,5,0c0,1.6,0,3.2,0,5C18.2,25,16.6,25,15,25z"/>
			<path fill="#010101" d="M10,30c0-1.6,0-3.2,0-5c1.8,0,3.4,0,5,0c0,1.7,0,3.3,0,5C13.3,30,11.7,30,10,30z"/>
			<path fill="#010101" d="M5,35c0-1.6,0-3.2,0-5c1.8,0,3.4,0,5,0c0,1.7,0,3.3,0,5C8.3,35,6.7,35,5,35z"/>
			<path fill="#010101" d="M15,55c-1.6,0-3.2,0-5,0c0-1.8,0-3.4,0-5c1.7,0,3.3,0,5,0C15,51.7,15,53.3,15,55z"/>
			<path fill="#010101" d="M10,50c-1.6,0-3.2,0-5,0c0-1.8,0-3.4,0-5c1.7,0,3.3,0,5,0C10,46.7,10,48.3,10,50z"/>
			<path fill="#010101" d="M80,75c1.5,0,3,0,4.5,0c0.1,0.1,0.3,0.2,0.4,0.3c0.1,0.1,0.2,0.3,0.2,0.4c0,14.7,0,29.5,0,44.2
				c-1.6,0-3.2,0-5,0c0-1.8,0-3.4,0-5C80,101.7,80,88.3,80,75z"/>
			<path fill="#010101" d="M80,30c0,6.6,0,13.1,0,20c-1.8,0-3.4,0-5,0c0-6.7,0-13.3,0-20C76.7,30,78.3,30,80,30z"/>
			<path fill="#010101" d="M80,10c1.5,0,3,0,4.5,0c0.1,0.1,0.2,0.2,0.3,0.3c0.1,0.1,0.2,0.3,0.2,0.4c0,6.3,0,12.6,0,19.2
				c-1.8,0-3.4,0-5,0C80,23.3,80,16.7,80,10z"/>
			<path fill="#010101" d="M75,50c0,3.2,0,6.5,0,10c-1.8,0-3.4,0-5,0c0-3.2,0-6.5,0-10C71.8,50,73.4,50,75,50z"/>
			<path fill="#010101" d="M75,5c1.6,0,3.2,0,5,0c0,1.8,0,3.4,0,5c-1.6,0-3.2,0-5,0C75,8.2,75,6.6,75,5z"/>
			<path fill="#010101" d="M70,60c0,1.7,0,3.3,0,5c-1.6,0-3.2,0-5,0c0.1-1.9,0.2-3.5,0.2-5C67,60,68.5,60,70,60z"/>
			<path fill="#010101" d="M70,65c1.6,0,3.2,0,5,0c0,1.8,0,3.4,0,5c-1.7,0-3.3,0-5,0C70,68.3,70,66.7,70,65z"/>
			<path fill="#010101" d="M75,70c1.6,0,3.2,0,5,0c0,1.8,0,3.4,0,5c-1.6,0-3.2,0-5,0C75,73.2,75,71.6,75,70z"/>
			<path fill="#EF3F24" d="M5,70c1.7,0,3.3,0,5,0c0,1.6,0,3.2,0,5c3.5,0,6.8,0,10,0c0,1.7,0,3.3,0,5c-1.6,0-3.2,0-4.8,0
				c-0.1,1.9-0.2,3.5-0.3,5.2c-1.8,0-3.2,0-4.9,0c0.1,1.7,0.2,3.3,0.3,4.8c3.5,0,6.7,0,9.8,0c0,1.7,0,3.3,0,5c-1.6,0-3.2,0-4.8,0
				c-0.1,1.9-0.2,3.5-0.3,5.2c-1.8,0-3.2,0-4.9,0c0.1,1.7,0.2,3.3,0.3,4.8c3.5,0,6.7,0,9.8,0c0,1.7,0,3.3,0,5c-1.6,0-3.2,0-5,0
				c0,1.8,0,3.4,0,5c0,1.7,0,3.3,0,5c-1.7,0-3.3,0-5,0c0-3.2,0-6.5,0-10c-1.8,0-3.4,0-5,0C5,96.7,5,83.3,5,70z"/>
			<path fill="#010101" d="M5,110c1.6,0,3.2,0,5,0c0,3.5,0,6.8,0,10c-1.6,0-3.2,0-5,0C5,116.5,5,113.2,5,110z"/>
			<path fill="#010101" d="M10,120c1.7,0,3.3,0,5,0c0,1.7,0,3.3,0,5c-1.6,0-3.2,0-5,0C10,123.2,10,121.6,10,120z"/>
			<path fill="#EF3F24" d="M15,125c0-1.7,0-3.3,0-5c1.6,0,3.2,0,5,0c0-1.8,0-3.4,0-5c1.7,0,3.3,0,5,0c0,1.6,0,3.2,0,4.8
				c1.8,0,3.4,0,5.1,0c0-1.6,0-3.1,0-4.8c1.7,0,3.3,0,4.9,0c0,1.6,0,3.2,0,5c1.8,0,3.4,0,5,0c1.7,0,3.3,0,5,0c0,1.7,0,3.3,0,5
				C35,125,25,125,15,125z"/>
			<path fill="#EF3F24" d="M80,115c0,1.6,0,3.2,0,5c1.8,0,3.4,0,5,0c0,1.7,0,3.3,0,5c-10,0-20,0-30,0c0-1.7,0-3.3,0-5
				c1.6,0,3.2,0,4.9,0c0.1-1.9,0.2-3.5,0.3-5.2c1.8,0,3.2,0,4.7,0c0.1-1.7,0.2-3.3,0.3-4.7c1.8,0,3.2,0,4.7,0
				c0.3,3.4-0.2,6.6,0.3,9.7c1.8,0,3.2,0,4.7,0c0.1-1.7,0.2-3.3,0.3-4.8C77,115,78.5,115,80,115z"/>
			<path fill="#010101" d="M55,120c0,1.7,0,3.3,0,5c-3.3,0-6.7,0-10,0c0-1.7,0-3.3,0-5C48.3,120,51.7,120,55,120z"/>
			<path fill="#F1D1AF" d="M25,65c0-5,0-10,0-15c1.6,0,3.2,0,5.1,0c0,3.5,0,6.7,0,9.9c1.8,0,3.2,0,4.9,0c0-3.3,0-6.6,0-9.7
				c1.9-0.1,3.4-0.2,4.9-0.4c0-1.8,0-3.3,0-4.8c1.6,0,3.2,0,5.1,0c0,1.8,0,3.4,0,5.1c1.8,0,3.2,0,4.9,0c0,1.7,0,3.3,0,4.9
				c0,3.3,0,6.7,0,10c-3.3,0-6.6,0-9.8,0c-0.1,1.9-0.2,3.5-0.4,5c-5.2,0-10,0-14.8,0C25,68.3,25,66.7,25,65z"/>
			<path fill="#EF3F24" d="M25,50c-1.7,0-3.3,0-5,0c0-1.7,0-3.3,0-5c1.7,0,3.3,0,5,0C25,46.7,25,48.3,25,50z"/>
			<path fill="#010101" d="M20,75c1.7,0,3.3,0,5,0c0,6.6,0,13.1,0,20c1.8,0,3.4,0,5,0c0,3.3,0,6.7,0,10c-1.6,0-3.2,0-5,0
				c0,3.5,0,6.8,0,10c-1.7,0-3.3,0-5,0c0-1.7,0-3.3,0-5s0-3.3,0-5c0-3.3,0-6.7,0-10c0-1.7,0-3.3,0-5c0-3.3,0-6.7,0-10
				C20,78.3,20,76.7,20,75z"/>
			<path fill="#010101" d="M20,115c0,1.6,0,3.2,0,5c-1.8,0-3.4,0-5,0c0-1.7,0-3.3,0-5C16.7,115,18.3,115,20,115z"/>
			<path fill="#010101" d="M45,120c-1.7,0-3.3,0-5,0c0-1.7,0-3.3,0-5c1.6,0,3.2,0,5,0C45,116.8,45,118.4,45,120z"/>
			<path fill="#010101" d="M15,45c-1.7,0-3.3,0-5,0c0-3.3,0-6.7,0-10c1.6,0,3.2,0,5,0c0-1.8,0-3.4,0-5c9.9,0,19.8,0,30,0
				c0,1.8,0,3.4,0,5c-8.1,0-16.2,0-24.3,0c-0.1,0-0.3,0.1-0.4,0.2c-0.1,0.1-0.2,0.2-0.3,0.4c0,1.5,0,3,0,4.5c-1.6,0-3.2,0-5,0
				C15,41.8,15,43.4,15,45z"/>
			<path fill="#010101" d="M60,75c-10,0-20,0-30,0c-1.7,0-3.3,0-5,0c0-1.7,0-3.3,0-5c4.8,0,9.6,0,14.8,0c0.1-1.5,0.2-3.1,0.4-5
				c3.3,0,6.6,0,9.8,0c0,1.5,0,3,0,4.8c3.2,0.5,6.4,0,10,0.3C60,71.8,60,73.4,60,75z"/>
			<path fill="#010101" d="M50,65c0-3.3,0-6.7,0-10c1.7,0,3.3,0,5,0c0,3.2,0,6.5,0,10C53.2,65,51.6,65,50,65z"/>
			<path fill="#010101" d="M55,45c1.5,0,3,0,4.8,0c0.4,3.2,0,6.4,0.2,10c-1.8,0-3.4,0-5.1,0C55,51.7,55,48.3,55,45z"/>
			<path fill="#010101" d="M69.9,24.9c-1.5,0-3.1,0-4.8,0c0-1.6,0-3,0-4.6c1.5,0,3.1,0,4.8,0C69.9,21.8,69.9,23.4,69.9,24.9z"/>
			<path fill="#010101" d="M75,30c-1.6,0-3.2,0-5,0c0-1.8,0-3.4,0-5c1.6,0,3.2,0,5,0C75,26.8,75,28.4,75,30z"/>
			<path fill="#010101" d="M45,35c1.6,0,3.2,0,5,0c0,1.8,0,3.4,0,5c-1.6,0-3.2,0-5,0C45,38.2,45,36.6,45,35z"/>
			<path fill="#010101" d="M65,80c-1.6,0-3.2,0-5,0c0-1.8,0-3.4,0-5c1.7,0,3.3,0,5,0C65,76.7,65,78.3,65,80z"/>
			<path fill="#010101" d="M50,40c1.6,0,3.2,0,5,0c0,1.8,0,3.4,0,5c-1.6,0-3.2,0-5,0C50,43.2,50,41.6,50,40z"/>
			<path fill="#010101" d="M70,70c0,1.6,0,3.2,0,5c-1.8,0-3.4,0-5,0c0-1.6,0-3.2,0-5C66.8,70,68.4,70,70,70z"/>
			<path fill="#EF3F24" d="M45,120c0-1.6,0-3.2,0-5c-1.8,0-3.4,0-5,0c0-1.7,0-3.3,0-5c3.3,0,6.5,0,9.9,0c0-1.7,0-3.2,0-4.8
				c1.7,0,3.3,0,5.1,0c0,5,0,9.9,0,14.8C51.7,120,48.3,120,45,120z"/>
			<path fill="#EF3F24" d="M50,40c0,1.6,0,3.2,0,5c1.8,0,3.4,0,5,0c0,3.3,0,6.7,0,10c-1.7,0-3.3,0-5,0c0-1.6,0-3.2,0-4.9
				c-1.7,0-3.1,0-4.9,0c0-1.7,0-3.2,0-5.1c-1.9,0-3.5,0-5.1,0c-3.3,0-6.7,0-10,0c0-1.6,0-3.2,0-5c-1.8,0-3.4,0-5,0c-1.7,0-3.3,0-5,0
				c0-1.5,0-3,0-4.5c0.1-0.1,0.2-0.3,0.3-0.4c0.1-0.1,0.3-0.2,0.4-0.2c8.1,0,16.2,0,24.3,0c0,1.6,0,3.2,0,5C46.8,40,48.4,40,50,40z"
				/>
			<path fill="#010101" d="M30,45c3.3,0,6.7,0,10,0c0,1.5,0,3,0,4.8c-1.5,0.1-3.1,0.2-4.9,0.4c0,3.2,0,6.4,0,9.7c-1.7,0-3.2,0-4.9,0
				c0-3.1,0-6.4,0-9.9c-1.9,0-3.5,0-5.1,0c0-1.7,0-3.3,0-5C26.7,45,28.3,45,30,45z"/>
			<path fill="#010101" d="M15,50c0-1.7,0-3.3,0-5c1.7,0,3.3,0,5,0c0,1.7,0,3.3,0,5C18.3,50,16.7,50,15,50z"/>
			<path fill="#010101" d="M20,40c1.7,0,3.3,0,5,0c0,1.7,0,3.3,0,5c-1.7,0-3.3,0-5,0C20,43.3,20,41.7,20,40z"/>
			<path fill="#EF3F24" d="M25,75c1.7,0,3.3,0,5,0c0,1.5,0,3,0,4.8c3.2,0.5,6.4,0,9.8,0.3c0,1.4,0,2.9,0,4.7
				c-1.4,0.1-2.9,0.2-4.6,0.3c0,1.4,0,2.9,0,4.7c-1.7,0.1-3.3,0.2-5.2,0.3c0,1.6,0,3.2,0,4.9c-1.6,0-3.2,0-5,0
				C25,88.1,25,81.6,25,75z"/>
			<path fill="#EF3F24" d="M30,105c0-3.3,0-6.7,0-10c4.9,0,9.8,0,14.9,0c0,1.7,0,3.1,0,4.9c-1.5,0-3,0-4.9,0c0,3.6,0,6.8,0,10.1
				c-1.7,0-3.3,0-5,0c0-1.6,0-3.2,0-5C33.2,105,31.6,105,30,105z"/>
			<path fill="#010101" d="M65.1,80.2c1.5,0,3.1,0,4.8,0c0,3.2,0,6.3,0,9.6c-1.5,0-3.1,0-4.8,0C65.1,86.5,65.1,83.3,65.1,80.2z"/>
			<path fill="#010101" d="M35,110c1.7,0,3.3,0,5,0c0,1.7,0,3.3,0,5c-1.7,0-3.3,0-5,0C35,113.3,35,111.7,35,110z"/>
			<path fill="#010101" d="M30,105c1.6,0,3.2,0,5,0c0,1.8,0,3.4,0,5c-1.6,0-3.2,0-5,0C30,108.2,30,106.6,30,105z"/>
			<path fill="#EF3F24" d="M20,40c0,1.7,0,3.3,0,5c-1.7,0-3.3,0-5,0c0-1.6,0-3.2,0-5C16.8,40,18.4,40,20,40z"/>
			<path fill="#F1D1AF" d="M25,45c0-1.7,0-3.3,0-5c1.6,0,3.2,0,5,0c0,1.8,0,3.4,0,5C28.3,45,26.7,45,25,45z"/>
		</g>
	</g>
</g>
</svg>
